<svg xmlns="http://www.w3.org/2000/svg" xmlns:xlink="http://www.w3.org/1999/xlink" width="426" height="426" viewBox="0 0 426 426"><defs><clipPath id="a"><rect width="426" height="426" transform="translate(7274 359)" fill="#fff" stroke="#707070" stroke-width="1"/></clipPath></defs><g transform="translate(-7274 -359)" clip-path="url(#a)"><g transform="translate(7176.393 339.115)"><path d="M318.477,57.448q-2.815,7.448-5.628,14.9-1.8,4.773-3.607,9.546a7.717,7.717,0,0,1-1.488,3.069c-1.944,1.844-5.432,3.018-7.768,4.315l-4.695,2.608c-.807.449-2.6,1.012-3.162,1.756-.622.82-.328,2.327-.328,3.461v28.247l24.25-3.031L283.744,159.6c-2.654,3.062-5.876,6.01-7.854,9.573-4.209,7.584-8.323,15.223-12.483,22.834l-11.618,21.253,34.841-1.483c9.02-.384,18.287.193,26.978-2.363l21.494-6.321c.953-.281,3.921-.6,4.6-1.365.632-.718.619-3.433.8-4.352,3.382-17.381,7.687-36.535,17.557-51.5,7.076-10.725,16.625-20.116,25.369-29.468,3.413-3.65,6.886-7.257,10.178-11.018a16.421,16.421,0,0,0,2.619-3.226,5.308,5.308,0,0,0,.64-2.868,17.114,17.114,0,0,0-2.669-1.542c-2.28-1.465-4.54-2.962-6.805-4.451-6.365-4.184-12.723-8.379-19.124-12.508-4.99-3.219-9.966-6.632-15.23-9.4-5.456-2.868-11.464-4.886-17.184-7.151q-8.67-3.435-17.369-6.8" fill="#ff5678" fill-rule="evenodd"/><g transform="translate(97.607 32.738)"><path d="M417.05,290c-2.775,2.615-7.83,6.126-11.825,4.529-2.007-.8-3.721-2.561-5.548-3.7a33.735,33.735,0,0,1-5.987-4.446c-3.632-3.548-6.382-8.731-10.672-11.508-1.442-.934-4.256-1.134-5.256-2.625a3.924,3.924,0,0,1-.407-2.456c.179-1.665,1.079-1.567-.424-2.789h2.333c.045-.9-.855-.976-1.525-.86.312-1.429.629-7.02-1.975-4.486-2.258,2.2-1.128,5.841-2.727,8.22-1.224,1.822-4.472.347-4.911-1.658-.2-.9.795-2.306.913-3.189a6.53,6.53,0,0,0-1.884-5.133c-2.785,1.856-1.206,5.7-2.794,8.135-1.436,2.206-4.635,1.177-6.822.789-2.621-.466-5.585.005-8.094-.614-3.787-.935-2.373-5.381-2.748-8.251-.4-3.074-3.509-7.341-2.575-10.443,1-3.33,6.865-4.05,9.667-4.858,6.4-1.847,15.538-2.2,20.3-7.374,3.787,4.223,6.833,9.059,10.8,13.124,4.29,4.391,8.872,8.445,12.99,13.013,4.286,4.754,8.711,9.417,12.841,14.309,1.8,2.134,3.385,4.434,5.249,6.517,1.658,1.852,3.4,3.555,1.077,5.748M226.708,207.866c1.968-1.046,2.218-.39,2.218,1.765a3.574,3.574,0,0,0-2.218-1.765m-16.684,41.9v-3.8c1.9-.05.731,3.2,0,3.8m-.464,5.658a16.788,16.788,0,0,1,.44-4.92c.255,1.783.741,3.327-.44,4.92m8.157,115.566c1.742.163,4.427-1.037,5.893.33,1.505,1.4,1.385,5.493,1.741,7.391.589,3.136,1.111,6.283,1.608,9.434.326,2.066.728,4.164-1.608,4.955-3.452,1.168-8.385-.5-11.983-.65-7.108-.3-14.212-.715-21.326-.859a166.459,166.459,0,0,0-20.669.688c-3.1.324-6.132.9-9.2,1.414-1.617.273-5.952,1.416-7.413.053-2.749-2.567,1.821-8.56,3.787-10.252,3.648-3.141,8.836-5.406,13.41-6.77,2.444-.729,6.52-2.777,8.445-.487,1.477,1.756,1.419,4.1,3.536,5.431,4.905,3.083,2.035-5.761-1.03-6.85,2.058-4.817,5.981,1.984,7.609,3.618.579.581,2.462,2.5,3.28,1.534.612-.721-.611-3.306-.837-4.01-.344-1.068-1.216-2.693-.965-3.852.453-2.1,3.394-2.668,5.155-2.842,2.731-.27,5.41.6,8.11.885,4.141.444,8.314.45,12.459.84M190.294,173.521c-5.391.429-10.817-.4-16.2.279-5.089.639-9.884,2.507-14.682,4.224a202.368,202.368,0,0,1,27.606-46.219c5.6-7.1,11.624-14.16,17.676-20.884,2.816-3.128,5.729-6.153,8.636-9.193,2.594-2.712,4.452-7.319,7.564-9.344,2.657-1.729,7.3-.5,10.243-.389,3.328.121,7.378.424,10.623-.684,2.352-.8,3-2.945.055-3.016-3.472-.084-6.887.278-10.4-.048-9.114-.842-17.9-2.226-27.087-1.441-2.1.179-4.876,1.076-6.941.807-1.485-.195-.509.552-1.541-.64a5.9,5.9,0,0,1-.989-2.133c-.658-3.4,1.21-8.263,1.657-11.687.413-3.17.047-6.653.821-9.74.7-2.809,2.852-3.183,5.5-3.483,7.234-.821,14.617-1.259,21.885-1.878,16.585-1.413,33.7-3.544,50.168-.053,5.948,1.26,13.2,3.209,18.514,6.33,1.662.975,3.338,2.124,2.734,4.146-.627,2.1-3.7,4.315-5.223,5.7-11.251,10.214-22.119,20.633-30.022,33.739-10.08,16.713-15.864,34.763-19.258,53.914-.73,4.12-1.408,6.277-5.647,7.462a71.42,71.42,0,0,1-13.661,2.489c-10.666.876-21.366.894-32.027,1.745m3.613-110.678c-.817,6.084-1.924,12.154-2.033,18.286-.041,2.316-.261,3.476-2.723,3.993-2.9.609-5.855,1.062-8.772,1.694-14.077,3.051-27.887,6.8-41.659,11.014-13.384,4.1-26.549,8.711-40.234,11.748-5.887,1.306-12.775,2.187-18.137,5.079-5.768,3.113-5.009,8.215-5.527,13.82-.692,7.488-2.912,14.739-3.693,22.225a90.322,90.322,0,0,0-.657,10.774c.048,3.068.487,6.461-1.575,9.043-4.138-5.531-6.1-12.489-6.914-19.269-.4-3.3-.239-6.618-.353-9.929-.092-2.666-.032-6.906-1.768-9.132-3.775-4.838-8.683,14.55-9.15,16.621-.785,3.485-1.433,7-2.215,10.484-.347,1.545-.792,7.16-2.862,7.72-4.289,1.16-3.348-10.893-3.416-12.728-.136-3.7-.228-7.413-.141-11.12.063-2.676.581-5.58.273-8.257-.755-6.574-4.451.352-5.49,2.8-2.626,6.177-3.813,12.789-6.168,19.065-.392,1.044-1.312,4.558-2.77,4.624-1.622.072-1.61-3.558-1.7-4.618-.538-6.147-2.357-12.251-1.808-18.461a45.789,45.789,0,0,1,5.863-18.173c6.577-11.532,18.453-18.154,29.829-24.185a244.244,244.244,0,0,1,40.8-16.8,404.815,404.815,0,0,1,51.658-12.741c8.873-1.565,17.882-2.684,26.846-3.581,3.15-.315,6.3-.5,9.411-1.1,1.174-.227,5.408-1.3,5.086,1.1m9.069-19.688c-4.448.035-8.992-2.121-13.326-3.012-5.159-1.062-10.2-2.6-15.348-3.708-10.085-2.171-20.176-4.288-30.252-6.507-4.374-.963-8.769-1.8-13.127-2.837-4.662-1.107-9.7-2.341-14.469-1.149-7.232,1.808-10.287,9.72-12.942,15.895-1.876,4.361-3.345,9.223-6.271,13.018-1.042,1.353-2.522,2.967-4.411,2.529-3.508-.814-2.951-5.456-2.5-8.023.647-3.724,1.565-7.4,2.3-11.112.3-1.5,2.589-11.289-1.5-9.773-3.037,1.125-4.643,8.532-5.793,11.178-.854,1.966-1.759,3.919-2.718,5.837-1.279,2.558-4.929,11.1-8.97,10-5.782-1.577-.236-16.779.749-19.983.541-1.759,6.418-15.1,1.457-14.007-2.113.465-4.171,4.389-5.248,6.016-1.91,2.885-3.815,5.791-5.613,8.747-1.85,3.04-2.794,6.5-4.629,9.5-.965,1.577-2.935,3.678-4.858,2.218-3-2.274-1.221-10.184-.7-13.176A38.9,38.9,0,0,1,61.536,19c5-6.831,14.441-9.039,22.378-10.366,10.245-1.713,20.633-1.245,30.921-.231A333.708,333.708,0,0,1,149.2,13.093c11.494,2.35,22.994,4.681,34.311,7.789,5.331,1.464,10.739,2.762,15.995,4.481,5.587,1.827,11.04,4.1,16.783,5.416L210.233,45.9a10.06,10.06,0,0,0-7.257-2.747m99.016,13.891c1.771-.969,3.728-1.426,4.375-3.567.572-1.892-.4-4.036-.872-5.852a33.014,33.014,0,0,1-.494-15.5c1.1,1.686,5.239,8.171,7.754,4.245,1.517-2.368-2.547-5.775-3.734-7.439,2.6-1.607,6.321-5.918,9.321-3.318,1.939,1.681,2.76,3.3,5.372,4.117,3.171.992,6.157.765,9.4.491,2.267-.192,2.814-.494,3.7,1.252a24.862,24.862,0,0,1,1.461,4.545c.8,2.906,2.654,8.631.459,11.353-1.922,2.384-9.383.34-10.419,3.418-.565,1.679,2.132,1.739,3.162,2.569a12.152,12.152,0,0,1,3.025,4.126c.513,1.081,1.294,2.867.42,3.972-1.208,1.529-3.446.369-4.42-.742-1.293-1.476-1.712-3.494-2.791-5.1-1.979-2.95-2.1-.6-2.637,1.515-.56,2.2-1.884,2.049-3.912,2.332a83.886,83.886,0,0,0-10.617,2.15,39.894,39.894,0,0,0-5.187,1.839c-1.089.468-2.978,1.886-4.16,1.9-2.19.025-3.709-3.639-4.84-5.167,1.878-1.048,3.75-2.106,5.636-3.138M419.623,281.375c-5.471-6.567-10.209-13.7-15.606-20.326-5.324-6.534-11.483-12.246-17.457-18.164a111.067,111.067,0,0,0-8.634-8.332c-2.322-1.847-4.109-1.875-6.9-1.057a171.542,171.542,0,0,0-23.527,8.591c-6.993,3.23-13.363,7.378-20.947,9.179a82.471,82.471,0,0,1-23.725,1.973,93.643,93.643,0,0,1-23.554-4.649c-7.33-2.357-14.972-4.415-21.241-9.087-6.572-4.9-11.649-11.941-16.354-18.567a57.542,57.542,0,0,1-6.351-10.677c-1.393-3.3-2.3-7.192-4.8-9.881a9.785,9.785,0,0,0-1.687,2.634c-.142.464.694.449.608.818-.162.694-1.086,1.4-1.623,1.78-1.93,1.358-1.941.277-1.435,2.817.295,1.48-.263,4.82-2.677,3.729.889,1.064-.523,2.407-.985,3.283a1.127,1.127,0,0,0-1.183-.381c.883,1.758.361,1.8-.494,3.2a11.4,11.4,0,0,0-.63,1.478c-.874,1.245-1.884,1.559-2.394,3.109-.419,1.274-.312,2.674-.778,3.946l-1.693-2.34a9.651,9.651,0,0,0,.614,2.078c.169.348.891,1.16.881,1.35-.039.709-.925.539-1.177,1.151-.473,1.148.211,1.317-.047,2.437-.3,1.285-1.09.771-1.468,1.867-.072.208.486,1.026.4,1.475-.124.634-.7.989-.9,1.553-.517,1.434-.329,2.484-1.046,3.86a9.345,9.345,0,0,0-.878,1.5c-.172.534.2,1.669-.133,2.147-1.6,2.3-1.374-1.664-1.253-2.648,1.018-8.261,4.284-16.788,7.273-24.51,1.485-3.836,2.931-7.793,4.793-11.467a14.144,14.144,0,0,1,2.853-4.139c1.567-1.432,3.789-2,5.208-3.6-.224.252,1.538-1.415,1.256-.867.252-.49-.188-1.153-.032-1.627.195-.589.563-.712.972-1.228.737-.925,1.611-1.386.455-2.564,1.717-.38,2.538-.937,2.881-2.775.25-1.345-.255-1.257.627-2.154s1.334-.2,1.893-1.758a50.873,50.873,0,0,0,1.511-6.358c.349-1.705-.5-4.213.939-5.418,1.821-1.525,3.45-.879,3.123-3.946-.318-2.989.61-4.8,1.544-7.629,1.863-5.647,2.583-11.61,4.217-17.324,3.487-12.2,9.646-23.191,16.268-33.926C272.441,100,281,91.55,289.258,83.411c2.262-2.229,4.5-4.491,6.53-6.934,1.75-2.1,2.549-4.969,4.23-6.967,1.022-1.213,2.923-1.732,4.35-2.375,2.379-1.073,5.214-2.473,7.9-2.256-1.067,3.6-1.415,7.8,1.734,10.5,3.82,3.272,7.282-.127,10.784-1.993,6.383-3.4,15.511-.279,21.076-5.376,1.326-1.214,1.7-3.153,3.073-4.287,1.011-.831,2.45-1.042,3.588-1.662,3.459-1.882,5.137-5.328,3.791-9.135-1.231-3.48-3.143-4.687,1.114-6.451,3.456-1.431,4.769-3.587,3.205-7.425-1.491-3.659-4.223-4.081-6.808-6.475-2.5-2.32.372-5.019,2.248-6.76,2.419-2.246,2.882-4.27.077-6.606-2.937-2.446-7.129-2.36-10.552-1.151a12.894,12.894,0,0,0-8.06,7.323c-1.668,3.75-5.8,2.7-9.153,1.658-3.2-1-4.036-3.155-6.14-5.476-2.339-2.582-7.106-.374-9.864.806-6.795,2.9-13.547,7.487-13.817,15.606-.161,4.841,1.887,8.956,2.951,13.5.974,4.155-5.7,3.828-6.858,7.847-12.332-6.528-26.065-8.526-39.85-8.97-14.651-.473-29.514-.852-44.04,1.459,3.372-5.875,5.153-12.317,8.086-18.352.845-1.738,1.208-1.589,3.072-1.064,3.58,1.008,7.133,2.136,10.706,3.175,13.051,3.794,25.847,8.365,38.466,13.372,1.226.487,3.965,1.838,5.04.369,1.24-1.694-1.629-3.784-2.791-4.636-5.082-3.728-11.379-5.99-17.07-8.606-12.442-5.716-26.22-8.43-39.2-12.676A557.795,557.795,0,0,0,130.926,2.662C123.819,1.539,116.635,1.375,109.5.542A80.347,80.347,0,0,0,90.516.583C78.838,1.992,65.3,5.03,58.7,15.72c-5.954,9.652-9.929,20.5-8.409,31.952.457,3.439,1.913,7.511,6.156,6.625,2.943-.615,4.506-3.116,5.873-5.556,2.065-3.687,4.1-7.375,6.342-10.963.83,5.381-2.186,10.671-1.712,16.152.323,3.719,2.378,9.6,7.207,8.543,6.619-1.443,9.342-11.783,12.525-16.743.161,3.821-1.178,7.586-.768,11.415.4,3.782,3.36,7.353,7.511,6.835,3.915-.489,6.46-4.683,8.123-7.841,2.314-4.395,3.976-9.107,6.237-13.53,2.118-4.147,4.628-9.084,9.685-9.863,4.514-.7,9.686.915,14.145,1.579,12.367,1.843,24.485,4.981,36.717,7.516,13.115,2.718,26.54,4.369,39.251,8.754-4.469,6.083-16.165,4.769-22.823,5.422C174.7,57,164.509,57.746,154.5,59.2c-9.881,1.438-19.555,3.991-29.359,5.844-9.752,1.844-19.488,3.69-28.924,6.834C78.7,77.718,60.889,85.106,45.453,95.292c-7.182,4.74-13.563,10.157-18,17.638-4.465,7.528-6.611,16.04-7.429,24.7-.509,5.392.356,10.058,1.4,15.306.757,3.8,1,10.161,4.048,12.943,5.815,5.31,10.642-16.229,11.716-18.83.773,4.263-.491,28.281,8.839,26.327,4.164-.871,5.108-6.586,5.8-10.029,1.26-6.275,2.388-12.677,4.543-18.721,1.383,8.143,1.959,16.627,4.938,24.4,1.979,5.165,7.625,14.331,11.561,5.488,2.952-6.632,1.939-14.243,2.293-21.284.392-7.8,2.632-15.329,3.425-23.055.307-2.993.029-6.366,3.037-8,2.582-1.4,6.358-1.858,9.177-2.641,8.35-2.318,16.755-4.449,25.065-6.909s16.513-5.337,24.716-8.143c7.846-2.684,15.856-4.21,23.8-6.508,4.515-1.307,8.975-2.674,13.553-3.765,2.13-.507,4.287-.9,6.412-1.428,1.576-.389,3.651-1.858,5.271-1.832,1.667.027,2.294,1.439,4.206,1.55a46.755,46.755,0,0,0,6.2-.492c4.986-.383,10.287-1,15.262-.31-2.99,3.547-7.028,6-10.568,8.936A99.543,99.543,0,0,0,193.2,111.685a316.451,316.451,0,0,0-19.806,25.283,159.447,159.447,0,0,0-15.222,27.64,118.684,118.684,0,0,0-5.641,14.731,26.484,26.484,0,0,1-2.178,6.03c-1,1.727-2.4,3.215-1.222,5.3a21.4,21.4,0,0,0,2.272-1.747c-.847,5.966-2.675,11.738-3.615,17.686a107.372,107.372,0,0,0-.829,17.805,188.943,188.943,0,0,0,3.562,36.665,289.824,289.824,0,0,0,9.928,36.352c3.965,11.418,7.944,23.392,13.478,34.154,5.911,11.495,12.943,23.58,21.5,33.31-5.589,2.289-12.7,1.861-18.62,2.783a41.289,41.289,0,0,0-16.81,6.206,18.464,18.464,0,0,0-8.967,14.24c-.524,4.5-2.08,10.719,3.818,11.9,4.242.849,8.984-.546,13.235-.891,7.435-.6,14.881-.979,22.333-1.3q11.148-.487,22.3-.84c3.5-.108,7-.163,10.491-.289a10.006,10.006,0,0,1,3.921.373c1.111.358,1.029,1.1,2.266.182,1.995-1.483,1.584-6.161,1.528-8.217a56.672,56.672,0,0,0-1-9.5c-.367-1.85-4.827-13.777-1.359-14.279-4.029-4.427-5.638-10.748-7.447-16.3a205.8,205.8,0,0,1-10.633-67.37,99.183,99.183,0,0,0,50.06,15.277c18.116.573,38.019-.915,55.221-6.942a84.29,84.29,0,0,0,21.932-11.395c2.448-1.77,5.071-5.778,8.284-5.71,3.835.082,8.129,1.534,11.937,2.155,7.282,1.187,16.787,1.857,22.953,6.361,3.349,2.447,5.749,5.872,8.738,8.691,2.273,2.145,5.28,3.31,7.536,5.454,2.435,2.314,1.468,5.337,5.5,5.525,3.451.159,7.234-1.229,10.211-2.858,5.938-3.251,12.261-10.191,6.773-16.778" fill-rule="evenodd"/><path d="M362.552,126.726c8.689,6.172,18.656,10.389,27.737,15.948,2.273,1.391,9.354,4.28,9.285,6.861-.04,1.509-2.168,3.4-3.1,4.447-1.6,1.791-3.1,3.6-4.571,5.5-6.743,8.679-13.093,17.439-20.4,25.682-1.1,1.24-4.415,7.16-5.485,4.22-.485-1.333-.085-2.831-1.35-4.074-.651-.64-3.165-.993-2.432-2.366l1.465.658a20.177,20.177,0,0,0-.92-3.337c-.353-.644-1.044-.949-1.283-1.675-.331-1,.23-2.168.136-3.2a14,14,0,0,0-.946-2.977c-1.891-5.764-2.569-11.575-3.537-17.523-.958-5.885-2.45-11.586-3.036-17.536-.619-6.285-1.377-12.557-2.389-18.792,1.806.253,3.194,2.216,4.472,3.325,2.008,1.744,4.188,3.306,6.354,4.845m-6.812,60.848a3.445,3.445,0,0,1-.973-1.2c4.259-2.11,1.689,1.49.973,1.2m-2.59-4.5c-1.856.512-3.19.615-4.621-.149-.136-.072.021-.63-.224-.745-.214-.1-.541.024-.724-.07-.623-.317-1.715.378-1.821-.836,2.369-.725,4.7-2.063,7.2-2.289,3.476-.313,3.316,3.226.19,4.088m-8.134-7c-2.533.592-4.62,1.976-7.311,1.614a14.5,14.5,0,0,1-6.714-3.158c4.985-1.411,10.213-1.666,15.194-3.031,1.622-.444,3.753-1.616,5.5-1.144,1.942.525,2.064,2.344,2.646,4-3.108.559-6.239,1-9.316,1.72m-15.842-7.023c-2.434.581-4.921,1.853-6.956-.341-.329-.354-.616,0-.577-1.091a2.913,2.913,0,0,1,1.982-2.3c2.111-.952,5.07-.336,7.312-.477,3.576-.222,7.216-.966,10.754-1.538,2.449-.4,4.979-1.275,7.482-1.1,1.933.134,4.264,1.781,1.448,2.983-2.565,1.095-6.411.927-9.19,1.4-4.108.7-8.2,1.492-12.255,2.461M326.8,157.607l.473.482a4.724,4.724,0,0,1,1.187-.805c1.234-.107,2.475-.022,3.71-.092a63.418,63.418,0,0,0,8.512-1.2c2.278-.445,4.6-1.212,6.942-1.02,2.03.166,2.243.582,2.376,2.541-5.181,0-10.518-.109-15.61.988-3.315.714-6.968,2.839-8.629-.992l1.038.1m3.239-8.293c1.285.979,4.787-.649,6.327-.811a33.135,33.135,0,0,0,4.866-.777c1.437-.37,6.19-2.216,7.293-.45,1.69,2.706-5.152,3.2-6.237,3.336a100.036,100.036,0,0,0-13.695,2.253l1.446-3.551m6.24-9.19c.332,1.251,10.619-3.358,10.807-.008.144,2.57-10.178,3.85-12.034,3.625.435-1.183,1.591-2.243,1.227-3.616m3.454-7.861c.219-2.523.557-2.508,2.58-2.746,1.543-.181,3.664-1.086,3.262,1.664-.344,2.355-6.063,3.627-5.842,1.082m3.677-8.68c.487-1.354,1.582.469,1.605,1.157.061,1.833-1.328,1.436-2.666,1.436q.558-1.284,1.06-2.594m16.931-10.166c-.273-.329-1.8-.454-2.24-.614-1.072-.393-.92-1.23-2.291-.4-.069-.069.062-.69-.013-.718a11.245,11.245,0,0,1-1.311-.577,17.132,17.132,0,0,1-2.125-1.561,19.377,19.377,0,0,0-2.314-2.089,3.028,3.028,0,0,0-1.072-.588c-1.109-.171-.791.6-1.761.755-.6.095-1.032-.6-1.813-.3-.675.259-1.066,1.206-1.367,1.769-1.093,2.05-1.936,4.256-3.006,6.327-5.472,10.593-11.692,20.784-16.992,31.476A121.463,121.463,0,0,0,317.02,162.7c-1.3,3.948-4.221,9.715-1.7,13.66,1.83,2.868,5.5,4.107,8.419,5.493,4.4,2.086,8.455,4.811,12.9,6.833,5.3,2.411,10.455,4.933,15.625,7.625,2.2,1.148,4.195,2.8,6.392,3.89,1.344.665,3.42-.47,3.858,1.055,1.685-2.041,4.412-.68,6.361-2.117,1.146-.845,1.984-2.51,2.94-3.551,1.434-1.561,2.991-3.008,4.455-4.541,5.809-6.09,11.172-12.432,16.457-18.973,5.048-6.246,10.945-12.148,15.209-18.985a9.266,9.266,0,0,0,.883-8.559c-.816-2.187-2.781-5.49-5.589-4.042,1.065-1.768-3.042-3.656-4.288-4-.019,0-.264,1.353-.612,1.319a11.189,11.189,0,0,0-1.557-3.4,50.415,50.415,0,0,0-5.037-3.446c-1.524-.87-3.133-1.3-4.609-2.275-1.79-1.18-3.433-2.579-5.229-3.751a35.088,35.088,0,0,0-5.585-3.247c-1.662-.675-3.155-.807-4.651-1.913a27.411,27.411,0,0,0-5.6-3.239c-1.846-.815-4.4-1.528-5.725-3.125" fill-rule="evenodd"/><path d="M108.343,277.253q.509-1.2,1.017-2.391c.42,1.39.537,2.081-1.017,2.391m.452,3.682c-.735.132-.446-2.175-.446-2.577,1.27.719.218,1.581.446,2.577m-1.146-6.655,1.881-1.111c-.873,1.617-.53.607-.17,1.687a1.547,1.547,0,0,1-1.71-.577m-3.715,12.642c-2.35,8.526-9.813,15.25-17.7,18.733a29.675,29.675,0,0,1-13.875,2.278c-1.887-.086-4.107-.7-5.923-.585-1.4.088-1.335.149-2.493,1.332-.512-.943-.141-1.605-1.169-2.155-1.282-.685-1.815.113-2.45,1.062a6.635,6.635,0,0,0-2.252-1.825c.034.016-1.032-.024-.989-.011-.193-.059-1.353-.805-1.716-.941-1.49-.559-3.213-.789-4.588-1.591-1.2-.7-2.193-2.666-3.57-1.156,0-2.524-3.4-3.571-5-4.894a21.562,21.562,0,0,1-5.712-8.084,44.79,44.79,0,0,1-2.386-9.433c-.433-2.272-3.268-5.557-1.565-7.85.406.962.215,1.946.889,2.818a14.887,14.887,0,0,0,1.214-3.754,16.773,16.773,0,0,0,.826-3.01c-.18-1.117-1.562-1.177-.8-2.546,1.59,1.73,2.872-1.308,1.671-2.518a5.918,5.918,0,0,0-1.084,2.256c-1.563-3.155,2.763-2.139,1.816-4.987,1.579-.3,2.486-.7,3.086-2.261.667-1.736.176-2.114,1.692-3.261.521-.394,2-.961,2.266-1.61.522-1.253-.806-1.625.357-2.8.393.689,1.924,2.054,2.763.755.168-.259-.537-.443-.024-1.039.76-.883,1.61-1.748,2.894-1.563-1.017-2.543,5.483-2.745,7.148-3.345a17.626,17.626,0,0,1,4.853-1.135c1.767-.139,1.855-.657,3.351-1.721.127,1.522.493,1.188,1.575,1.456q.39-.669.8-.15a1.315,1.315,0,0,0,1,.365c.594.031,1.268-.047,1.891-.034,1.462.028,2.969-.093,4.4-.062a2.919,2.919,0,0,0,1.039-.386q.2.382.406.765c.76.1.818,1.047,1.753.006.276,1.323,1.071.635,1.91.994.765.328.887.852,1.593,1.217a1.269,1.269,0,0,0,1.494.15q.759.563,1.542,1.093a30.27,30.27,0,0,0,3.106,1.3q1.01.417,2.007.866.03,1.2,1.078.849a4.823,4.823,0,0,1,1.421,1.407,38.725,38.725,0,0,0,4.37,5.442c7.615,7.918,9.955,19.112,7.075,29.559m2.337-33.668c-3.438-4.6-8.3-9.876-12.677-12.784-2.216-1.474-5.328-4.121-8.038-4.9-.643-.185-1.308-.2-1.939-.391-.488-.15-.754-.651-1.31-.741-.389-.063-.432.808-.846.728-.865-.169-1.413-1.026-2.023-1.563-1.311,2.26-2.023-1.54-3.949,1.014-2.292-3.593-7.675-2.808-11.335-2.626a9.192,9.192,0,0,0-2.557.726,4.673,4.673,0,0,1-1.962.19,14.932,14.932,0,0,0-6.848,1.357c-3.782,1.8-7.253,4.6-10.845,6.76a44.974,44.974,0,0,0-10.7,9.038c-11.1,12.8-14.072,31.473-5.219,46.306,14.062,23.56,50.335,26.078,70.889,10.092,15.88-12.351,21.923-36.393,9.364-53.207" fill-rule="evenodd"/><path d="M280.32,186.956c-.395.942-4.08.624-4.161-.486-.12-1.659,4.846-1.151,4.161.486m3.915-.616c2.089.17,5.52,1.588,7.533.731,3.072-1.309-.154-3.316-1.8-3.916-1.677-.611-4.175-.287-5.037-2.04-.649-1.318.954-5-1.034-4.408-2.087.62-1.48,5.893-4.754,4.116-1.562-.849-.925-6.015-3.541-3.376-.716.723-.778,2.048-1.727,2.586-.968.55-2.181-.023-3.2.025-2.7.126-3.566,2.656-.826,3.659,1.014.372,4.837.826,2.521,2.483-1.459,1.045-4.7-1.147-5.954.671-1.722,2.5,2.891,2.553,4.13,3.3,2.1,1.265.366,4.218.533,6.322.256,3.214,2.124,2.543,2.8-.178.575-2.307-.138-5.63,3.342-4.712,5.666,1.493-3.151,8.687,1,10.527,2.646,1.174,3.021-5.17,3.226-6.263.761-4.032,3.026-3.091,6.457-2.967,4.009.144,4.976-2.822.731-3.671-1.354-.27-3.217.072-4.394-.791-.7-.51-1.653-2.233-.005-2.1" fill-rule="evenodd"/><path d="M136.232,318.076c-3.244-1.162-8.671-.911-9.474,3.279a5.693,5.693,0,0,0,1.53,4.883c1.4,1.477,3.642,1.614,3.522-.958-.083-1.781-1.778-3.327,1.2-3.686,1.854-.223,4.6,1.163,4.688,3.211.209,4.616-7.782,4.978-10.727,4.18-5.844-1.584-4.257-7.7-.243-10.5,1.037-.722,4.012-1.834,4.147-3.333.181-1.989-2.278-1.582-3.484-1.32-8.859,1.928-10.79,16.77-1.533,19.568,4.2,1.27,10.124-.041,12.657-3.848,2.375-3.57,2.407-9.8-2.286-11.476" fill-rule="evenodd"/><path d="M18.768,213.014l-8.308,4C9.545,215.055,8,209.7,5.676,209.02c-3.759-1.106-1.365,4.727-.717,6.061.533,1.1,1.769,2.793,1.469,4.1-.4,1.759-2.885,2.383-4.184,3.29-3.215,2.247-3.19,6.965,1.467,4.966,2.635-1.132,5.9-4.27,7.916-.707.932,1.644,3.142,10.83,5.449,4.823,1.428-3.719-5.444-7.584-2.056-10.73,1.091-1.012,2.367-1.1,3.457-1.68,2.631-1.406,1.148-4,.29-6.127" fill-rule="evenodd"/><path d="M424.77,79.917c-1.651-.6-3.693-1.783-5.528-1.381-1.95.427-2.735,2.38-4.153,3.554-3.855,3.193-6.1-1.566-8.219-4.174-2-2.463-4.441-3.06-7.264-1.547-1.125.6-5.862,3.367-5.036,5.138.594,1.274,2.935.13,3.733-.148,1.733-.6,3.343-1.131,5.116-.252,3.325,1.649,4.188,6.171,8.211,6.876,4.16.729,4.3-3.23,7.265-4.72,1.99-1,3.377.769,5.3.417,1.83-.335,2.676-3,.579-3.764" fill-rule="evenodd"/><path d="M391.183,95.872c1.471.319,2.432-2.534,3.353-3.258a5.01,5.01,0,0,1,5.732-.234c3.038,2.357,1.991,7.446,6.317,8.773,3.866,1.186,5.687-3.906,8.942-5.174,1.892-.737,3.969-1.22,3.231-3.865-.51-1.829-2.012-2.3-3.645-1.6-2.807,1.206-3.76,6.121-7.088,6.209-3.443.091-3.816-4.872-5.294-7.034-2.253-3.3-6.886-4.091-9.518-.94-.795.951-4.83,6.513-2.028,7.12" fill-rule="evenodd"/><path d="M323.127,39.6c2.047,1.4,6.126,1.352,8.011-.385,1.919-1.767-.643-2.039-2.206-1.985-1.2.042-3.453.638-2.768-1.439.608-1.842,3.95-.9,4.229-2.927-2.515-.451-5.286-.289-7.147,1.688-1.345,1.429-2.036,3.736-.121,5.047" fill-rule="evenodd"/></g></g></g></svg>