<svg xmlns="http://www.w3.org/2000/svg" xmlns:xlink="http://www.w3.org/1999/xlink" width="69" height="69" viewBox="0 0 69 69"><defs><clipPath id="a"><rect width="69" height="69" transform="translate(1093 357)" fill="#fff"/></clipPath></defs><g transform="translate(-1093 -357)" clip-path="url(#a)"><path d="M21.629,17.363V9.044a3.7,3.7,0,0,1,3.7-3.7h1.984a1.689,1.689,0,1,1,0,3.378H25.327a.324.324,0,0,0-.32.32V14.48l.131-.073a1.689,1.689,0,0,1,.826-.216h6.72a1.689,1.689,0,1,1,0,3.378H26.4l-2.261,1.267a1.689,1.689,0,0,1-2.515-1.473Zm9.365-8.838V3.7a3.7,3.7,0,0,1,3.7-3.7h8.98a3.7,3.7,0,0,1,3.7,3.7V13.951a1.689,1.689,0,0,1-2.937,1.138l-2.614-2.866H34.691A3.7,3.7,0,0,1,30.994,8.525Zm3.378,0a.328.328,0,0,0,.32.32h7.872a1.688,1.688,0,0,1,1.248.551l.18.2V3.7a.325.325,0,0,0-.32-.32h-8.98a.328.328,0,0,0-.32.32V8.525ZM51.658,22.181A7.043,7.043,0,1,1,58.7,29.224,7.051,7.051,0,0,1,51.658,22.181Zm3.378,0A3.665,3.665,0,1,0,58.7,18.516,3.669,3.669,0,0,0,55.036,22.181ZM24.806,65.62H21.931V50.029a1.689,1.689,0,0,0-1.683-1.689L10.53,48.3V35.954l11.913,3.977a1.689,1.689,0,1,0,1.07-3.2l-14.084-4.7a1.679,1.679,0,0,0-.461-.1,1.7,1.7,0,0,0-.346.009,1.691,1.691,0,0,0-1.47,1.736V49.987q0,.071.006.14v0h0v0h0v0h0a.028.028,0,0,0,0,0h0a.028.028,0,0,0,0,0,.005.005,0,0,0,0,0,.023.023,0,0,0,0,0,.005.005,0,0,0,0,0s0,0,0,0v0s0,0,0,0v0s0,0,0,0v.008s0,0,0,0v.09h0v.009h0v0h0v0h0v0h0v0h0v0h0v.01h0a1.69,1.69,0,0,0,1.654,1.355l9.714.035V67.278c0,.01,0,.021,0,.031A1.689,1.689,0,0,0,20.24,69H24.8a1.689,1.689,0,0,0,0-3.378ZM3.255,22.181A7.042,7.042,0,1,1,10.3,29.224,7.051,7.051,0,0,1,3.255,22.181Zm3.378,0A3.665,3.665,0,1,0,10.3,18.516,3.669,3.669,0,0,0,6.633,22.181ZM68.218,56.015V38.927a1.689,1.689,0,1,0-3.378,0V54.373H55.371a1.689,1.689,0,0,0-1.689,1.689V67.309a1.689,1.689,0,1,0,3.378,0V57.751h7.78v9.558a1.689,1.689,0,1,0,3.378,0V56.062Q68.219,56.038,68.218,56.015Zm-17.773-4.3,9.715-.035a1.681,1.681,0,0,0,.755-.178h0l0,0h0l0,0h0l0,0h0l0,0h0l0,0h0l0,0h0l0,0h.006l0,0h.022l0,0h0l0,0h0l0,0h0l0,0h0l0,0h0l0,0h0l0,0h0l0,0h0l0,0h0l0,0h0l0,0h0l0,0h0l0,0h0l0,0h0l0,0h0l0,0h0l0,0h0l.008-.005h0l.008-.005h0q.069-.044.132-.094h0l.008-.006h0l0,0h0l0,0h0l0,0h0l0,0h0l0,0h0l0,0h0l0,0h0l0,0h0l0,0h0l0,0h0l0,0h0l0,0h0l0,0h0l0,0h0l0,0h0l0,0h0l0,0h0l0,0h0l0,0h0l0,0h0l0,0h0l0,0h0l0,0h0l0,0h0l0,0h0l0,0,0,0,0,0,0,0,0,0,0,0,0,0,0,0h0l0,0h0l0,0h0l0,0h0l0,0h0l0,0h0l0,0h0l0,0h0l0,0h0l0,0h0l0,0h0l0,0h0l0,0h0l0,0h0l0,0h0l0,0h0l0,0h0l0,0h0l0,0h0l0,0h0l0,0a1.692,1.692,0,0,0,.224-.3h0l0-.009h0l0,0h0l0,0h0l0,0h0l0,0h0l0,0h0l0,0h0l0,0h0l0,0v0l0,0v-.018l0,0v0l0,0h0l0,0h0l0,0h0l0,0h0l0,0h0l0,0h0l0,0h0a1.68,1.68,0,0,0,.176-.757V33.65a1.69,1.69,0,0,0-2.271-1.626l-14.091,4.7a1.689,1.689,0,0,0,1.069,3.2l11.914-3.977V48.306l-9.719.035a1.689,1.689,0,0,0-1.683,1.689V65.622H44.191a1.689,1.689,0,1,0,0,3.378h4.564a1.689,1.689,0,0,0,1.689-1.689c0-.01,0-.021,0-.031V51.711ZM13.626,54.373H4.157V38.927a1.689,1.689,0,1,0-3.378,0v17.1c0,.01,0,.021,0,.031V67.309a1.689,1.689,0,1,0,3.378,0V57.751h7.78v9.558a1.689,1.689,0,1,0,3.378,0V56.062A1.689,1.689,0,0,0,13.626,54.373ZM38.257,65.619H36.188V45.47H46.571a1.689,1.689,0,1,0,0-3.378H22.427a1.689,1.689,0,1,0,0,3.378H32.81V65.619H30.741a1.689,1.689,0,1,0,0,3.378h7.516a1.689,1.689,0,1,0,0-3.378Z" transform="translate(1093.001 357)" fill="#fff"/></g></svg>