<svg xmlns="http://www.w3.org/2000/svg" xmlns:xlink="http://www.w3.org/1999/xlink" width="17" height="17" viewBox="0 0 17 17">
  <defs>
    <clipPath id="clip-path">
      <rect id="Rectangle_120" data-name="Rectangle 120" width="17" height="17" transform="translate(0.213)" fill="#fff"/>
    </clipPath>
  </defs>
  <g id="Mask_Group_16" data-name="Mask Group 16" transform="translate(-0.213)" clip-path="url(#clip-path)">
    <path id="github" d="M8.607,0A8.64,8.64,0,0,0,0,8.607a8.933,8.933,0,0,0,6.589,8.607V14.366a2.072,2.072,0,0,1-2.323-1.033c-.2-.33-.542-.688-.9-.661l-.089-1a2.074,2.074,0,0,1,1.86,1.151,1.115,1.115,0,0,0,.647.554,1.356,1.356,0,0,0,.847-.074,2.364,2.364,0,0,1,.593-1.213h0a4,4,0,0,1-3.49-2.462,3.949,3.949,0,0,1,.613-3.788.135.135,0,0,0,.034-.1,3.3,3.3,0,0,1,.1-2.2,3.485,3.485,0,0,1,1.91.719l.242.145c.1.06.069.026.17.018a7.3,7.3,0,0,1,1.806-.254,7.336,7.336,0,0,1,1.831.261l.078.008c-.007,0,.021,0,.068-.033,1.747-1.058,1.685-.712,2.153-.865a3.358,3.358,0,0,1,.1,2.2,4.13,4.13,0,0,1,.647,3.892,4,4,0,0,1-3.49,2.463h0a2.213,2.213,0,0,1,.631,1.574v3.554a8.933,8.933,0,0,0,6.589-8.607A8.64,8.64,0,0,0,8.607,0Zm0,0" transform="translate(0 0)" fill="#fff"/>
  </g>
</svg>
