<svg xmlns="http://www.w3.org/2000/svg" xmlns:xlink="http://www.w3.org/1999/xlink" width="18" height="17" viewBox="0 0 18 17">
  <defs>
    <clipPath id="clip-path">
      <rect id="Rectangle_122" data-name="Rectangle 122" width="18" height="17" transform="translate(-0.494)" fill="#fff"/>
    </clipPath>
  </defs>
  <g id="Mask_Group_18" data-name="Mask Group 18" transform="translate(0.494)" clip-path="url(#clip-path)">
    <g id="instagram" transform="translate(0 0)">
      <g id="Group_920" data-name="Group 920">
        <g id="Group_919" data-name="Group 919">
          <path id="Path_1107" data-name="Path 1107" d="M11.834,0H5.379A5.38,5.38,0,0,0,0,5.379v6.455a5.38,5.38,0,0,0,5.379,5.379h6.455a5.38,5.38,0,0,0,5.379-5.379V5.379A5.38,5.38,0,0,0,11.834,0ZM15.6,11.834A3.77,3.77,0,0,1,11.834,15.6H5.379a3.77,3.77,0,0,1-3.765-3.765V5.379A3.77,3.77,0,0,1,5.379,1.614h6.455A3.77,3.77,0,0,1,15.6,5.379Z" fill="#fff"/>
        </g>
      </g>
      <g id="Group_922" data-name="Group 922" transform="translate(4.303 4.303)">
        <g id="Group_921" data-name="Group 921">
          <path id="Path_1108" data-name="Path 1108" d="M9.8,5.5a4.3,4.3,0,1,0,4.3,4.3A4.3,4.3,0,0,0,9.8,5.5Zm0,6.993a2.69,2.69,0,1,1,2.69-2.69A2.693,2.693,0,0,1,9.8,12.493Z" transform="translate(-5.5 -5.5)" fill="#fff"/>
        </g>
      </g>
      <g id="Group_924" data-name="Group 924" transform="translate(12.659 3.407)">
        <g id="Group_923" data-name="Group 923">
          <circle id="Ellipse_14" data-name="Ellipse 14" cx="0.573" cy="0.573" r="0.573" fill="#fff"/>
        </g>
      </g>
    </g>
  </g>
</svg>
