<svg xmlns="http://www.w3.org/2000/svg" xmlns:xlink="http://www.w3.org/1999/xlink" width="426" height="426" viewBox="0 0 426 426"><defs><clipPath id="a"><rect width="426" height="426" transform="translate(5932.374 -75.626)" fill="#fff" stroke="#707070" stroke-width="1"/></clipPath></defs><g transform="translate(-5932.374 75.626)" clip-path="url(#a)"><g transform="translate(5932 -29.245)"><path d="M130.958,190.325q3.644,27.33,7.288,54.66l1.962,14.713c.248,1.857.014,5.519.957,7.181.333.586,1.209.865,1.853,1.21l6.65,3.571,56.253,30.2,53.987,28.984c1.862,1,4.874,3.609,6.885,2.921,1.911-.653,3.864-2.265,5.6-3.281l9.991-5.855,60.455-35.43,24.943-14.618,6.825-4c1.19-.7,1.344-.673,1.813-1.856,1.751-4.424,2.562-9.493,3.8-14.084l4.1-15.178c.609-2.258.323-2.549-.67-4.728L377.75,221.8q-6.542-14.359-13.083-28.718c-1.764-3.871-6.011-6.595-9.07-9.442l-47.483-44.208-3.618-3.369c-.2,6.749-1.532,14,.424,20.524l9.63,32.1L319.2,204.2c.288.961,2.043,4.771,1.574,5.616-.26.468-2.477.942-2.957,1.125l-6.188,2.354-17.24,6.559-15.506,5.9c-1.753.667-3.811,1.9-5.662,1.8a29.078,29.078,0,0,1-5.141-1.324l-8.452-2.177-16.6-4.276c-6.226-1.6-11.484-6.314-16.808-9.8L198.766,192c-2.1-1.372-2.1-2.155-2.938-4.659L190.2,170.451c-1-3.005-2.234-6.024-2.991-9.1-1.248-5.078-1.988-10.335-2.977-15.469l-.894-4.648-11.5,4.667c-.555.225-3.262.9-3.5,1.45-.153.349.653,1.933.768,2.274q4.767,14.119,9.534,28.237l3,8.882L174.47,175.48l-5.631,18.941-13.31-15.357-4.607,15.357L136.589,175.48q-.852,4.942-1.7,9.884c-.172.995-.137,3.848-.8,4.635-.545.648-2.115.327-3.128.327" transform="translate(-24.35 -4.975)" fill="#ff5678" fill-rule="evenodd"/><g transform="translate(0 0)"><path d="M409.113,224.5c-.269,8.577-.082,19.71-4.776,27.251-.758,1.217-3.324,5.008-3.611,1.673-.281-3.274.525-6.517-.273-9.829-.427-1.772-1.863-5.643-4.317-4.043-1.251.816-1.58,2.83-2.07,4.1-.724,1.881-1.535,3.733-2.3,5.6-2.662,6.517-5.42,14.295-11.337,18.607.775-5.62,2.885-11.62,1.466-17.3-.483-1.936-1.948-5.471-4.471-4.337-2.458,1.105-4.051,6.037-5.211,8.233-3.517,6.658-7.115,13.191-11.074,19.6a54.285,54.285,0,0,1-6.749,8.928c-1.629,1.725-3.661,4.64-6.229,4.9,0-4.916,1.618-9.665,3.094-14.295,1.588-4.978,3.037-10,4.6-14.985a130.315,130.315,0,0,0,3.363-13.055c.373-1.835.668-3.734,2.232-4.919,1.406-1.065,3.626-1.572,5.194-2.354a112.32,112.32,0,0,0,12.172-6.831c1.57-1.049,2.921-2.4,4.565-3.346a48.172,48.172,0,0,0,5.355-3.282c7.477-5.64,14.217-12.577,18.759-20.835.737,3.318,1.714,6.56,1.822,9.98.11,3.507-.093,7.035-.2,10.54m-61.536,39.422c-1.2-2.02-3.018-1.192-4.623-.219q-3.736,2.266-7.492,4.5c-5.1,3.036-10.1,6.23-15.074,9.453-10.133,6.559-20.62,11.928-31.3,17.48a322.471,322.471,0,0,0-29.917,18.2c-2.325,1.551-4.634,3.139-6.866,4.821-1.982,1.493-3.566,3.59-5.653,4.919-2.173,1.384-3.666.261-5.744-.76-2.6-1.277-5.306-2.347-7.963-3.5-10.719-4.647-21.469-9.471-31.9-14.746-10.364-5.242-20.184-11.283-30.115-17.282-4.73-2.857-9.378-5.9-14.043-8.857-4.965-3.152-10.1-5.513-15.312-8.193-2.3-1.186-4.345-2.8-6.712-3.874-2.488-1.133-5.116-1.946-7.344-3.58a17.423,17.423,0,0,0-2.983-2.127c-.937-.425-2-.5-2.927-.949-1.883-.919-2.422-2.785-2.786-4.726-2.345-12.458-3.592-25.262-4.951-37.859-.764-7.084-1.616-14.14-2.672-21.187-.476-3.177.481-5.638.984-8.729.587-3.609.819-7.295,1.212-10.929,1.855,3.437,3.46,7.044,5.82,10.18,1.74,2.311,4.712,5.589,7.916,5.512,4.98-.12,4.752-8.662,4.953-12.052,2.268,2.025,2.956,5.323,4.839,7.675,1.719,2.147,4.058,4.811,6.7,5.772,5.558,2.025,5.023-8.293,4.718-11.219-.154-1.468-.982-3.79.984-3.121,1.811.616,3.573,3.171,5.095,4.343,2.631,2.026,5.516,3.71,8.215,5.644,3.348,2.4,6.962,4.134,10.375,6.369,2.135,1.4,4.464,1.712,6.792,2.74,3.41,1.507,6.423,3.752,9.669,5.558a109.176,109.176,0,0,0,20.59,8.935c2.275.7,5.306,2.663,7.032.643,1.063-1.243,1.761-3.142,2.663-4.535,1.141-1.764,2.353-3.482,3.611-5.164a119.71,119.71,0,0,1,14.95-16.669,124.239,124.239,0,0,1,20.928-15.544c3.223-1.889,16.681-10.358,19.639-4.4a12.231,12.231,0,0,0-6.617,1.851c-.507.272-3.124,2.14-2.511.493-.76.142-1.427,1.133-2,1.574a31.815,31.815,0,0,1-3.655,2.272c-1.138.623-2.545.776-3.583,1.531-.379.276-.609.723-.97,1.022l-1.036.008-.465,1.721c-.586-1.877-1.421.564-2.4,1.357a10.983,10.983,0,0,1-2.212,1.275c-.518.23-.6-.3-1.1.1-.446.361-.731,1.156-1.211,1.608a19.43,19.43,0,0,1-2,1.457c-1.258.906-2.589,1.618-3.864,2.477-1.715,1.156-2.614,3.144-4.279,4.352-.789.572-2.014.639-2.441,1.006-1.07.92-.718,2.315-2.714,2.376a2.22,2.22,0,0,1,.328.947,2.621,2.621,0,0,1-1.269-.592c.083,1.991-1.875,2.7-3.049,3.928a14.269,14.269,0,0,0-2,2.55c-.079.142-.231,1.277-.264,1.293-.181.087-1.284-.882-1.18-.8-.308,1.84-2.088,3.579-2.868,5.282-.411.9-.828,2.34-1.637,2.971-.22.171-.9-.008-1.457.589a5.289,5.289,0,0,0-1.051,1.825c-.111.388.023,1.39-.137,1.622-.293.425-.748,0-1.207.312-.848.581-.869,1.488-2.11,1.607.855,2.077,6.017,2.718,7.893,3.309,5.306,1.67,10.872,3.338,15.832,5.9,1.283.661,2.5,1.207,2.724,2.731.317,2.12-.764,4.94-.97,7.082a152.182,152.182,0,0,0-.556,17.547c.111,5.5.289,11.056.545,16.551.238,5.1,1.265,10.089,1.819,15.148.152,1.389.051,7.651,2.438,7.335,1.993-.263.735-4.54.7-5.766-.083-2.714.488-5.484.464-8.222-.011-1.316.564-2.45.619-3.709s-.564-2.228-.378-3.518c.178-1.238,3.837-8.357.323-7.524.206-1.018.386-2.044.658-3.047a4.027,4.027,0,0,1,.907,1.183c.313-2.187.208-4.37.4-6.558a14.336,14.336,0,0,0,.352-3.077,3.219,3.219,0,0,0-.158-1.219,1.12,1.12,0,0,0-.8-.361,1.188,1.188,0,0,1,.087-1.235,1,1,0,0,1,.759-.681q1.081-.128.247-1.242a10.022,10.022,0,0,0,.118-3.855c-.176-1.229.471-3.609-.188-4.7-.77-1.279-1.153-.038-1.3-1.812a4.36,4.36,0,0,1,.1-1.532c.165-.407.662-.241.726-.385.432-.985.46-2.926-1.067-2.757q.09-1.056.179-2.112c1.1,1.27.718.2,1.343-.511a5.28,5.28,0,0,1,2.871-1.491c3.21-1,6.3-2.508,9.44-3.73,6.643-2.589,13.408-4.9,19.857-7.959,13.562-6.435,26.855-13.419,40.5-19.685-.975-1.809-.369-1.9.344-3.6.951.66.751.2,1.428.159q-.092-.85.528-.513a2.651,2.651,0,0,0,1.013.107c.845.145,1.535.61,2.3.786a2.773,2.773,0,0,0,.831.419,1.329,1.329,0,0,0,.694-.4c1.243.23,1.662,1.167,1.716,2.522.009.236-.713.478-.506.794.361.554,1.332.422,1.888.492q-.183.863-.365,1.725c2.439-1.126,1.8,2.4,2.543,3.555.206.323.665.065.9.439.311.488.218,1.18.483,1.666.6,1.1,1.2.966,1.8,2.226,3.127,6.578,7.288,12.706,10.289,19.425,1.429,3.2,2.718,6.451,4.21,9.62,1.373,2.917,2.158,5.4,1.179,8.583-2.27,7.39-4.7,14.916-7.672,22.054l-.446-.708M189.246,319.091l-.639,1.088c-.473-2.721.787-1.459.639-1.088M179.234,314c-.682-.2-.388-1.319-.365-1.8a16,16,0,0,1,1.214,1.677l-.849.118m-27.44-10.459,2.045-1.146c-.826,1.609-.826,1.609-2.045,1.146M108.625,161.77c-1.095,2.688,2.244,19.282-.865,19.823-.446-1.456-.5-5.467-2.347-5.945-2.29-.594-2.064,3.534-2.377,4.811-4.7-3.271-6.789-9.587-9.035-14.592A192.827,192.827,0,0,1,86.736,146.2c-1.839-5.684-3.36-11.468-5.219-17.142a106.647,106.647,0,0,1-3.212-10.81c-.17-.8-.842-2.822-.271-3.58.829-1.1,3.812.16,4.774.45,6.237,1.877,12.706,2.684,19.114,3.775,7.119,1.211,14.222,2.462,21.385,3.4q2.684.352,5.372.673c1.162.14,2.921,0,4.025.521,2.234,1.054,2.71,5.088,3.539,7.181,3.1,7.808,6.739,15.369,10,23.106,2.936,6.97,5.162,14.385,9.383,20.731-3.148-1.4-7.137-8.773-10.654-4.521-1.512,1.829-1.131,4.238-1.01,6.426.175,3.164.23,6.351.23,9.52-3.442-.894-5.755-4.8-7.562-7.57a36.832,36.832,0,0,1-5.116-11.677c-.474-1.877-1.729-1.923-2.844-3.046-.717-.722-1.077-1.694-2.1-.644-1.292,1.32-.433,4.974-.209,6.533.53,3.708,2.268,9.414.578,12.9-2.28,4.7-8.39-7.129-9.105-8.838-.364-.87-6.864-17.55-9.2-11.818m-4.268-80.58,1.154.177c-.31.274-.956,1.234-1.483.98l.329-1.157m20.389-4.375-.362.4c-.552-.69-.356-1.7-.356-2.494a1.859,1.859,0,0,1,.719,2.1m1.648,7.656v2.255c-1.529-.662-1.559-1,0-2.255m1.856,2.868c-1.071-.294-1.2-.531-1.048-2.177.444.922.736,1.53,1.048,2.177m6.164,16.7c-.449,1.155-3.072-1.6-2.976-2.421.092-.786.495-1.02,1.05-.515.184.167-.089.772.028.982a9.145,9.145,0,0,0,1.9,1.954m.029,6.958c-.657,1.641-1.829-.943-.112-1.014a2.314,2.314,0,0,1,.112,1.014m-1.275-2.588q-.382-.509-.742-1.034c.885.179,1.587,1.468,2.52.608-.111,1.312-1.042,1.348-1.778.426m-57.2-21.318c-1.423-1.553,7.854-2.642,8.973-2.909a128.77,128.77,0,0,0,23.382-8.177c3.622-1.64,7.226-3.3,10.763-5.119,1.528-.785,3.621-1.45,4.9-2.629.911-.841.874-1.477,2.058-1.979,1-.424,1.055-.024,1.515-.791a5.55,5.55,0,0,0,.427-2.649c-.441-1.363-1.092-.258-2.007-1.2-.659-.677-.5-2.6-.319-3.4a2.753,2.753,0,0,1,.4,1.237c.993-.489.592-2.17,1.678-2.445,1.144-.29,1.026.6,1.324,1.513.865-1.27.171-2.352-.3-3.592,2.379-.445,4.935-.877,7.293-.085,1.705.572,3.165,1.978,4.965,2.25,1.763.266,2.1-.57,3.4-1.419,1.055-.689,1.961.122,2.5-.4-.335,1.756-3.213,1.516-2.859,3.71.16.987,1.37,1.875,1.921,2.643a16.771,16.771,0,0,1,1.714,3.118c1.832,4.227,2.615,9.133,3.384,13.654,1.9,11.159,2.137,22.537,3.922,33.732.85,5.332,1.7,10.667,2.144,16.052.111,1.346.933,4.4.26,5.7-.569,1.093-1.834,1.1-2.945,1.361a52.861,52.861,0,0,0-6.3,2c-1.869.7-2.412,1.124-3.612-.634a34.346,34.346,0,0,1-2.565-5.6c-1.058-2.377-2.335-4.67-3.562-6.963,2.41,0,3.8-1.3,3.732-3.749-.07-2.712-2.3-3.356-3.219-5.584-.894,1.162-.97,1.194-1.607.092a28.782,28.782,0,0,1-1.667-5l.957,1.021c.8-1.107-.456-2.851-.877-3.894-.65-1.609-.765-3.349-1.382-4.954-.336-.876-1.115-1.565-1.306-2.479-.127-.612.383-1.194.262-1.815-.211-1.081-1.434-2.241-1.814-3.341-.585-1.691-1.22-3.181-1.946-4.828-.982-2.23-.754-4.571-.934-6.945-.186-2.461-.975-4.816-1.253-7.267-.192-1.693.41-3.825-.871-5.181-.15,2.254.5,2.219-1.622,2.625-2.411.461-4.16,2.258-6.439,2.794-.47.111-.812-1.942-.629.858-1.093-.807-3.427.2-2.556.674-.66.706-1.96.218-2.177,1.275-2.243-2.18-5.839,5.241-8.51,1.37a5.347,5.347,0,0,1-4.891,4.522,15.484,15.484,0,0,0-3.211.986c-.231.077-.316.41-.589.5-.418.136-1.031-.275-1.332-.2-.613.163-1.294.969-2.15,1.129a10.363,10.363,0,0,1-3.033-.014,5.482,5.482,0,0,0-2.97.117c-1.081.364-2.239,1.383-3.242.273-1.576,2.727-5.334,2.06-7.19.033m72.868-32.907c-1.193-.143-.364-1.169.188-1.477,1.5-.836,1.1,1.631-.188,1.477M82.786,63.973c7-10.1,18.976-17.04,29.512-22.879,5.755-3.189,11.629-6.281,17.672-8.891,3-1.3,6.044-2.544,9.112-3.684,1.638-.609,3.3-1.162,4.955-1.713a5.983,5.983,0,0,1,1.773-.573c-.083-.008,1.193.339.942.448.822-.358,1.213-1.291,2.18-1.664a11.713,11.713,0,0,1,3.634-.631c1.029-.034,1.921.392,2.9.425a16.881,16.881,0,0,0,1.823-.33c.323-.023.294.461.489.489.084.012.944-.311.953-.305.313.2.591.986.874,1.293a9.047,9.047,0,0,0,3.086,1.955c1.318.563,4.532,1.129,3.042,3.213,1.058-.152,1.551.8.226,1.046-.718.132-1.024-.526-1.557-.974-1.231-1.034-4.22-2.506-5.993-2.44-1,.037-1.769.794-2.689,1.069s-1.354-.149-2.148-.082c-.929.077-1.527.863-2.412,1-.829.131-1.291-.434-2.031-.395-.88.047-1.733.811-2.574,1.068a19.075,19.075,0,0,0-3.624,1.364c-2.53,1.313-5.355,1.812-7.962,2.942-2.085.9-4.448,1.379-6.377,2.378-2.145,1.11-4.3,2.217-6.4,3.423a12.364,12.364,0,0,1-6.275.95c-.024,3.081-1.54.921-3.068,2.27a3.474,3.474,0,0,0,1.23.7c-1.656.661-3.187,1.485-4.791,2.245-1.658.786-3.427.959-4.517,2.446-1,1.371-.663.663-2.161,1.2a5.7,5.7,0,0,0-1.779,1.511c-.851.872-1.039,2.193-1.525.4-.142.219-.7,1.61-.808,1.646-.609-.646-.7.12-1.037.394q.269.893-.768,1.17-.524.39-1.062.764c-1.3.9-2.951,1.673-3.865,3.015a1.232,1.232,0,0,1-.513-1.785c-1.288,1.188-2.826,2.408-3.174,4.236a1.429,1.429,0,0,0-.559-.335c-.523.353.158,1.406.49,1.643,1.447-.562-.361-.358.611-.268.277.026.562.233.867.237a15.567,15.567,0,0,0,2.627-.168A43.946,43.946,0,0,0,97.9,62.378c2.066-.614,4.133-1.228,6.153-1.981,1.664-.62,3.3-1.312,4.935-2,.653-.275,1.306-.554,1.96-.828,1.242-.519,1.9-1.372,1.724.089.99-.164,1.847-1.563,2.607-2.134a12.056,12.056,0,0,1,3.537-1.81,4.439,4.439,0,0,1,1.42-.378c.26,0,.416.733.579.693,1.136-.275.618-.905,1.129-1.812,1.118-1.983,4.128-3.079,5.976-4.206,1.173-.715,2.006-1.677,3.089-2.469a4.077,4.077,0,0,1,1.406-.691c.406-.12.905.813,1.169-.125-.946-.386-1.725-.863-2.635-1.145-.643-.2.128-.885-.891-.477-.41.164-.55.956-.7,1.288-1.139-1.017-4.342.037-5.693.463-.093.029-.51-.191-.707-.178-.78.052-1.323,1.1-1.837,1.555a14.586,14.586,0,0,1-4.527,2.392c.447-2.444,3.735-3.446,5.655-4.382,2.805-1.369,5.417-3.116,8.489-3.852,2.046-.491,4.756-.886,5.64,1.493.529,1.426.6,4.968-1.194,5.625-.189-.665.416-1.234.6-1.812-1.781.68-2.074,2.819-3.427,3.936a5.016,5.016,0,0,0-1.4,1.435,4.772,4.772,0,0,1-1.4,1.8c-1.4-2.97-1.162,1.1-1.871,1.608.285-.205-1.155.394-.983.331-.067.025-.694-.992-1.1-.971-.741.039-.6.854-.955,1.265a5.346,5.346,0,0,1-4.719,2.082c-.046.989.26,2.169-1.09,2.26l-.177-2.191a19.753,19.753,0,0,0-2.3,2.31c-.68.979-.608,1.582-1.736,2.235-1.179.682-3.689,2.027-5.092,2.143a.889.889,0,0,0-.183-1.334c-.706.728-1.748.8-2.5,1.457,2.609,1.09-2,1.034-2.589,1.157-.392.083-.734.44-1.13.52-.527.107-.595-.447-1.048-.271-.663.257-.394.982-1.088,1.347-.5.262-1.344.259-1.907.507-1.341.594-4.2,1.909-5.1.314-.459,2.737-5.149,1.071-6.885.887-2.377-.252-6.518-1.368-4.313-4.551m9.985-28a.67.67,0,0,1,1.01.063c-.469-2.477,3.158-3.679,4.74-4.732,2.1-1.4,4.569-4.106,7.316-3.892l-1.4,1.041,2,.26q-.564.829-1.13,1.658c-.616-3.4-3.832.892-4.763,1.517a20.827,20.827,0,0,0-2.7,1.865c-.825.76-1.57,2.129-2.934,1.445-.124,1.94-1.684,1.414-2.763,2.488a3.223,3.223,0,0,1,.63-1.714m14.249-9.685c3.32-1.243,6.21-3.542,9.338-5.185,2.988-1.569,6.036-2.978,9.074-4.441,1.541-.743,4.364-2.663,6.125-1.685,2.377,1.322-.9,1.748-1.745,2.206-.314-2.035-1.415-.191-.758.941-1.814-.783-5.769,2.281-7.5,3.126-.392.191-.216.3-.661.527-.11.055-1.245.314-1.57.423-1.629.545-2.7.112-3.4,2.078l-.441-1.389c-1.02,2.29-4.119,3.292-6.1,4.646-.511.349-1.97,1.7-2.618,1.423-.9-.39-.54-2.371.261-2.671m59.887,6.9c1.4.093.05.746.435,1.178-.044-.049.844.708.728.5.157.28.533.269.725.837.663,1.954-2.232,3.973-3.208,5.082-1.9,2.157-3,4.888-4.973,6.975a6.419,6.419,0,0,1-3.02,1.946c-.867.246-1.784-.017-2.58.816-.641.671-.5,1.053-1.205,1.41-1.249.629-1.8.077-3.015,1.437-1.046-2.843,1.959-2.839,3.527-4.428,2.164-2.194,4.536-4.407,6.566-6.753a17.069,17.069,0,0,0,3.381-6.446c.27-.8.564-2.511,1.307-3.012,1.158-.78.463.4,1.331.457M173.8,107.05a45.409,45.409,0,0,1,13.179-10.28c1.767-.886,4.282-2.048,6.113-.684,1.8,1.336,1.409,4,.685,5.815-.694-.272-.039-2.821-.4-3.45-.785-1.374-2.48-.644-3.633-.184a11.356,11.356,0,0,0-3.625,2.115c-.434.4-1.265.753-1.543,1.025q-.627-.26-.738.379a1.063,1.063,0,0,1-.031.771c-.061.08-.6-.249-.681-.183-.352.3-.682.656-1.028.936a10.281,10.281,0,0,0-1.928,1.613c-1.237,1.516-2.873,2.4-4.115,3.848a9.4,9.4,0,0,0-.68,1.237c-.628.733-1.559,1.313-2.268,2.089a33.767,33.767,0,0,1-3.946,3.39,7.07,7.07,0,0,0-1.724,1.715,10.613,10.613,0,0,0-.295,2.041c-1.386,1.519-1.116-1.535-1.012-1.918,1.126-4.12,4.932-7.214,7.668-10.275m-7.567,27.862c.173.647.314,1.182.489,1.839-1.1-.9-1.1-.9-.489-1.839m-1.187,2.119q-.606.61-1.219,1.213c-.9-.951,1.384-1.376,1.219-1.213m-.571-16.362a16.534,16.534,0,0,1-3.086,5.221c.119-.152-.923.153-1.042.222-.385.223.537,1.67-.8,1.023-.474.268.459,1.361-.185,1.85-1.861-4.241,3.221-7.916,5.189-11.064.962.884.164,1.773-.077,2.748M152.385,143.6c1.357.349,2.063.13,2.979-1.2.551-.8.752-2.219,2.012-1.021l.222-1.54c1.8.738,1.647,3.4,2.433,4.881.382-1.671,1.288-6.341,4.061-5.592,3.113.841-2.068,6.195-2.549,7.506-1.058-1.642-.642-.115-1.449.117-.693.2-1.775-.311-2.616-.265-2.561.139-4.81,1.291-7.149,2.266l-1.776-4.79c1.377.106,4.224-3.559,4.629-.9-1.021-.178-1.309-.133-1.807.8a2.4,2.4,0,0,1,1.011-.261m5.748,20.84c0-.013,2.649.151,2.885.064,1.815-.663,1.144-2.722,1.515-4.177.748.688.352,1.944.583,2.834.271,1.046,1.055,1.938,1.128,3.057.165,2.528-1.909,1.967-3.482,2.785-1.344.7-1.493,1.579-2.628-.306a5.908,5.908,0,0,1-.9-2.49c.067-.646,1.09-1.183.9-1.768m2.138,10.941-.734-.822c2.186.669.9-.337,1.4-1.712,1.678,1.117,3.046,2.265,4.373.029l2.293,9.25c-1.54.362-3.528-2.017-4.584-2.835-.61-.473-4-2.292-1.963-2.823l-.785-1.087m14.97-29.047a28.525,28.525,0,0,1-3.942,2.84c-1.216.835-.8,1.794-1.851,2.726a21.307,21.307,0,0,1-3.205,1.723,4.126,4.126,0,0,1-4.5.06c.431,3.471-1.946,3.743-4.906,4.431-1.411.328-2.247.829-3.264-.463-.7-.885-.97-2.486-.1-3.3,1.377-1.286,5.044-.842,6.81-1.651,1.34-.613,2.705-4.069,4.359-2.811-.853-1.359.14-1.725.882-2.694.812-1.062,1.312-2.3,2.152-3.358a21.729,21.729,0,0,1,6.318-5.225c2-1.062,3.044-.31,3.343,1.921a6.312,6.312,0,0,1-.483,3.788c-.2.317-.861.321-1.061.619-.349.521-.029.9-.544,1.391m23.422-26.923c1.593,1.233,1.437,3.823,1.688,5.587a46.958,46.958,0,0,1,.059,7.425c-.04,2.653-1.342,4.381-1.954,6.868a18.484,18.484,0,0,1-3.087,6.553c1.657.261-.809,5.208-1.215,5.848-.441.7-4,3.9-2.474,3.9-.842,1.11-1.758,2.249-2.6,3.328-.33.425-.909.592-1.169.892a8.1,8.1,0,0,0-.941,1.865c-.576,1.08-.765.791-1.522,1.575-.523.541-.866,1.255-1.379,1.774-1.654,1.67-1.865.3-2.79-.984a1.04,1.04,0,0,1-.756.648c-.29-1.456,1.7-2.927,2.543-3.811a57.777,57.777,0,0,0,3.843-4.632,61.651,61.651,0,0,0,6.781-10.872,52.5,52.5,0,0,0,4.343-13.055c.62-3.421,1.21-9.29-3.361-10.16-3.325-.633-6.99,1.387-9.731,3.023-1.67,1-3.35,1.987-4.941,3.107-1.727,1.215-3.22,2.935-5.095,3.91,1.025-.533-2.358,1.072-1.84.62-.243.211-.033.855-.194,1.146-.209.378-.935.752-1.26,1-.86.646-2.234,1.307-2.625,2.374-5.455-3.892,5.393-10.8,8.174-12.56,5.516-3.49,15.114-10.308,21.5-5.364m14.714-37.847c-.052-2.8,2.23-6.628,3.771-8.913.754-1.119,1.959-1.074,2.4-2.393.255-.76-.079-1.556,0-2.319a6.683,6.683,0,0,1,1.066-2.745,147.7,147.7,0,0,1,16.37-22.1c2.977-3.447,5.8-7.027,9.009-10.265,1.341-1.352,4.946-6.215,7.008-5.728,1.092.257,1.727,1.924,2.22,2.774a37.434,37.434,0,0,0,2.7,4.016,39.7,39.7,0,0,0,9.191,8.83c2.224,1.512,4.471,2.982,6.645,4.566,1.79,1.3,4.5,2.795,5.775,4.625s-.6,3.382-1.625,4.9c-1.6,2.365-3.062,4.815-4.664,7.176-.636-.458-.472-1.387-.908-1.973a4.445,4.445,0,0,0-1.469-1.052c-1.024-.614-2.03-1.364-2.955-.336-1.619,1.8.607,6.054,3.007,5.588.283,1.776-4.509,4.7-5.71,5.68-3.686,3-7.488,5.606-12.357,5.877a15.288,15.288,0,0,1-5.893-.7,6.867,6.867,0,0,1-2.576-1.438c-.823-.824-1.033-2.051-1.832-2.867-.693-.708-1.644-.817-2.336-1.528a6.81,6.81,0,0,1-1.317-2.755c-.55-1.8-.654-3.7-1.182-5.5-.318-1.085-.579-2.535-1.616-1.493-1.506,1.514-.749,6.276-.364,8.09a22.075,22.075,0,0,0,3.2,6.9,16.251,16.251,0,0,1,2.273,7.451,42.537,42.537,0,0,0,4.33,14.961c.983,1.982,2.161,3.846,3.223,5.783.5.9,1.607,3.986,2.956,3.97,2.155-.027-.915-6.311-1.341-7.366-2.361-5.843-4.616-11.985-5.122-18.313,3.384.872,7.073,1.7,10.578,1.147-2.262,5.059.1,10.1-.188,15.3-.144,2.611-.249,5.02-.2,7.624.048,2.283-.983,4.565-1.875,6.63-1.77,4.1-4,9.158-7.286,12.3-2.748,2.626-6.425,2.831-10.016,2.226-8.169-1.376-13.536-7.656-16.965-14.788a63.769,63.769,0,0,1-4.932-14.448c-1.21-5.758-.891-11.556-1-17.4m10.609-38.809c-7.623-5.516,3.454-11.78,9.093-10.927,1.323.2,3.756.746,3.633,2.473-.1,1.411-2.455,2.983-3.358,3.854-2.576,2.485-5.2,7.616-9.367,4.6m55.457,122.561c-.262-.234-2.4.341-1.55-.921.7-1.049,2.65.266,3.357.535-.583.4-1.09,1.027-1.807.386M247.7,232.027c-.655.081-1.34-1.686,1.022-.366l-1.022.366m-.068,28.8c.081.792.324,1.314-.239,1.89a1.2,1.2,0,0,1,.239-1.89m.959,11.9q-.1.647-.208,1.293l-1.636-.828,1.844-.464m.668-10.034c.813.3.435-.668,1.025-.8a3.338,3.338,0,0,1-.63,2.714c-.055-.2-.353-1.894-.395-1.909m20.775-71.808c-1.141-.145-1.313,1.06-2.163,1.527-.549.3-2.22.075-2.531.653l1.235.357-2.827,1.524c2.267,0,4.629-1.083,6.88-.765a3.127,3.127,0,0,1,2.246,1.23,3.993,3.993,0,0,1,.739,1.8c.063.622-.422,1.052-.336,1.349,1.015.028.895,1.692.667,2.37-.494,1.471-2.456,3.774-4.215,2.841.736,1.044.548,1.64-.54,2.245.1-.345.171-.949-.384-.889-.143.578-.088,1.5-.561,1.932-.529.488-1-.082-1.507.235-.6.377-.419.968-.891,1.377-.624.54-.713.156-1.458.261-1.129.16-.409-.542-1.313.373-.313.315-.26,1.136-.767,1.6-.974.886-3.572,1.81-4.5.673-2.243,3.554-8.965,4.407-12.093,1.6-4.99-4.475,4.314-13.575,7.386-16.459a87.16,87.16,0,0,1,9.973-7.808c1.969-1.371,3.989-2.615,6.052-3.837,1.273-.754,2.871-2.131,4.435-2,1.4.119,2.6,1.207,4.078,1.423,1.068.156,3.143.413,1.8,1.861a11.752,11.752,0,0,1-3.947,1.936c-.5.1-1.017-.089-1.507.012-.83.17-1.4.871-2.3.782.286,1.341-.236,1.972-1.639,1.794M284.8,141.112c0,1.049-1.914.787-2.314.431-.658-.586-.681-2.339-.926-3.136,1.113.28,3.238,1.3,3.239,2.7m-15.423-34.6A104.153,104.153,0,0,1,282.1,97.5c1.6-.956,3.861-2.884,5.849-2.643.834.1,2.558,1.059,1.93,2.115-.117.2-1.045.277-1.332.42-.325.162-.58.61-.882.831-2.089,1.532-4.6,2.474-6.693,4.043a61.571,61.571,0,0,1-5.182,3.836c-1.778,1.06-3.637,1.731-5.325,2.906.033-.024-2.2.778-1.759.924-1.957-.655.11-2.963.673-3.426m26.813-1.231a60.144,60.144,0,0,1,7.228-2.747,10.672,10.672,0,0,1,3.821-.416.567.567,0,0,1,.877-.255,2.852,2.852,0,0,0,1.128,1.009c.713.548,3.336,1.264,2.812,2.474-.347.8-2.977.867-3.7,1.046-2.176.542-4.205,1.761-6.447,2.061a3.8,3.8,0,0,1-.905-.225c-.875.191-1.6,1.1-2.354,1.534-1.618.936-3.942,1.093-5.1,2.71,3.762,2.55,7.025.021,10.332-1.9a34.528,34.528,0,0,1,6.272-2.724c1.131-.386,2.273-.787,3.42-1.126a7.6,7.6,0,0,1,1.463-.374.825.825,0,0,1,1,.509c1.386-.046,1.505-.916,2.339.706,1.176,2.287-.623,2.171-2.315,2.452-2.346.389-4.731,1.265-7.042,1.846-.533.134-5.207,1.218-5.213,1.256-.212,1.475,13.2.109,14.355-.112,2.032-.391,4.212-1.5,6.316-1.234,1.616.205,5.3,2.575,2.719,4.15-.507-2.429-2.249-.423-3.158.4-1.211,1.091-2.947.986-4.608,1.413-2.272.584-8.088,2.774-9.7-.018.51,2.447-8.76,1.2-10.035,1.123-1.242-.079-2.846.185-4.047-.169-.783-.231-1.219-.74-1.956-.855a1.375,1.375,0,0,1-.649.4,4.122,4.122,0,0,1-1.012-.721c-2.483-1.141-6.324-1.772-4.945-5.407,1.3-3.428,5.951-5.538,9.107-6.8m23.271,2.119q.093-.32.185-.641c.008.655,1.569.934,1.389,1.782-.4,1.878-2.2-.944-2.356-1.252l.782.11M329,110.516c.181.769,2.257,2.408,1.743,2.785-.819-1.113-3.081-.608-1.743-2.785m-35.024,70.2c.76-1.508,3.058,1.06,2.816-1.514,1.25.113.469,1.064,1.967.646.561-.157.94-.779,1.624-.922.182-.038.97.024,1.242.016.9-.028,4.43-.128,2-1.309,1.36-.9,1.527-.443,2.754.381-.315-1.7,1.491-.736,2.331-.524-.6-.971.888-2,1.371-2.66-.173,1.011-.082,2.143,1.381,1.5.365-.161.283-.875.572-.992.529-.213.825.175,1.015.153a2.748,2.748,0,0,0,.973-.064c.51-.192.264-.877.911-.979.421-.066.729.553,1.243.559.264,0,.7-.266.906-.251.035,0,.287-.6.6-.618.452-.022.635,1.188.8,1.423a7.728,7.728,0,0,0,3.054,2.45c-2.193,2.011-6.617,1.8-9.375,2.476a19.278,19.278,0,0,0-4.135,1.58,3.38,3.38,0,0,0-.851.789l-.581-.385a17.182,17.182,0,0,0-2.3-.182c-2.6.439-4.643,2.39-7.29,2.825-1.189.2-2.166.468-2.941-.563a4.415,4.415,0,0,1-.083-3.829M290.4,168.7c.59.5-.12,2.124,1.023,1.947.811-.125.649-1.383,1.286-1.65.836-.35,1.341.48,2.128.4,1.466-.144,1.382-1.424.143-1.986,1.287-.34,1.7,1.183,2.84,1.169,1.5-.018,1.14-1.785,2.414-2.077.552-.127.368.683.725.784a2.46,2.46,0,0,0,1.85-.448c.567-.272.971-.8,1.591-.975.282-.081,1,.068,1.206-.083.417-.3.791-1.489,1.2-1.645a8.8,8.8,0,0,0,1.455.77q-.177.75-.822.179c0,1.129,3.137,1.48,2.494.085,1.7.7.433,1.064.264,2.044-.068.394-.3.383-.229.8.031.192.92.027.91.288-.075,1.685-5.445,2.2-6.462,2.351a39.189,39.189,0,0,0-6.129,1.463c-1.512.475-4.117,1.834-5.726,1.749-2.313-.121-2.615-3.14-2.161-5.167m-5.169-17.191c-.564-1.874,1.245-5.745,3.6-5.261.579.119.722.6,1.172.812.628.3,1.648.141,2.193.449,1.22.691.605,2.45,1.827,3.086-1.93.468-7.9,3.894-8.794.915m2.233,7.281c.831-.447,2.179-.5,2.746-1.364.283.2.816,1.383,1.323,1.2.237-.084.481-.728.464-.727.451-.013.541-.624,1.23-.555.633.063,1.341.824,1.9,1.108-.1-1.886.387-2.066,1.916-3.076.335-.221.615-1.051.924-1.387-.3,1.979.45,1.99,2.03,2.287a5.045,5.045,0,0,1,4.009,3.35c-1.688-.329-3.866.067-4.531,1.882-1.347-2.462-6.244.935-7.829,1.631-1.176.517-2.544,1.211-3.53.007-.694-.848-.3-1.867-.282-2.62,0-.237.248-.25.226-.6-.029-.449-.614-.629-.6-1.134m18.024,38.711c-.446.169-2.741.264-2.756-.5-.012-.672,4.05.005,2.756.5m-3.728-2.459c-1.736,1.07-3.679-2.7-4.317-3.788,1.821.233,2.711-1.291,3.784-2.448,1.021,2.237,2.571,1.055,4.2.308,1.923-.881,4.03-.888,6-1.595.615-.221,1.181-.549,1.781-.8q.725-.271,1.445-.556a1.109,1.109,0,0,0,.362-1.134q-.242-.565.33-.713a5.738,5.738,0,0,0,1.389.235c.759-.151,1.85-.867.934-1.639.982-.892,1.965-.005,2.911.385l-.673-1.921c.469.2,1.861,2.144,2,2.134.9-.068.806-1.275,1.323-1.762.3.368.384,3.112,1.557,2.188.5-.4-.578-1.742-.845-2.048a4.722,4.722,0,0,1,2.877,3.149,2.5,2.5,0,0,1-1.768-.385c-.346,1.732,2.861,1.03,3.38,1.936,1.017,1.772-5.6,3-6.458,3.167-1.724.329-3.759.451-5.339,1.215A7.606,7.606,0,0,1,313,192.05a33.774,33.774,0,0,0-5.943,1.34c-1.7.449-3.789.729-5.292,1.656m36.909-63.421c1.595-.574,6.966-3.552,8.333-2.227a14,14,0,0,0,.974,2.048c.1,1.215.068,1.7-1.428,2.286-1.071.417-2-.469-2.967-.117-1.058.386-.318,1.07-.863,1.548a7.354,7.354,0,0,1-2.49.979c-1.818.562-3.651,1.031-5.461,1.636-3.682,1.231-7.581,2.377-11.365,3.248-2.828.651-7.628,2.268-10.233.358-.254,1.086-.876.937-1.739,1.1a23.92,23.92,0,0,1-2.5.477c-1,.029-3.787-.233-3.4-1.639-.105.387,2.166-.938,1.773-1.02.965.2.652-.283,1.443-.553,1.033-.353,2.112-.334,3.166-.707,2.657-.942,4.886-2.164,7.691-2.755,6.407-1.348,12.893-2.432,19.074-4.656M81.848,276.8c-.519.014-.923-1.461.656-.408l-.656.408M69.372,274.89q-1.059.271-.844-1.181,1.477-.584.844,1.181m-9.631-1.975c-.181-.863.459-1.058,1.039-1.445-.058,1.144-.058,1.144-1.039,1.445m-24.233-7.1c-.976-.215-2.277-1.169-2.5.434-.163-.371-1-2.117-.639-2.521.187-.211.894.766.819.67.854-1.728,2.327.357,3.15.974l-.83.443M289.322,74.82q.505-1.069,1.191-.678c-.718,1.667-3.148,2.57-1.191.678M306.21,59.174c.6,1.129-.3,1.606-.95,2.544.378-1.012.64-1.713.95-2.544m73.4,110.186c2.172,0,6.8-1.147,8.107,1.336.867-1.687,1.852,1.476,2.6,1.984.084.057.626-.357.878-.2a3.7,3.7,0,0,1,.925,1.228,16.364,16.364,0,0,1,1.3,3.691c-3.793,0-7.682-.883-11.471-1.2a53.216,53.216,0,0,0-7.417-.083,18.581,18.581,0,0,0-1.9-.044c-.43.095-1.21.971-1.684.83.737,1.383,10.171,4.73,10.89,3.2-.853-.516-2.747-.912-2.745-2.159,0-1.4,1.777-1.394,2.718-1.353,2.058.09,5.5.775,6.348,2.915a7.583,7.583,0,0,1,.075,4.113c-.257.572-.691,1.259-1.379,1.376-.282.048-.689-.328-.732-.318-1.412.3-4.025,1.433-5.565-.165-1.11,1.437-6.459-.133-8.1-.675-2.864-.948-6.807-2.25-8.546-4.922-2.12-3.257,2.19-6.009,4.666-7.333,3.383-1.809,7.249-2.207,11.026-2.209m14.452,7.53,2,.564c-.178,1.167-2.8.244-2-.564m20.123,42.426c.2-4.676-1.147-8.795-1.928-13.317-.193-1.121,0-3.081-.848-4-.813-.882-2.629-.165-2.7-1.723-.8.938-.72,1.134-1.708.055a2.219,2.219,0,0,1,.078,1.412c-.613-.351-2.833-1.517-2.647.077-1.826-.4-1.3-1.546-2.339-2.418-.148-.124-.742.316-.974.128a6.257,6.257,0,0,1-.979-1.085,9.834,9.834,0,0,1-1.609,1.364,2.454,2.454,0,0,0-1.686-1.373c.7,1.46,2.423,3.351.057,4.182-1.412.5-3.726-.112-5.222,0-5.544.43-11.616-.779-16.977-2.1a63.645,63.645,0,0,1-16.027-6.071,18.247,18.247,0,0,1-2.63-2.044,9,9,0,0,0-2.588-1.294,16.63,16.63,0,0,1-5.115-3.637c-3.127-3.184-6.033-7.347-5.162-12.008.868-4.646,4.061-8.276,7.479-11.335a61.589,61.589,0,0,1,13.427-9.062c2.162-1.087,7.693-5.171,9.829-2.781a2.21,2.21,0,0,1-1.268,3.814c-.46.084-.941-.225-1.406-.013-.671.305-.435.665-.712.92a8.644,8.644,0,0,1-1.71,1.514,75.538,75.538,0,0,0-7.327,4.024c-1.1.75-2.168,1.072-3.142,1.727s-1.189,1.728-2.491,1.063c.464,1.894-2.321,3.922-3.412,5.083-1.691,1.8-3.718,4.09-2.929,6.749,1.544,5.2,8.522,9.157,12.988,11.444a59.589,59.589,0,0,0,17.923,6.067c3.085.467,6.273.756,9.381,1.052,2.42.231,6.133-.614,7.874,1.565.054-2.541,7.99-2.317,9.68-2.642-3.387-11.577-10.037-21.87-17.147-31.487a166.088,166.088,0,0,0-10.893-13.9c-4.354-4.738-9.329-8.972-14.056-13.331a210.471,210.471,0,0,0-30.425-22.9c-10.645-6.707-21.669-13.307-33.331-18.089-13.319-5.461-27.342-9.053-41.38-12.112,1.9-2.426,5-3.61,7.44-5.385.854-.621,2.008-2.113,3.117-2.317,1.2-.221,2.146,1.071,3,1.72,2.454,1.861,4.151,1.071,6.961.959,1.682-.067,5.664.869,6.373-1.405.943,1.255-.424,2.262-1.124,3.182.509.711.92-.027,1.423-.138l.465-.386q.375-.542.675-.007.45.677.906-.3l.25-.157a10.288,10.288,0,0,0,1.052-.741,49.235,49.235,0,0,1,7.649-4.724c2.368-1.128,1.094-3.287,2.655-4.811.353-.345.948-.172,1.325-.464s.425-.613.7-.92c.649-.74-.123-1.6,1.531-.693l-.6-3.359c3.244,3.147,3.231-5.91,3.675-7.25-.058.177.291-1.194.291-1.183.1-2.718.466-4.688-2.717-4.845,1.205-.758,1.574.722,2.13-.81.278-.768-.591-2.088.8-1.593a10.634,10.634,0,0,0-.36-4.539,16.138,16.138,0,0,1-.137-4.33c.019-1.841-.843-3.692-1.119-5.505-.216-1.42.007-3.66-1.829-3.138-.258-.4.649-1.646.612-2.261-.057-.954-1.093-1.924-1.386-2.84a1.529,1.529,0,0,1-1.627.393c.551-1.245.034-1.663-.494-2.737-.3-.615-.12-1.294-.767-1.734-.371-.253-1,.173-1.295-.123-.623-.635-.393-1.477-.822-2.313a11.469,11.469,0,0,0-2.614-2.637A38.557,38.557,0,0,0,280,5.9c-6.389-1.745-13.838-2.37-20.206-.357-2.545.8-4.8.722-7.1,2.224-.743.487-.823.357-1.2,1.169-.087.189.7.694.22,1-.526.336-1.107-.348-1.375-.915a27.394,27.394,0,0,0-8.307,9.264c-1.876,3.644-2.048,7.924-2.764,11.884-3.3-3.774-7.771-5.583-12.629-3.769a12.8,12.8,0,0,0-8.343,9.557,12.684,12.684,0,0,0,1.293,8,8.05,8.05,0,0,0,2.183,2.975c.784.569,2.126.489,2.5,1.516.566,1.573-2.7,4.971-3.55,6.348a50.986,50.986,0,0,0-4.045,7.787c-3.891-5.5-7.616-11.5-12.04-16.568A120.419,120.419,0,0,0,190.6,32.9a248.18,248.18,0,0,0-32-22.96c-10.554-6.225-23.3-9.681-35.6-8.459-12.018,1.194-21.219,8.8-28.962,17.562C79.144,35.9,70.025,59.924,69.135,82.362a69.136,69.136,0,0,0,1.91,19.93c.793,3.113.678,6.175,1.138,9.328.52,3.557,1.42,7.1,2.289,10.585a380.671,380.671,0,0,0,12.271,39.367,86.5,86.5,0,0,0,9.474,19.082c1.862,2.718,4.274,4.845,6.278,7.426,1.944,2.5,2.457,5.576,2.885,8.647,1.025,7.365,1.7,14.761,2.321,22.169.262,3.14.567,6.251.983,9.369.362,2.718-.549,2.585-2.836,3.508.464-2.442-10.461-.781-11.493-.614-1.123.181-2.311.184-3.2.328a15.462,15.462,0,0,1-3.095.361c-1.673-.048-4.807-.476-5.446,1.661-.44-2.477-3.344.231-1.2-.228-2.206.247-4.457-.164-6.689.044-2.559.238-5.139.464-7.68.849-1.769.268-3.456.949-5.228,1.147-2.267.253-4.633.23-6.923.432a160.962,160.962,0,0,0-25.4,4.7,39.744,39.744,0,0,0-5.772,1.584c-.476.2-.9.663-1.359.84-.764.295-.659.091-1.338.226-4.064.812-8.257,2.139-12.32,3.181-2.254.578-5.92,1.1-7.759,2.672-.824.7-1.544,1.954-.224,2.755,1.055.639,2.561-.381,3.415-.933-.761,1.983-2.2,2.971-1.421,5.226.612,1.783,1.993,3.979,4.118,2.829.285.662.4,1.979,1.238,2.222.753.219,1.3-.736,2.036-.511.264.08.164.579.4.71a7.625,7.625,0,0,0,1.287.478,7.34,7.34,0,0,0,1.466.445c.266.019.892-.436.89-.436.61.093.938,1.26,1.378,1.6a3.858,3.858,0,0,0,1.755.7c1.485.33,3.4.895,4.378-.625-.224,1.085,1.252.979,1.9,1.117a1.969,1.969,0,0,0-.875-1.409c1.456.1.866,1.543,1.942,1.926.767.272.68-.419,1.266-.5.773-.1,1.36.46,2.567-.057.262,1.163.357,2.335,1.785,2.508.838.1,2.792-1.411,2.681-.152,1.872-.549,2.583-.178,3.561,1.472.165-1.013.965-.719,1.7-.782,1.164-.1,1.193-.006,2.1-.664.082-.06.792-1.685,1.107-.675.142.453-.8,1.517-1.143,1.788.431.218,1.843.981,2.387.841.47-.121.471-.925,1.036-.966q-.207.693-.415,1.386c1.1.16,2.016-.575,2.884-1.114.827,2.092,3.192.913,4.478,2.487.68.833.712,1.466,2.008,1.683,1.326.223,2.485-.359,3.612.735-.357-.679-1.248-1.242-.363-1.971a29.62,29.62,0,0,0,1.607,2.678l.287-1.212c1.81,1.936,4.088,1.952,6.406,3.025v-1.416c1.66,2.533,1.748.93,3.731-.1q-.2,1.117-.4,2.234c1.427-.108,2.76,1.583,3.931.147.707,1.187,1.565.6,2.724.979.659.215,1.15.864,1.792,1.1.962.352,1.249.336,2.155.642a11.7,11.7,0,0,0,2.271.973,8.43,8.43,0,0,0,1.875.072c.242-.012.162-.556.7-.429.832.2,1.451,1.24,2.05,1.775.9-2.265,3.424.769,4.643,1.173a3.55,3.55,0,0,1,.516-1.757c.493,1.081.682,1.99,1.706,2.686a6.562,6.562,0,0,0,2.142.836,14.019,14.019,0,0,1,1.487.115c.463.227.633.832,1.1.889.275.033.682-.69.888-.634.942.257,1.465,1.4,2.416,2.02,2.83,1.841,6.392,2.02,9.546,2.424.791.1.906-.115,1.549.349.343.248.187,1,.609,1.214,1.589.8,1.591-.9,1.924-1.959.526.694.616,1.609,1.336,2.161a11.442,11.442,0,0,1,1.178.027,1.876,1.876,0,0,1,.434.874c.952.643,2.031.419,3.014.9.323.158.894,1.115,1.291,1.39a8.853,8.853,0,0,0,2.623.97c1.7.448,4.146-.147,5.16,1.631,1.346-1.443.825.28,1.739.642.54.213,1.351-.636,1.949-.551,1.078.152,1.466,1.318,1.811,2.166.656-.146.206-2,.187-2.41.815-.1,1,2.051,1.137,2.523,1.287-.62-.826-2.549.558-3.168-.127,1.644,1.183,3-1.156,3.233.323.99,7.869,2.09,8.393,1.216.116,1.616,1.2.106,1.6-.446.045.942-.276,2.28.782,2.718a2.723,2.723,0,0,0,2.621-1.176c.322,1.076.862,1.041,1.532,1.725.461.469.764,1.283,1.248,1.677.889.723,2.543.613,3.579.451,2.027-.316,1.788-.7,2.51,1.4.163-.8.675-2.472,1.568-1.229.568.79-.641,2.531-.991,3.225a9.1,9.1,0,0,1,2.445-1.123,2.3,2.3,0,0,1-.036,1.108c.027-.051.975.585,1.326.761a9.548,9.548,0,0,1,.268-1.574c1.251.772.383,2.248,1.491,3.009.286.2.958-.033,1.3.087a9.606,9.606,0,0,1,1.659,1.1,3.632,3.632,0,0,1-.337-2.2c.272.151.467.714.742.758.1.017,1.181.16,1.174.155,1.122.785.891.884-.072,1.829.344.541,1.782-.4,2.171-.555.081.211.1.979.255,1.116l.279.682a1.1,1.1,0,0,1,.924-.214c.208.072,1.83.732,1.94.506a2.915,2.915,0,0,1-.964-.528c.936-.842,1.552-1.289,2.415-.074.109.153-.265.7-.154.9a11.2,11.2,0,0,0,1.834,1.94c.238-.836-.316-2.929,1.006-2.853,1.056.06,1.859,2.619,1.494,3.414a6.868,6.868,0,0,1,3.4-.772c1.338.405.962,1.642,2.608-.17,1.122.775.133,1.068.335,2.012a.988.988,0,0,0,.843-.22c-.2,4.012,2.762.947,4.684,1.559.755.241.948,1.1,1.757,1.347.428.132.905-.181,1.322-.1q.5-.071,1-.177.627-.314.588.7c.672.348.418.484,1.2.552.506.044.971-.482,1.546-.393.992.156.861.917,1.494,1.315a2.907,2.907,0,0,0,1.916.277c.358-.035,1.363-.5,1.484-.5.75-.01.343-.17,1.244.475a4.9,4.9,0,0,0,1.857,1.06c.987.265,2.739.844,3.4.13.9,1.345,1.6.358,2.785.447.606.046.7.282,1.242.376a20.379,20.379,0,0,1,2.9.319,8.654,8.654,0,0,0,3.129.771l.81-.317a1.8,1.8,0,0,0,.638,1.1,2.589,2.589,0,0,0,2.079-.711c.515,1.6,2.186,1.744,3.615,1.955a36.883,36.883,0,0,1,6.735,1.284c1.878.64,3.76,1.359,5.567,2.178,1.59.721,3.09,1.8,4.889,1.294,4.076-1.148,8.026-5.332,11.436-7.734,4.039-2.845,8.395-5.19,12.615-7.748,16.8-10.184,34.55-18.8,51.116-29.362,9.044-5.767,17.436-12.619,27.148-17.284-1.383,5.713-3.736,11.513-3.311,17.5.171,2.411.881,5.258,2.75,6.941,2.311,2.081,4.886.756,7.1-.73,4.737-3.185,7.9-7.832,11.44-12.2a97.222,97.222,0,0,0,10.524-16.592c.738,1.036.177,2.77.187,3.919a9.253,9.253,0,0,0,1.089,4.185c1.754,3.376,5.091,4.194,8.107,1.881,5.8-4.451,9.172-12.378,12.282-18.762,1.774,3.3,4.291,7.453,8.551,5.1,3.515-1.945,5.58-6.29,6.655-9.971,3.139-10.744,2.144-21.688,2.627-32.7" transform="translate(0 0.23)" fill-rule="evenodd"/><path d="M351.825,139.986c-.4-.974-.577-.814.16-1.758.574.566.115,1.033-.16,1.758m17.763,58.928c-1.127-3.2-.431-6.685-1.115-9.972-.314-1.508-.81-2.971-.989-4.506-.079-.681-.686-3.748-.273-4.231-1.272-.77-1.276-1.34-1.569-2.849q.68-.721-.171-1.231l-1.113-1.346c1.622.793.662-1.237.5-2.406a14.712,14.712,0,0,0-.527-2.775c-.379-1.089-1.223-1.64.532-1.64a7.984,7.984,0,0,1-1.729-2.139c-.414-1.157.269-2.687-.575-3.709-.47-.57-2.9-.793-2.47-2.025.217-.628,1.2-.159,1.5-.6,1.2-1.728-2.334-2.444-2.507-3.179-.224-.953,1.05-1.166,1.129-2.057.076-.872-1.28-2.306-1.638-3.086-.488.119-1.024.891-1.583.522-.106-.07.053-3.089-.074-3.49s-.38-1.439-.471-1.633c-.362-.768-1.4-1.143-1.562-2.05-.1-.542,2.024-1.362-.41-1.387.874-1.541-.727-2.477-1.31-3.794-.749-1.693-1.191-3.521-1.961-5.223a25.421,25.421,0,0,0-2.665-4.686,33.308,33.308,0,0,1-2.18-4l-.468-.369q-.977.141-.627-.89c-.5-.738-.868-1.525-1.307-2.3-.51-.9-1.2-1.625-1.726-2.5-.7-1.154-.907-2.456-1.7-3.614-.972-1.425-2.066-2.681-2.967-4.159a23.143,23.143,0,0,0-3.8-4.436c-.676-.683-.758-2.389-1.586-3.358-.9-1.056-1.794-1.342-2.419-2.728-.814-1.8-2.008-2.665-3.171-4.223-.959-1.286-1.428-2.764-2.484-4.008-.909-1.068-1.94-2.045-2.91-3.058-1.224-1.279-2.128-2.834-3.4-4.05.184.176-1.109-.849-1.044-.816-.286-.146-1.21-.263-1.075-.184-1.924-1.131-4.334-5.27-7.229-3.077-1.523,1.153-.792,3.269.271,4.417.457.493,2.829,2.926,3.342,1.9.553.784,2.257,4.575,3.675,3.489-.144,1.3.606.866,1.1,1.742.326.578.167.862.4,1.764.654,2.48,3.148,4.9,4.476,7.064,3.306,5.382,6.954,10.486,10.263,15.874,3.154,5.135,6.686,10.007,9.712,15.211,3.442,5.918,7.729,11.5,10.322,17.883.088.214.808.554.986.876a13.124,13.124,0,0,1,.445,2.161,23.051,23.051,0,0,0,3.108,6.18c1.127,1.6,1.209,3.767,1.985,5.64,1.094,2.64,2.249,5.252,3.312,7.905a104.11,104.11,0,0,1,3.918,12.4,48.336,48.336,0,0,1,1.566,8.472c.217,2.653.27,5.417,1.252,7.929.67-1.034,1.458-2.374,1.007-3.655" transform="translate(57.027 15.024)" fill-rule="evenodd"/><path d="M41.178,228.737c-1.189-.24-2.307-.561-2.559-1.925l-.517,1.93,4.342.983a1.61,1.61,0,0,0-1.266-.988" transform="translate(7.064 42.054)" fill-rule="evenodd"/><path d="M44.275,46.809a8.3,8.3,0,0,1,.351-1.13c.1.359.577,1.135.3,1.473-.355.429-.715.186-.649-.343M50.1,35.722c.39.172,1.234.205,1.718.351-1.256,1.081-1.477.763-3.1.637-.072-1.093.372-1.433,1.383-.988M39.213,62.791l.507.013q.015-.714-.038-1.427c1.713.374.743-2.619.205-3.239,1.671.056,2.485-5.234,3.014-6.254a11.842,11.842,0,0,0,1.346-2.359,20.261,20.261,0,0,1,1.059-2.749c1-2.1,2.3-4.009,2.062-6.457.844,1.837,1.586,0,2.122-.875.863-1.415,2.967-3.221,3.191-4.9.2-1.48-.9-1.558-.253-2.931.656-1.389,1.2-1.25,2.346-1.694.765-.3.917.063,1.456-.9.35-.625.226-1.091.674-1.6a.785.785,0,0,0,.631.2,3.811,3.811,0,0,0,.715-1.6,13.055,13.055,0,0,1,.886-2.284,24.982,24.982,0,0,1,1.573-2.984c.423-.368,2.821-.181,2.811-.167.991-1.246-.827-2.487,1.69-2.225-.5-.926,1.249-2.074,1.756-2.589a4.945,4.945,0,0,0,1.634-3.5c.136-.824-.75-.729.437-.917.491-.077.962.55,1.316.458,1.564-.405-.072-.328.359-.965.136-.2.832-1.018.825-1.009a2.809,2.809,0,0,1,.314-.9,4.958,4.958,0,0,0,.883-.157,8.831,8.831,0,0,0,.39-.912c1.132-.944,2.825-1.366,3.608-2.4.506-.671.355-1.327,1.009-2,.623-.637,1.447-.176,1.571-1.614C79.469.012,77.5-.8,76.7,1.044,74.518-1.642,65.4,8.213,64.35,9.5A155.074,155.074,0,0,0,51.529,27a101.923,101.923,0,0,0-9,19,73.874,73.874,0,0,0-2.51,9.7c-.232,1.109-1.965,6.053-1.243,7.159l.439-.07" transform="translate(7.157 0)" fill-rule="evenodd"/><path d="M342.844,168.823c.77-.514.77-.514.906-1.485-1.033.188-1.033.188-.906,1.485" transform="translate(63.557 31.027)" fill-rule="evenodd"/><path d="M22.481,223.711a.026.026,0,0,1,.023.007c-.016-.021-.076-.083-.023-.007" transform="translate(4.164 41.472)" fill-rule="evenodd"/><path d="M22.062,224.226a.746.746,0,0,0,1.148.383c.208.3-1.8-1.853-1.148-.383" transform="translate(4.066 41.478)" fill-rule="evenodd"/><path d="M51.448,26.06c-1.207,2.366.3.645.227,1.413.051-.5.26-1.224-.227-1.413" transform="translate(9.452 4.832)" fill-rule="evenodd"/><path d="M216.859,58.716c.523,4.242,6.326,2.236,7.631-.33.951-1.868,3.351-9.249.768-10.809-1.915-1.156-2.324,3.826-2.8,4.939-.791,1.864-1.409.543-3.167,1.021-1.941.528-2.653,3.42-2.437,5.179" transform="translate(40.201 8.789)" fill-rule="evenodd"/><path d="M211.844,51.685c2.074.461,4.108.223,5.581-1.414.816-.908,1.9-2.707.433-3.584-1.331-.8-2.841,1.067-4.243.682-1.907-.524-.925-2.569-1.579-3.919-2.4,1.384-3.745,7.447-.191,8.236" transform="translate(38.875 8.056)" fill-rule="evenodd"/><path d="M213.578,59.432c-2,0-2.016,2.455-.972,3.509,1,1.008,3.525,2.029,4.879,1.245,2.671-1.548-2.288-4.594-3.906-4.754" transform="translate(39.293 11.019)" fill-rule="evenodd"/><path d="M115.244,142.16c.427.207,1.685,1.274,2.216.792l-2.246-2.262c-.414.454-.7,1.116.03,1.47" transform="translate(21.285 26.086)" fill-rule="evenodd"/><path d="M107.3,50.914l-.638.475c.717.6.7.775,1.422.209a2.54,2.54,0,0,0-.784-.684" transform="translate(19.777 9.44)" fill-rule="evenodd"/><path d="M223.43,169.9c-.4-.722-1.161.609-1.674.826-.835.352-1.521-1.512-1.281.722-1.888-.865-3.035,1.119-4.252,2.152-1.721,1.46-3.825,2.252-4.973,4.325,5.4,1.264,11.338-3.393,15.366-6.453.657-.5,3.942-3.02,1.716-3.263-.911-.1-4.226,2.9-4.9,1.691" transform="translate(39.168 31.187)" fill-rule="evenodd"/><path d="M220.421,166.1c1.059-.833-1.224-.91-1.585-1q.047.994.093,1.988.766-.465,1.492-.991" transform="translate(40.575 30.612)" fill-rule="evenodd"/><path d="M216.884,168.49c.316-.2,1.2-.814.6-1.274a2.2,2.2,0,0,0-1.015,1.551l.416-.276" transform="translate(40.136 31.004)" fill-rule="evenodd"/><path d="M143.156,122.944q-1.014.4-.908,1.259c1.039-.212.841-1.194.908-1.259" transform="translate(26.373 22.795)" fill-rule="evenodd"/></g></g></g></svg>