<svg xmlns="http://www.w3.org/2000/svg" xmlns:xlink="http://www.w3.org/1999/xlink" width="654" height="444" viewBox="0 0 654 444"><defs><filter id="a" x="0" y="0" width="654" height="444" filterUnits="userSpaceOnUse"><feOffset dy="3" input="SourceAlpha"/><feGaussianBlur stdDeviation="49.5" result="b"/><feFlood flood-opacity="0.161"/><feComposite operator="in" in2="b"/><feComposite in="SourceGraphic"/></filter></defs><g transform="translate(-315.5 -345.5)"><g transform="translate(511 453)"><rect width="357" height="147" rx="22" fill="#f5f5f5"/><rect width="56" height="8" rx="4" transform="translate(272 32)" fill="#bebebe"/><rect width="109" height="8" rx="4" transform="translate(219 52)" fill="#bebebe"/><rect width="26" height="8" rx="4" transform="translate(236 32)" fill="#bebebe"/></g><g transform="translate(-143 68)"><g transform="matrix(1, 0, 0, 1, 458.5, 277.5)" filter="url(#a)"><rect width="357" height="147" rx="22" transform="translate(148.5 145.5)" fill="#fff"/></g><rect width="56" height="8" rx="4" transform="translate(636 455)" fill="#bebebe"/><rect width="109" height="8" rx="4" transform="translate(636 475)" fill="#bebebe"/><rect width="26" height="8" rx="4" transform="translate(702 455)" fill="#bebebe"/></g><path d="M452.6,322.4a8.35,8.35,0,1,1,8.4-8.3,8.674,8.674,0,0,1-2.4,5.9A8.919,8.919,0,0,1,452.6,322.4Zm0-14.2a5.612,5.612,0,0,0-5.6,5.7,5.675,5.675,0,0,0,5.7,5.6,5.657,5.657,0,0,0,3.9-9.7A5.76,5.76,0,0,0,452.6,308.2Z" transform="translate(400 341.975)" fill="#f2a668"/><g transform="translate(1011.293 1116.554)"><path d="M-112.3-620a.975.975,0,0,1-.9-.4,1.267,1.267,0,0,1,0-1.8h0l8.5-8.5a1.389,1.389,0,0,1,1.9,0,1.389,1.389,0,0,1,0,1.9h0l-8.5,8.5A2.935,2.935,0,0,1-112.3-620Z" fill="#39b54a"/><path d="M-103.7-620a.975.975,0,0,1-.9-.4l-8.5-8.5a1.389,1.389,0,0,1,0-1.9,1.3,1.3,0,0,1,1.9,0h0l8.5,8.5a1.267,1.267,0,0,1,0,1.8h0A1.591,1.591,0,0,1-103.7-620Z" fill="#39b54a"/></g><g transform="translate(613.144 1054.175)"><path d="M-112.3-620a.975.975,0,0,1-.9-.4,1.267,1.267,0,0,1,0-1.8h0l8.5-8.5a1.389,1.389,0,0,1,1.9,0,1.389,1.389,0,0,1,0,1.9h0l-8.5,8.5A2.935,2.935,0,0,1-112.3-620Z" fill="#f15642"/><path d="M-103.7-620a.975.975,0,0,1-.9-.4l-8.5-8.5a1.389,1.389,0,0,1,0-1.9,1.389,1.389,0,0,1,1.9,0h0l8.5,8.5a1.267,1.267,0,0,1,0,1.8h0a1.591,1.591,0,0,1-1,.5Z" fill="#f15642"/></g><path d="M20.8,168.4a8.35,8.35,0,1,1,8.4-8.3,8.674,8.674,0,0,1-2.4,5.9A8.468,8.468,0,0,1,20.8,168.4Zm0-14.2a5.633,5.633,0,1,0,4,1.6A5.76,5.76,0,0,0,20.8,154.2Z" transform="translate(407 433.975)" fill="#39b54a"/></g></svg>