<svg xmlns="http://www.w3.org/2000/svg" xmlns:xlink="http://www.w3.org/1999/xlink" width="426" height="426" viewBox="0 0 426 426"><defs><clipPath id="a"><rect width="426" height="426" transform="translate(6696 -76)" fill="#fff" stroke="#707070" stroke-width="1"/></clipPath></defs><g transform="translate(-6696 76)" clip-path="url(#a)"><g transform="translate(6696 24.193)"><path d="M81.338,177.243l1.154,14.471,21.923,5.209,16.731,7.525,13.269,11.577,6.346-5.209,8.077-17.943,9.231-1.736,33.462,3.473,11.539,3.473-4.039,19.68-4.039,14.47,66.924-4.052-2.308-33.571-13.846-30.677-54.808-26.626-40.962,5.209-28.846,31.835-12.693,6.946-22.5-1.158" transform="translate(-3.632 -39.29)" fill="#ff5678" fill-rule="evenodd"/><path d="M369.327,59.424c4.509,5.481-2.134,13.232-5.9,17.057-1.828,1.857-3.344,4-5.13,5.906-1.766,1.88-3.982,3.36-5.567,5.176a57.6,57.6,0,0,0-4.978,6.138c-.881,1.359-2.188,2.876-2.625,4.454-.629,2.268-.1.958.728,2.24a5.817,5.817,0,0,1,1.423,3.21,11.025,11.025,0,0,0,1.636,4.588,48.2,48.2,0,0,1,4.4,7.6c1.48,3.672,2.528,7.4,3.707,11.176a24.9,24.9,0,0,0,1.511,4.518c1.054,1.928,1.2,1.767,2.771.564,4.683-3.589,9.418-7.383,14.3-10.8,2.8-1.959,5.7-3.878,8.651-5.595,2.026-1.178,6.377-3.275,7.391-5.462,1.344-2.9-.748-5.561,2.132-8.232,1.875-1.739,4.933-2.7,7.376-3.126,3.454-.6,7.27.256,10.72.564a34.923,34.923,0,0,0,10.32-.741c5.236-1.092,15.3-7.137,18.688.125,1.488,3.177.481,6.7.2,9.954a15.9,15.9,0,0,1-2.844,8.186c-2.021,2.667-4.963,2.807-8.022,3.516-3.614.836-7.322,1.14-10.94,1.956a30.5,30.5,0,0,1-5.371.682c-1.628.076-3.978-.585-5.407-.376-1.355.2-.892,1.053-1.844,1.646-.386.241-1.173.068-1.414.262a4.835,4.835,0,0,0-1.336,1.959,73.79,73.79,0,0,1-5.822,8.849,73.142,73.142,0,0,1-5.535,7.363c-4.14,4.47-8.16,9.395-12.245,14.065a68.325,68.325,0,0,1-6.987,6.947c-.745.63-2.252,1.2-2.633,2.081-.544,1.258.935,4.028,1.28,5.293.82,3.008.932,6.114,1.8,9.075a40.823,40.823,0,0,1,1.32,8.874c.418,6.674,1.33,13,1.116,19.681-.185,5.759-.4,11.281-2.4,16.936-1.82,5.146-7.273,10.749-12.345,12.645a57.681,57.681,0,0,1-8.861,2.767c-3,.6-6.162,1.223-9.141,2.075a95.376,95.376,0,0,1-17.092,3.222,176.2,176.2,0,0,1-22.339.5c-3.341-.116-6.776-.123-10.074-.113a98.285,98.285,0,0,0-10.053,1.042c-12.056,1.264-24.8.248-36.844,1.485-5.955.611-11.9,1.787-17.96,1.858-5.424.062-10.924-.3-16.228-.319a20.672,20.672,0,0,1-4.829-.259c-.887-.2-2.133-1-3.028-.54-.782.4-1.371,2.081-1.856,2.8a25.443,25.443,0,0,1-3.712,4.123c-5.409,5.156-10.77,6.892-17.869,8.781-3.259.868-4.868,1.321-7.6,3.306a28.643,28.643,0,0,1-7.05,3.732c-5.032,1.869-10.967.423-15.7-1.2-2.29-.785-4.7-1.5-7.036-2.432-3.187-1.269-5.817-3.378-8.958-4.676.36,3.352-3.275,4.477-4.378,6.729-.712,1.455-.28,3.74-1.04,5.386a5.51,5.51,0,0,1-3.493,3.367c-2.315.544-6.453-2.032-8.079-3.534-.9-.834-1.709-3.056-2.814-3.426-1.442-.483-4.084,1.65-5.449,2.131a42.816,42.816,0,0,1-20.16,2.474c-7.1-.931-13.617-3.453-20.28-5.846-13.048-4.685-24.406-12.4-34.623-21.684a8.363,8.363,0,0,1-1.785-1.655c-.342-.592-.312-1.988-.536-2.318-.666-.983-1.663-.809-2.912-.9a15.785,15.785,0,0,1-9.912-3.808c-4.706-4.069-6.447-13.556.767-16.076a10.913,10.913,0,0,1,5.78-.376c.786.164,3.711,1.936,4.458,1.818,1.133-.18.912-1.638,1.213-2.417a21.342,21.342,0,0,1,3.132-5.387,52.426,52.426,0,0,1,7.465-7.85c2.923-2.463,6.142-3.556,9.622-4.919,2.344-.919,6.921-2.5,9.4-1.674,3.234,1.07,1.651,4.6-.387,5.841-2.91,1.766-6.4,2.49-9.352,4.277a92.63,92.63,0,0,0-9.206,7.044c-2.4,1.907-4.474,4.262-6.909,6.091a16.654,16.654,0,0,0-1.9,1.6c-.07.093.016.847-.3,1.182-1.416,1.487-1.085,1.319-3.218.8-2.514-.615-8.517-2.006-10.212,1.111-1.526,2.805,4.719,5.333,6.77,6.189,3.01,1.256,3.713,2.517,5.864,4.91,2.2,2.453,5.863,4.12,8.623,5.949,5.966,3.952,12.671,6.755,19.06,9.895a151.07,151.07,0,0,0,19.378,7.391,62.509,62.509,0,0,0,12.7,3.072c4.136.4,8.015-.273,12.073-1.063a28.716,28.716,0,0,0,4.545-1.156c.756-.267,1.989-.306,2.589-.772.93-.723.544-1.3.708-2.535.721-5.415,4.477.63,6.139,2.433,1.283,1.391,2.545,3.1,4.234,3.983,2.116,1.1,2.484.584,3.177-1.237,1.3-3.409,1.786-7.285,6.692-6.784-3.873-3.314-7.564-6.129-10.879-10.111-3.271-3.928-6.329-8.15-9.465-12.187-2.571-3.309-4.81-7.876-8.147-10.486-1.055-.825-4.262-2.726-5.482-2.687-1.827.059-3.449,3.044-5.417,3.292-2.174.275-3.174-.484-3.8-2.249-.644-1.831.9-3.938.375-5.269-.145-.37-1.07-.814-1.356-1.352a4.683,4.683,0,0,1-.332-2.765c.192-1.335.664-1.88.563-3.223-.117-1.561-.8-2.7-.263-4.335.566-1.715,2.306-2.654,3.392-3.921,1.644-1.917.8-3.362.144-5.825-1.412-5.27-3.059-10.479-4.492-15.745-3.3,1.043-6.518,2.225-9.831,3.2-3.186.936-7.13,1.774-10.086,3.25-1.777.886-1.283.072-1.151,2.04a32.969,32.969,0,0,0,.872,3.954c.462,2.321.663,8.309,2.48,9.418,1.1.672,2.871-.3,4.081,1.052,1.019,1.14.713,2.8,1.327,4.067.381.788,1.118,1.088,1.577,1.812.958,1.514.856,2.787,1.025,4.484.106,1.068-.058,4.268.473,5.1.709,1.107,2.114.915,3.3,1.26a28.67,28.67,0,0,1,8.268,4.144c1.316,1.608,10.73,11.027,6.641,12.226-1.974.579-5.467-3.869-6.889-5.078a23.88,23.88,0,0,0-7.195-4.138c-6.555-2.522-12.485-4.789-19.623-3.741-3.06.449-6.778,1.8-9.852,1.506-3.094-.3-2.292-3.06-.358-4.6,1.73-1.377,4.137-.989,4.9-3.3.766-2.332-.057-5.28,1.173-7.617a15.987,15.987,0,0,1,5.435-5.224c.833-.5,2.261-.856,2.7-1.6.357-.609-1.114-4.1-1.318-4.828-1-3.557-2.087-7.117-2.932-10.712-.784-3.332-.988-5.059,2.522-6.269,5.356-1.846,10.973-2.71,16.332-4.407-.95-2.475-3.919-.393-6.052-.479a32.667,32.667,0,0,1-8.123-1.767,14.868,14.868,0,0,1-10.364-12.228c-.192-1.285.413-3.864-.055-5-.442-1.074-1.69-1.6-2.6-2.361a21.865,21.865,0,0,1-5.7-7.478,13.6,13.6,0,0,1-.621-8.923c.407-1.632.637-1.857.061-3.4-.666-1.785-1.753-3.375-2.367-5.21a28.429,28.429,0,0,1-1.5-9.419c.062-3.56,1.49-5.157,2.436-8.3.747-2.477-.272-5.9-.1-8.651a23.494,23.494,0,0,1,2.674-9.476c2.389-4.811,6.171-9.969,11.094-12.491.974-.5,2.574-.528,3.444-1.109,1.081-.721,1.166-1.783,1.589-3.046a19.7,19.7,0,0,1,4.452-7.752c7.078-7.465,19.481-10.108,29.428-9.478,1.786.113,3.489.959,5.182.462,1.173-.344,2.416-1.566,3.625-2.073a16.134,16.134,0,0,1,4.711-1.179,18.837,18.837,0,0,1,8.895,1.117c1.132.415,2.215.868,3.331,1.318,1.761.712,1.661.373,3.317.043,3.3-.657,5.2-.171,8.122,1.238a15.762,15.762,0,0,1,2.682,1.18c.949.745,1.336,3.008,2.392,3.431.586.235,2.4-.629,3.152-.751a25.841,25.841,0,0,1,3.964-.041,14.666,14.666,0,0,1,6.973,1.172,38.013,38.013,0,0,1,4.948,3.522c1.924,1.485,3.125,4.294,5.528,5.072.94.3,1.959,0,2.919.256a10.5,10.5,0,0,1,3.469,2.046c1.744,1.378,3.22,4.579,5,5.139,1.185.374,3.029-.016,4.386.371a9.382,9.382,0,0,1,4.377,2.478c2.408,2.458,3.088,6.092,3.191,9.425.028.9-.526,3.431.012,4.229.478.707,2.279,1.115,3.012,1.841,2.292,2.27,3.327,6.051,3.559,9.161.265,3.547-.651,6.047-1.281,9.442-.393,2.116-.9.76.885,2.007a8.354,8.354,0,0,1,2.868,2.8,15.572,15.572,0,0,1,1.806,9.32c-.343,3.994-2.368,6.97-3.279,10.748,4.2,0,8.717,1.109,12.817,1.883a15.575,15.575,0,0,1,4.027,1.784,21.935,21.935,0,0,0,3.116,1.024c2.646.923,2.134.769,3.975-1.12a39.374,39.374,0,0,1,28.292-11.913,48.615,48.615,0,0,1,17.036,2.97,33.9,33.9,0,0,1,6.821,3.193c2.337,1.592,2.685,1.573,5.775,1.638,11.19.232,22.049,6.243,30.193,13.527.728-4.886,8.663-7.816,12.506-9.841,1.313-.692,2.52-1.053,3.166-2.349.6-1.213.569-3.71.973-5.139a31.152,31.152,0,0,0,1.532-8.6c-.192-8.014-2.046-15.991-2.287-24.024a40.078,40.078,0,0,1-.021-6.279c.216-1.609.951-2.613-.106-4.1-2-2.828-5.7-3.534-6.945-7.257-2-6,1.438-12.134,6.136-15.7,2.705-2.054,5.348-2.489,7.516-5.369,1.952-2.595,3.6-5.663,5.828-8.022,1.867-1.978,3.567-4.627,5.706-6.273a26.543,26.543,0,0,1,8.032-3.63C357.184,53.587,364.9,54.047,369.327,59.424Zm-196.5,150.709c-1.462.062-2.934.227-4.4.225-.891,0-2.962-.483-3.765-.143-1.6.679-2.9,4.4-3.654,5.878-2.43,4.808-4.343,9.848-6.713,14.675-1.233,2.51-3.074,4.162-5.983,4.2-3.26.045-4.794-2.044-6.862-4.187-4.125-4.275-9.678-7.95-14.8-10.924-5.531-3.211-12.126-6.322-18.423-7.456-4.194-.755-13.8-4.011-16.352,1.249,1.3-.174,6.28-.936,6.491,1.27.159,1.655-5.963,1.938-6.719,4.533,1.6-.125,7.126-1.667,7.514.712.207,1.264-2.1,1.9-2.914,2.328a14.606,14.606,0,0,0-3.845,3c1.955,0,3.881-1.66,5.737-1.487.766.072,1.686,1.216,2.382,1.565a9.58,9.58,0,0,0,3.144.876c2.372.294,3.808-.376,5.7,1.17,1.7,1.387,3.464,3.219,5.028,4.763,3.339,3.3,6.087,7.481,8.952,11.185a56.73,56.73,0,0,0,11.913,11.63A71.1,71.1,0,0,0,147.3,261.84c4.256,2.014,9.61,4.349,14.438,4.46a29.755,29.755,0,0,0,12.172-2.791,15.068,15.068,0,0,1,4.82-1.333c3.167-.587,6.832-2.288,9.763-3.621,9.2-4.188,15.037-13.315,19.188-22.249a61.69,61.69,0,0,0,4.822-15.554c.536-3,1-3.7-1.916-4.94a80.441,80.441,0,0,0-9.206-2.91C192.383,210.309,182.121,209.737,172.824,210.133ZM194.818,155.9c-.918.414-1.407,4.831-1.819,5.814-1.84,4.39-5.1,7.13-9.888,7.587-1.486.142-3.908-1.211-4.973-.571-1.426.857-1.683,4.949-3.217,6.292a18.451,18.451,0,0,1-6.166,3.019,8.564,8.564,0,0,1-4.178-.057c-.795-.184-2.311-1.166-3.089-.8-1.325.631-1.949,3.993-3.462,5.133a15.3,15.3,0,0,1-8.432,2.871c-2.792-.032-6.158-2.238-8.644-1.71-2.951.627-2.563,3.372-3.851,5.518-2.736,4.557-5.846,8.483-10.765,10.659-5.321,2.353-12.949,2.653-18.53,1.455a24.282,24.282,0,0,1-8.639-3.31c-2.04-1.386-3.571-3.231-5.461-4.8l-.309-.251.016.056c.042.146.084.288.128.426.9,2.869,1.3,7.96,3.087,10.3,1.6,2.094,7.153,2.211,9.828,2.493a48.09,48.09,0,0,1,19.649,6.028,108.224,108.224,0,0,1,16.815,12.092c1.076.921,1.936,2.4,3.238,2.992,2.126.968,1.954-.162,2.516-2.055a75.967,75.967,0,0,1,4.134-11.378c.752-1.569,2.465-3.512,2.832-5.178.351-1.6-.371-3.342-.125-5.058a26.625,26.625,0,0,1,5.03-11.538c1.7-2.433,6.8-6.576,6.146-.452-.481,4.522-3.782,8.529-4.595,12.973a22.3,22.3,0,0,1,6.329-.188c3.076.194,6.573-1.009,9.743-1.019a98.811,98.811,0,0,1,18.039,1.46,50.671,50.671,0,0,1,8.069,2.016c2.1.743,4.883,3.113,7.116,3.293,1.619.131,1.054.343,1.495-1.038.409-1.281-.03-3.587-.113-4.932-.185-3.042-.915-6-1.293-9.026-.162-1.3-1.71-6.7-.077-7.752,2.5-1.6,3.544,4.688,3.862,5.815a61.82,61.82,0,0,1,2.63,17.509,85.967,85.967,0,0,1-1.367,15.438,45.4,45.4,0,0,1-2.826,8.89c-.626,1.515-4.3,7.259-3.788,8.27.409.811,6.65-.6,7.61-.683,3.416-.293,6.84-.089,10.26-.292,5.055-.3,10.147-.239,14.987-1.13,2.886-.532,5.949-.023,8.833,0,3.18.021,6.254-.273,9.455.03,2.431.23,6.078,1.513,8.423.98,2.4-.546,1.692-2.153,1.709-4.6a83.971,83.971,0,0,0-1.805-18.444c-.7-3.028-1.631-5.958-2.13-9.036s-.473-6.406-1.4-9.388c-1.647-5.29-6.176-9.882-9.927-13.791a61.268,61.268,0,0,0-12.89-9.829,108.393,108.393,0,0,0-12.64-6.672c-5.234-2.3-11.178-3.722-16.028-6.753a56.1,56.1,0,0,0-14.532-6.177C199.1,157.223,195.339,155.668,194.818,155.9ZM338.6,107.011c-3.358.472-9.637-1.168-9.633,3.462,0,2.54.844,5.2,1.083,7.745.282,3,.087,6.017.544,9,.74,4.835,1.824,9.3,1.461,14.269-.4,5.4-1.521,10.59-1.416,16.067.1,5.213-.181,10.239,2.3,15.023,1.045,2.02,1.893,4.392,3.043,6.282,1.348,2.215,2.515,2.863,4.924,3.755,1.509.559,5.223,1.286,6.2,2.791,1.411,2.173-.473,3.052-2.329,2.978-5.731-.228-11.615-2.785-16.988-4.653-2.528-.88-4.961-1.987-7.446-2.946-1.986-.767-3.6-1.032-5.409-2.34-4.4-3.188-7.8-7.594-12.135-10.864a57.022,57.022,0,0,0-28.361-10.976,35.731,35.731,0,0,0-7.364.07c-1.47.125-2.925.165-4.381.434-.841.156-4,1.658-4.658,1.346-4.265-2.027,7.812-8.2,9.17-8.538-1.716-1.209-5.28-1-7.338-1.269a42.112,42.112,0,0,0-7.836-.534c-3.71.2-7.656.094-11.3.895a51.694,51.694,0,0,0-13.005,4.7c-1.376.721-3.313,1.6-3.3,3.609.012,1.889.764,1.58,2.6,2,4.956,1.128,9.542,4.412,13.957,6.915a141.814,141.814,0,0,1,13.726,8.837c8.351,6.111,13.117,14.9,16.826,24.46a65.6,65.6,0,0,1,3.886,15.983c.643,5.861.107,11.756.566,17.611.108,1.384.293,6.905,1.337,7.765.792.653,4.722-.514,5.831-.59,4.631-.319,9.291-.287,13.835-.549,9.6-.553,19.447.219,29.138-.351a99.9,99.9,0,0,0,14.374-1.956c4.443-.914,9.98-1.023,14.033-3.135,7.8-4.065,12.558-13.865,12.9-22.163A114.824,114.824,0,0,0,365.3,184.4c-.99-4.7-1.849-9.171-3.015-13.814-1.3-5.2-2.769-10.374-4.2-15.508-2.467-8.838-6.306-17.071-8.143-26.129-1.011-4.982-2.444-10.192-3.939-15.055-.551-1.793-1.638-5.2-2.921-6.559C341.735,105.909,340.6,106.73,338.6,107.011ZM64.843,214.647a8.144,8.144,0,0,0-3.389,6.6c0,3.167,2.629,1.818,5.106,1.932,1.508.07,7.085,1.616,8.065.123,1.17-1.783-2.35-.987-2.8-1.944-.9-1.935,3.231-2.752,2.725-4.428s-4.7,2.193-5.6.246c-.833-1.8,3.408-3.361,2.757-4.6C71.156,211.525,65.557,214.188,64.843,214.647Zm8.784-16.5c-.011,1.35-.476,3.145-2.154,2.869-2.1-.344-2.73-4.367-2.922-5.889C69.893,190.116,73.649,195.073,73.626,198.147Zm60.842-43.076c-2.423.38-2.7,1.465-3.829,3.129a2.619,2.619,0,0,1-.961-1.639,69.306,69.306,0,0,1-17.9,5.55c-6.923,1.064-14.143-.546-21.177-1.2-.91-.085-3.7-1.21-4.446-.763-.614.37-.6,3.474-.653,4.074-.342,4.09.438,7.7,1.038,11.706.16,1.066,0,3.374.843,4.283.591.639,1.642.407,2.39,1.372,2.017,2.6,2.646,7.65,3.575,11.009l.023.082,0-.06c.287-3.424,2.964-1.665,4.956-.767a33.981,33.981,0,0,0,9.372,2.526c2.6.366,5.56,1.238,8.232,1.1,2.807-.146,6.259-1.257,8.991-2.057,2.589-.757,4.017-2.4,5.8-4.506a74.92,74.92,0,0,1,5.406-5.194c4.64-4.531,3.37-13.918-.661-18.352,3.261-1.674,8.917-5.354,3.957-9.086A7.276,7.276,0,0,0,134.468,155.071Zm-41.1,37.6,0,.062.028.023Zm15.891-7.778a1.894,1.894,0,0,1,1.872,2.4c-.428,1.684-3.355,2.739-4.819,2.832C102.435,190.588,106.1,184.656,109.261,184.895Zm-12.25-6.479c.139.978,0,1.587.849,1.9.648.243,1.872-.257,2.669.081s.82.542,1.309,1.335c-.553,1.73-3.09,3.687-5.125,2.646-2.531-1.294-2.767-6.4-2.073-8.574C95.815,172.117,96.8,176.958,97.011,178.416Zm225.062-19.488c-1.056.384-1.987,1.472-2.932,2.064-2.512,1.574-5.26,2.411-7.666,4.135,1.718,1.854,2.618,4.368,4.3,6.152,1.05,1.117,2.327,1.241,3.59,1.846,3.69,1.771,8.034,4.262,12.11,5.108a30.666,30.666,0,0,1-5.319-8.713c-.506-1.213-1.142-2.5-1.522-3.757-.544-1.8-.251-3.715-.712-5.5C323.422,158.345,324.108,158.19,322.073,158.928ZM90.048,169.5a11.992,11.992,0,0,1,1.989,5.741c-1.132,5.423-4.922-2.059-4.807-4.488C87.337,168.514,88.513,167.691,90.048,169.5Zm10.27-2.967c1.839,1.569,2.44,4.189,2.631,6.354.208,2.347-.328,3.344-2.666,1.836-2.046-1.321-3.07-4.837-3.176-6.9C97.107,165.478,98.536,165.013,100.318,166.534Zm37-6.717c.459,2.449-4.964,4.966-4.078,1.131C133.067,158.5,136.835,157.222,137.323,159.816ZM393.378,115.5c-4.1,5-9.056,8.176-14.182,11.955-4.541,3.348-8.864,6.964-13.78,9.743-1.443.816-3.808,1.291-4.069,2.808-.245,1.426,2.4,5.255,3.012,6.8,2.065,5.213,3.589,10.563,5.2,15.943,4.811-7.5,9.663-15.122,15.56-21.9,5.2-5.984,10.543-12.245,15.092-18.693A22.394,22.394,0,0,1,393.378,115.5ZM423.4,103.966a37.739,37.739,0,0,1-14.572,1.743c-2.155-.221-4.278-.4-6.455-.539-1.629-.1-4.384-.895-5.786.361-1.326,1.187-1.166,3.549-.491,5.025.436.954,1.042,1.108,1.438,1.9.128.254-.25.694.078,1.292a18.041,18.041,0,0,0,5.622,5.237c2.12,1.076,2.437-.175,4.09-1.26,3.48-2.282,9.326-2.324,13.4-2.734.083.877,11.9-3.339,13.063-4.113,2.181-1.446,4.736-8.1,2.416-10.078C433.409,98.416,426.113,103.118,423.4,103.966ZM343.952,72.228a26.82,26.82,0,0,1-5.467,6.458c-2.4,1.933-5.505,2.684-8.244,4.007-2.481,1.2-4.686,2.4-6.234,4.71-1.072,1.6-3.035,3.843-2.14,5.9.916,2.108,4.524,3.586,6.091,5.418,2.158,2.522,2.161,2.027,5.394,1.33a19.033,19.033,0,0,1,4.8-.4c.668.023,2.921.677,3.513.238.758-.562.013-2.9.109-3.807a18.419,18.419,0,0,1,1.1-4.112c1.847-5.175,5.358-8.587,8.772-12.511,3.663-4.21,8.682-7.165,12.291-11.395,1.993-2.335,1.086-3.986-1.649-5.079-1.39-.555-3.018-.553-4.444-1-1.475-.457-2.788-1.359-4.368-1.377C346.764,60.347,346.55,68.087,343.952,72.228Z" transform="translate(-15.671 -54.475)" fill-rule="evenodd"/></g></g></svg>