<svg xmlns="http://www.w3.org/2000/svg" xmlns:xlink="http://www.w3.org/1999/xlink" width="426" height="426" viewBox="0 0 426 426"><defs><clipPath id="a"><rect width="426" height="426" transform="translate(7274 -95)" fill="#fff" stroke="#707070" stroke-width="1"/></clipPath></defs><g transform="translate(-7274 95)" clip-path="url(#a)"><g transform="translate(7234.011 -71.817)"><path d="M172.791,174.822q2.325,23.476,4.65,46.953l25.318-14.447v45.027c0,.829-.492,3.678,0,4.4.418.609,3.51.626,4.241.729q7.157,1,14.345,1.792c12.624,1.394,26.135,3.392,38.808,1.79,11.015-1.393,21.694-5.311,31.758-9.869q5.3-2.4,10.437-5.144c.725-.388,3.357-1.3,3.751-2.094.322-.646-.433-2.913-.534-3.592q-.638-4.29-1.276-8.579l-5.94-39.933,11.22,11.2c.879.878,2.548,3.37,3.764,3.759.892.285,3.1-.6,3.982-.767l19.059-3.673c1.48-.285,4.816-.274,6.063-1.169.672-.482.7-1.462.94-2.39l4.649-18.211c.279-1.094,1.837-4.541,1.441-5.642-.142-.394-.829-.665-1.25-.922l-28.766-17.57-15.759-9.624c-2.2-1.344-4.9-3.766-7.4-4.517-1.548-.467-3.8-.118-5.4-.163l-9.764-.278c-.509-.014-2.294-.378-2.723-.078-.357.25-.209.6-.326,1.193-.286,1.454-.288,3.022-.43,4.5-.113,1.184.112,3.357-.422,4.429-.341.685.091.412-.37.743-.549.394-2.3.268-2.957.343l-9.568,1.111c-3.792.44-7.626,1.267-11.435.886-5.775-.577-12-.548-17.673-1.764-1.474-.316-2-1.147-3.141-2.282-2.219-2.216-4.415-4.457-6.658-6.649-1.1-1.074-.628-.892-1.762-.485a26,26,0,0,0-4.146,2.526l-14.777,9-30.072,18.318-1.882,1.146" fill="#ff5678" fill-rule="evenodd"/><g transform="translate(39.989 26.152)"><path d="M420.433,150.616c-6.2,23.535-18.667,49.2-43.785,56.7-6.106,1.824-12.047,3.2-18.39,2.506a12.193,12.193,0,0,0-1.683.03c-1.029.019-.14.389-1.294.033-.9-.278-1.742-.973-2.679-1.28-2.493-.815-5.15-.973-7.683-1.632-6.224-1.619-12.638-3.618-18.669-5.851a68.821,68.821,0,0,1-8.121-3.924c-2.715-1.431-5.593-2.32-8.339-3.633-2.17-1.038-5.888-2.39-7.413-4.337-1.627-2.076.624-6.495,1.267-8.7,2.188-7.509,4.793-14.908,6.437-22.566,5.678,6.58,13.558,10.655,21.715,13.283a80.946,80.946,0,0,0,13.584,3.1c4.18.586,8.689,1.294,12.879.463,3.163-.627,7.134-2.081,9.392-4.5.806-.862,1.773-2.442,1.322-3.694-.573-1.589-2.244-.841-3.148-2.028-.787-1.033-.664-3.449-.915-4.707a49.136,49.136,0,0,0-1.8-6.535c-1.445-4.161-3.246-8.332-3.677-12.76a17.86,17.86,0,0,1,2.417-10.808c.9-1.576,3.179-5.863,5.4-5.685,2.438.2-.85,10.468-.957,12.563-.426,8.307.688,17.159,4.951,24.44,1.632,2.788,3.992,6.034,7.477,6.379,3.691.365,6.669-2.539,8.426-5.477,4.287-7.169,2.125-17.006-.045-24.52-2.663-9.219-9.615-15.573-14.01-23.852,6.562.66,10.076,4.828,13.444,10.117a60.786,60.786,0,0,1,8.017,19.588c.719,3.423.223,6.86.227,10.317,0,1.149,0,5.385,1.874,5.218,2-.178,2.687-4.957,2.981-6.414.674-3.343,1.4-6.687,1.99-10.047,1.037-5.945,1.5-12.033,2.739-17.936.21-1,.627-3.767,2.122-3.019,1.151.575.967,4.857,1.009,5.853.1,2.453.249,4.905.268,7.361.03,3.639-.7,7.406-.34,11.023.233,2.363,1.5,4.974,3.073,1.787,1.559-3.161,1.878-7.1,2.746-10.5.914-3.568,1.857-7.19,3.8-10.36.538-.879,1.115-2.275,2.31-1.862.868.3,1.509,2.359,1.777,3.085,1.211,3.283,1.006,6.932.929,10.368a52.962,52.962,0,0,1-1.62,12.41Zm-120.88,6.107a18.891,18.891,0,0,0-2.087-.271c-.409-.036.055-.789-.935-.575a1.571,1.571,0,0,0,1.019.948c-1.489.5-2.587-.74-3.6-.9-.974-.153-1.015,0-1.976,1.028-1.041-1.27-.846-.478-1.7-.477-.312,0-.325.471-.832.415-.443-.05-.489-.721-.751-.8-1.421-.43-2.882,1.733-4.494-.143-.391,1.952-4.863-.493-6.584-.15-1.8.359-1.026,1.006-2.484-.1-1.389-1.054-1-.354-2.618.508.038-.02-.912.622-.824.632-1.118-.131-1.055-1.288-2.471-1.226-1.5.065-2.14,1.241-3.512-.206-.3,1.083-.36.617-1.063.89a1.016,1.016,0,0,1-1.015-.3.737.737,0,0,1-.58.548,6.462,6.462,0,0,1-2.9-.194c-1.044-.554-.2-.766-.929-1.389-.324,1.717-1.035,1.352-2.535,1.512-1.144.123-1.4-.229-2.489-.4a12.133,12.133,0,0,0-3.517.428c-.433.074-1.014.376-1.454.27-.4-.1-.568-.4-.806-.485-.288-.1-.227-.35-.725-.471-.344-.084-.958.238-1.3.294a12.763,12.763,0,0,1-7.133-.561c1.15,2.021-2.688.93-3.372.093-.855,1.34-1.889.394-3.613.5-1.66.1-4.156.609-4.829-1.458a5.455,5.455,0,0,1-1.449,1.826c-1.088.54-1.218-.258-2.229-.583-1.377-.442-1.09.4-1.943.568-1.442.288-2.22-.726-3.494-1.266-.054.839-.081,1.355-.807,1.877-.642-2.339-2.934.191-2.541-2.934-.872.568-2.1,1-2.348,2.152,1.458-.4.156.552.095.584-.193.1-.844-.814-1-.942q-.062.646-.123,1.293c-.581-.291-1.127-.811-1.6-1.071-.425-.235.184-.723-.534-.757-.379-.018-.773.8-1.171.871-.607.107-.315-.765-.57-.735-.387.044-1.017.611-1.31.6-.96-.036-.311-.482-1.043-.687-1.309-.366-1.225.49-2.166.8-2.153.707-1.936-2.545-4.127-.376-.524.519-.861,1.321-1.579,1.275-1.487-.093-.965-1.855-.663-2.718.313.154-5.431,3.1-5.386,2.989.036-.707.939-1.253.132-1.881-.66,1.416-1.355,1.441-2.877,1.7-.74.128-.886.3-1.677-.008-.5-.2-.844-1-1.345-1.044a6.325,6.325,0,0,1-.994.77c-.831.374-1.357-.05-2.164.1-.688.131-.96.716-1.644.556-.914-.214-.377-1.305-1.634-1-.43.1-.689.932-1.366,1.1-1.056.268-2.35-.231-3.465.029a12.513,12.513,0,0,1-2.318.337c-.626.035-.368-.452-1.52.123L170.1,157l-1.729,1.555a8.408,8.408,0,0,1-.208-1.412,4.446,4.446,0,0,1-3.1,1.086,26.642,26.642,0,0,0-3.4.586,4.72,4.72,0,0,1-1.693.053c.046.02-.592-.246-.4-.2q-.125-.253-.232-.515-.161-.729-1.048-.064c-.306-.047-.9-.448-1.2-.349-.785.254-.678.864-1.461.775-.508-.058-.767-.809-1.3-.86-.809-.078-1.51.828-2.239,1.026,2.217-.6-2.876-.135-1.292-.093a6.522,6.522,0,0,0-3.075.387c-.53-.362.114-1.091-.422-1.391-.486-.272-.523.446-.58.462.306-.087.153.524-.154.633a1.4,1.4,0,0,1-1.769-1.376c-.812,1.222-1.04.731-2.233.806-1.177.075-2.193.692-3.371.68-2.329-.022-3.91-.832-4.688-2.912,2.483.3,4.981-1.294,7.408-.918.8.123,1.3.723,2,.616.861-.131,1.462-1.07,2.567-1.172,2.435-.223,4.836-.006,7.288-.379a40.391,40.391,0,0,1,8.943-.493c2.285.168,4.136-.706,6.453-.874,3-.218,6.018-.257,9.019-.414a94.163,94.163,0,0,1,9.478-.5,23.659,23.659,0,0,0,2.739.086c.4-.025.784-.3,1.208-.257.55.053.787.617,1.358.6.971-.033,2.008-.833,3.162-.855,1.9-.036,3.787-.031,5.688-.139,1.675-.1,3.469-.486,5.136-.465,1.176.014,1.466,1.017,2.151,1.12,1.232.186,7.466-3.362,8-.178,3.245-2.221,7.6-.34,11.209-.757,4.641-.536,9.366-.058,14.038-.249a107.393,107.393,0,0,1,14.379.434,38.039,38.039,0,0,0,5.824.247,10.151,10.151,0,0,1,2.767-.072c.212.049,1.838,1.184,1.637,1.216.889-.8.287-.914,1.85-.955,1.2-.032,2.344.229,3.541.3,2.15.127,4.316-.17,6.461-.1,1.791.055,3.542.319,5.342.332,1.941.014,4.233.069,5.637,1.634q-.222-.737-.445-1.474c2.166.169,4.307.942,6.5.581a3.864,3.864,0,0,0-1.328,1.742c1.181-.15,1.981-.974,3.224-.98,1.044-.006,1.261.517,2.364-.159q.2,1.244.407,2.488c1.527-.359.525-1.5.637-2.524,1.241.373,2.292-.055,1.8,1.73a2.719,2.719,0,0,1-3.388,1.636Zm-2.146,15.332c-.533,1.5-5.138.641-6.227.483-1.407-.2-3.017-.527-4.312-.687a2.264,2.264,0,0,0-.559-.528,1.335,1.335,0,0,1-.619.483c-.595.13-.6.744-1.379.609-.036.909.595.392,1.079.722-1.219.817-.662-.124-1.345-.109a.664.664,0,0,0-.708-.283,3.23,3.23,0,0,0-1.065.495q-.457.483-.783.05a1.357,1.357,0,0,0-.762-.388c-1.2.2-1.536.728-2.889.641-1.932-.124-4.022.385-5.923.117-1.178-.166-3.148-2.018-3.682-.213-.815-1.338-2.113-2.249-2.893-3.616,3.634-.21,7.266-.46,10.9-.591,3.184-.115,6.668.243,9.643.094,2.788-.141,5.74-.449,8.586-.7,3.017-.269,4.015.392,2.936,3.425Zm-94.8.221c1.319.365,2.576-.463,3.855-.2.423.086,1.3.857,1.491.871.352.029,1.388-.728,1.833-.829a26.514,26.514,0,0,1,9.026-.178c1.489.208,1.718-.473,3.017-.8,1.351-.345,3.271-.079,4.694-.174,3.346-.224,6.691-.065,10.015-.31,3.412-.251,6.808-.387,10.222-.563,2.325-.119,7.914-1.447,9.841.28,1.59,1.424-.458,3.9-2.048,4.459-1.189.421-1.759-.466-2.641-.381-1,.1-.655,1.284-1.552.182-.556,1.1-4.05.628-5.051.7-2.182.158-4.028.6-5.513-1.44q.151.88.3,1.761a8.255,8.255,0,0,0-5.793-.349c-.847.181-3.445,1.437-4.362.9-.631-.372.481-1.01-.584-1.328-.558-.166-1.522.76-2.2.714-1.887-.13-1.351-1.4-3.205.216a2.649,2.649,0,0,1-.754-2.257c-1.346,1.148-1.234,3.062-3.641,2.712-.9-.13-1.061-1.046-1.529-1.214-1-.36-1.109.287-1.972.8a3.124,3.124,0,0,1-1.107.543,1.3,1.3,0,0,1-1.021-.272,4.345,4.345,0,0,1-1.807.134c-.558-.171-.721-1.156-1.705-.926-.941.221-.949.86-.778,1.818a4.043,4.043,0,0,1-2.185-1.174c-.7,1.636-2.177.281-2.994,1.661-1.064-1.27-1.746-.92-3.066-2.16q.1.776.195,1.553c-1.03-.2-1.488-.925-2.366.036-.853-1.588-3.438.675-4.766-.859-.592,1.943-4.508,1.479-6.162,1.512a17.04,17.04,0,0,0-3.983.25,14.082,14.082,0,0,1-4.21.475,11.041,11.041,0,0,0-2.6-.127c-1.4.152-2.6.874-4.051.533-2.179-.515-3.514-3.377-1.088-4.634,1.661-.861,4.652-.542,6.48-.7,3.029-.263,6.423-.815,9.457-.564,2.366.2,4.522-.368,6.935-.607,1.817-.18,4.8-.5,5.981,1.3.455-.526.408-1.622,1.388-1.351Zm-33.158,24.653c-.325-1.62,13.522-2.512,14.9-2.618,2.886-.223,5.779-.381,8.672-.455,2.378-.061,4.6.393,6.975.029,2.221-.341,4.9-1.04,6.835.533.284-2.15,8.62-1.1,10.206-1.1,6.9.025,13.509.041,20.186-.387a104.76,104.76,0,0,1,11.685-.382c1.721.086,3.108.545,4.82.147,1.116-.26,2.32-.8,3.388-.036,1.25.895,1.784,3.93.923,5.2-.627.924-1.182.821-2.184.662-1.54-.245-2.684-.6-4.255.025.255-.1-1.052.19-.943.182-1.779.133-4.219,1.375-5.751-.057.614.108,1.506-.989.732-1.079-.582-.067-.95.556-1.4.765-1.552.714-2.346.491-3.273-1.007-1.869,1.618-2.071,1.17-2.891-.822-.631.487-.767,1.638-1.265,2.015-.074.056.232.755-.127.726-.333-.027-.442-.573-.7-.616-.164-.028-.249-.507-.406-.536s-.344.274-.536.265c-.514-.024-1.983,1.069-1.456-.465-.779.99-1.113.359-1.394-.542l-2.7,2.049c-.418-1.162-1.136-.845-2.041-.44.273-.806.1-1.569-.582-1.009-.4.325-.662,1.356-1.067,1.794-1.64-1.661-2.237-1.206-4.5-.989a4.172,4.172,0,0,1-2.713-.281c-.679-.459-1.064-2.145-2.226-.783.259-.3-.147,2.023-.219,2.393a5.068,5.068,0,0,1-1.306-1.274c-.669,1.324-2.424.136-3.863.406-2.265.426-4.6,1.143-6.6-.542-.142.544-1.78,1.237-1.782,1.258.1-.963.7-.625-.537-.808-.229-.034-.488.378-.7.423a10.6,10.6,0,0,1-2.35-.013c-3.1-.089-5.943.6-9.007.847a7.41,7.41,0,0,1-3.228-.14c-1-.4-.971-.858-1.982-.6.32-.082-.631.918-.58.88-.136.1-.7-.389-.9-.352-.059.213-.117.426-.176.639l-.731-.09c-.666.09-1.267-.585-1.893-.607.116,0-1.689.676-1.607.716-1.259-.628-.9-.446-2.5-.063-1.51.361-3.014.277-4.564.5-4.508.654-1.822-1.6-2.377-4.364Zm-3.981,22.537c-.847-1.2,1.408-1.618,2.128-1.724,1.185-.175,2.756.173,3.546-.016a35.781,35.781,0,0,1,3.716-1.153c1.708-.234,3.43-.272,5.144-.418a14.212,14.212,0,0,1,1.835-.213c.828.05,1.172.488,1.84.491,1.138.006,2.543-.713,3.71-.845,1.494-.17,3-.249,4.5-.323,3.163-.157,6.294-.092,9.455-.1,1.442,0,5.282-1.5,6,.18,1-1.271,3.564-1.1,4.994-1.135,2.517-.065,5.009-.308,7.525-.425,2.154-.1,4.561.361,6.676.038,1.166-.178,1.552-.551,2.874-.383.982.124,2.479-.394,3.323-.165-.044-.012,1.052.667.71.689.377-.025.354.238.77.121.546-.154.295-.839,1.425-1.083,1.762-.38,4.113.06,5.944-.038q2.665-.141,5.328-.127a14.763,14.763,0,0,1,2.627-.032c.391.078,1.22.587,1.55.536.938-.147,1.414-.8,2.681-.757a37.052,37.052,0,0,0,4.157-.083c1.382-.106,1.6-.3,2.29.847s.866,2.627-.384,3.4c.812-.053,1.811,1.034.854,1.636-.591.372-1.777-.467-2.485-.407-.872.075-1.557.536-2.506.565-1,.031-2.011.282-3,.3-1.025.02-1.8-.438-2.773-.243-.856.172-.946.873-1.976.258-.511-.307-.6-1.441-1.3-1.451-.937-.014-.563,1.195-1.1,1.755-.145-1.729-1.48,1.133-2.01-.967-.489.7-2.3,1.672-3.178,1.112-.8-.51-.535-1.666-.868-2.5-.554,1.5-2.043,3.047-1.908.324-.723.89-2.677.749-2.187,2.307-.589-.011-.728-.852-1.224-.916-.428-.055-.768.274-.833.269.235.02-.7.331-.715.334.633-.128-1.827-.348-1.408-.344-.571,0-1.269.463-1.937.461a16.825,16.825,0,0,1-1.812-.309c-1.556-.178-1.232.164-2.209.652-.362.181-.453.488-.967.45-.379-.029-.521-.523-.564-.528-.533-.054-.139-.233-.967-.15l-.284.489a.911.911,0,0,1-1.163.288c-1.225.263-5.288,1.4-4.89-.707l-1.868.913c-.267-1.7-3.649.554-4.405.668-.969.145-1.058-.227-1.975-.425-.165-.036-.5.509-.884.431-1.005-.2-1.185-.3-1.357-1.394-.717,1.34-1.313.741-2.613.961-.288.049-.471.615-.885.517-.3-.07-.306-.614-.51-.685-.185-.063-.157-.493-.43-.553-.312-.071-1.375.8-1.681.936a5.156,5.156,0,0,1-2.491.655c-.831-.186-.461-.8-1.635-.732-1.852.109-2.624,1.684-3.776-.8-.52.995-.454,1.265-1.289,1.593a11.09,11.09,0,0,1-2.993-.041c-3.471-.128-6.883,1.055-10.324.744a16.292,16.292,0,0,0-4.315-.191c-1.6.261-3.173.643-4.8.8-.827.078-2.556.316-2.962-.742-.357-.931.976-1.566.229-2.625Zm6.806,38.181c-4.5,3.011-8.229,7.123-12.362,10.6s-7.432,7.372-11.159,11.238c-3.445,3.573-6.61,6.954-10.776,9.654-2.636,1.71-4.987,3.813-7.695,5.425-2.028,1.207-5.1,2.794-4.111-.9a73.031,73.031,0,0,1,4.512-11.14c2.311-5.022,4.64-10,7.141-14.925.939-1.851,1.465-3.694,2.956-5.168,1.622-1.6,2.757-3.7,4.534-5.216,7.47-6.378,18.728-1.45,26.96.425Zm14.12,2.162c-2.042,1.07-4.327,1.335-6.491,2.043-1.844.6-3.559,1.675-5.542,1.755,1.805-1.356,3.357-3.2,5.392-4.226,2.289-1.158,4.368-.315,6.642.428Zm89.62,8.919c-7.51-2.534-14.5-6.268-21.818-9.273-1.263-.519-11.139-3.771-10.938-5.319,6.921-1.268,14.048-3.444,20.985-1.071,6.311,2.158,11.444,7.334,16.329,11.666,1.275,1.131,9.158,6.278,8.452,7.918-.488,1.136-4.287.826-5.184.593a6.768,6.768,0,0,1-2.735-1.778,14.961,14.961,0,0,0-5.092-2.736Zm-13.865-42.338c1.141-1.05,1.824-2.642,2.913-3.611,1.4-1.245,3.659-.639,5.19.008,4.593,1.94,8.518,5.2,13.082,7.228a90.4,90.4,0,0,1,14,8.333c4.17,2.824,8.679,5.163,12.936,7.859,4.338,2.747,9.193,4.534,13.59,7.183,4.475,2.7,8.932,5.406,13.232,8.378,7.668,5.3,15.652,10.743,21.325,18.278a80.614,80.614,0,0,1,7.785,12.616c1.945,3.954,4.054,9.443,1.534,13.556-2.42,3.949-6.546,7.061-10.038,10.009-1.323,1.116-2.581,2.471-4.295,2.955-2.085.588-4.518.426-6.662.6a125.908,125.908,0,0,1-33.444-2c-10.894-1.976-21.833-3.084-32.811-4.458-6.193-.775-12.385-1.678-18.494-2.969-2.612-.552-5.269-1.188-7.824-1.94-2.231-.657-4.108-2.1-6.4-2.675-9.738-2.431-20.88-3.361-30.52-7.452,8.531-3.545,17.6-5.687,26.341-8.633,9.2-3.1,18.191-5.7,27.891-6.583a78.9,78.9,0,0,0,14.26-3.062c4.576-1.272,9.352-1.661,14.052-2.231,2.09-.253,8.055.126,8.747-2.606,1.031-4.068-4.829-4.537-7.327-4.173-3.544.516-6.467,1.4-9.179-1.506-2.77-2.97-5.461-6.009-8.28-8.941-5.229-5.435-10.617-11.723-18.008-14.161-9.017-2.975-19.472-.151-28.469,1.541-9.5,1.787-18.989,3.5-28.313,6.1-3.861,1.075-8.84,3.445-12.848,3.064a66.6,66.6,0,0,1-12.239-2.161,22.141,22.141,0,0,1-4.692-2.361,56.171,56.171,0,0,0-6.343-2.8,55.351,55.351,0,0,0-13.168-4.212c-3.917-.6-8.078-.96-11.875.414A24.718,24.718,0,0,0,138.17,253a85.774,85.774,0,0,0-7.469,10.31c-1.111,1.707-2.466,3.2-3.617,4.866-.966,1.4-1.53,2.959-2.552,4.322-2.287,3.048-3.84,6.947-5.226,10.493-1.54,3.938-3.251,8.622-2.883,12.906a19.107,19.107,0,0,0,.91,5.266c.8,1.91,1.933,1.861,3.57,2.581,2.814,1.237,3.6,4.658,7.238,3.991,3.41-.625,6.368-3.435,8.856-5.675,3.243-2.919,6.347-6,9.45-9.063a72.378,72.378,0,0,0,8.856-10.341,42.41,42.41,0,0,1,2.953-4.431c1.5-1.691,3.186-1.894,5.224-2.567,17.821-5.888,35.729-11.568,54.107-15.456,4.4-.932,8.841-2.133,13.167-3.373,4.587-1.315,6.963.075,10.749,2.577,7.909,5.23,17.258,8.914,26.066,12.325,2.773,1.075,7.188,1.143,9.356,3.262-12.85,1.958-25.1,5.728-37.491,9.481-6.111,1.85-12.292,3.454-18.426,5.224s-12.039,4.064-18.091,6.06c-6.023,1.986-12.389,2.8-18.47,4.628a164.41,164.41,0,0,1-18.762,4.293c-6.434,1.148-12.824,2.473-19.281,3.5-2.956.47-5.911.959-8.835,1.606-2.86.634-5.624,2.151-8.5,2.5-12.838,1.571-25.425,5.071-38.213,7.049-9.549,1.477-26.161,3.538-32.353-6.042-6.226-9.634,1.412-20.872,8.228-27.761a90.749,90.749,0,0,1,13.99-11.4c5.344-3.587,10.486-7.461,15.832-11.043,12.1-8.106,25.215-14.718,38.212-21.232,6.238-3.127,12.266-6.48,18.334-9.911,3.012-1.7,4.679,1.045,7.06,2.912,1.873,1.47,5.312,5.091,7.931,3.417q.151.9.3,1.809l2.3-1.05c.515,1.352.455,2.192,1.9,2.9.884.436,2.771.961,3.614.193l.516,1.6c.737-.056.88-2.165,1.018-2.659a9,9,0,0,0,5.23,3.908c.011-.12-.361-1.636-.345-1.645.7-.43,1.588,1.411,1.961,1.806,1.235,1.307,1.971,1.1,3.335.049.1.107.561,1.312.628,1.29.3-.094.856-1.162.917-1.258-.085,1.4,2.625,1.687,3.583,1.385l-.644-1.234c3.334-.445,4.644,3.1,7.845,2.918,2.366-.133.468-.65,1.807-1.664,1.17-.886,1.378,1.051,1.493.99a2.533,2.533,0,0,0,.519-.806c.433,1.659,3.88,3.147,3.524.419,1.356.543,2.318,1.443,3.819,1.633a27.489,27.489,0,0,0,5.592-.307,29.428,29.428,0,0,0,11.152-2.923,66.807,66.807,0,0,0,6.3-3.316c1.648-1.076,4.776-4.34,6.971-2.934-.562-1.658,2.084-.121,2.168-2.257l1.275.961c.255-.559.184-1.44.525-1.927.469-.669.7-.275,1.1-.651.447-.421.837-1.549,1.373-1.87.552-.331,1.2.063,1.8-.225.905-.44,4.8-4.733,4.141-1.055,1.674-.569.383-1.089.592-2.2.42-2.236,1.442-.627,2.461-.432,1.668.319,1.634-1.059,2.564-2.061.849-.915,2.445-1.325,1.9-2.914a1.91,1.91,0,0,1,.834,1.645ZM161.626,178.637c-1.314,1.463-2.3.838-3.758.623q-.235-.786-.8-.218a4.028,4.028,0,0,1-1.4.491,29.074,29.074,0,0,0-3.613.617c.034-.392.446-1.09.182-1.489a5.578,5.578,0,0,1-3.509,1.41c-1.226.013-3.378-.923-4.4.2q-.047-.653-.094-1.307a4.253,4.253,0,0,0-1.3,1,2.743,2.743,0,0,0-.536-1.656c-.81,1.666-1.7,1.706-3.271,1.069.221.089-1.575-.963-1.506-.671-.568-2.392,8.394-2.194,9.334-2.289,2.349-.237,4.7-.375,7.051-.591,2.231-.205,3.9-.553,5.442,1.309-.689-2.689,5.823-2.556,2.172,1.51Zm-102.743-41.7c.247,4.066,1.151,8.387-.43,12.3a22.146,22.146,0,0,1-6.537,8.75c-5.592,4.2-10.331-.94-11.11-6.592-.811-5.9.8-13.1,5.873-16.733,3.033-2.171,5.97-2.021,9.462-1.307.82.168,2.151.1,2.62.918.11.191.011,2.66.121,2.663ZM133.152,191.1a16.1,16.1,0,0,0-2.828,1.436c-.3.231-.4.755-.711.949-.571.353-1.388.119-1.983.411a28.959,28.959,0,0,1-2.863,1.614,45.487,45.487,0,0,0-4.908,2.421c-2.739,1.428-5.678,2.654-8.542,3.817-1.446.587-5.443,1.731-5.3,3.847-.323.087-.654-.62-1.329-.563-.927.077-2.151,1.149-3.114,1.412-1.8.493-3.193.536-3.193,2.831-.573-.39-.718-1.342-1.481-1.468-.858-.142-1.219.783-1.905,1.071-.808.339-1.813.014-2.614.375a6.291,6.291,0,0,1-1.167.969,4.448,4.448,0,0,1-1.3-.04c-1.7.36-3.263,1-4.966,1.331-1.66.324-2.8.442-2.1,2.4-1.775.348-2.209-1.537-4.213-.848a55.321,55.321,0,0,1-7.314,1.968c-1.307.263-2.673.849-3.99.987-.939.1-1.816-.238-2.741-.133a31.332,31.332,0,0,1-3.165.661,17.474,17.474,0,0,1-3.318-.37,7.469,7.469,0,0,0,.57,1.246c-.743-.156-1.086-1.049-1.716-1.181-.661-.139-1.253.544-1.8.393-.235-.065-.078-.787-.5-.926-.382-.125-.544.023-.922-.037a8.517,8.517,0,0,0-1.965.028c-.441.234.005.673-.082.738-1.491,1.1-1.509.508-2.174-.645-.976-1.692-2.153-.624-3.927-.92-1.977-.33-3.534.542-5.48.418-2.1-.134-4.565-1.7-6.421-2.621-4.007-1.98-7.914-3.855-11.279-6.854A55.268,55.268,0,0,1,7.321,184.49c-3.39-8.869-4.033-18.118-3.761-27.527a131.483,131.483,0,0,1,1.508-16.906c.614-3.847.743-10.682,5.08-12.434.746,9.007-1.607,18.185-.123,27.134.447,2.7,1.536,6.287,3.6,8.283,3.053,2.955,3.767-1.317,4.044-3.676.514-4.382,1.469-8.74,2.145-13.1s1.153-8.768,2.092-13.082c.342-1.573,3.1-13.091,5.131-12.546-.41,8.379-1.5,16.614-1.542,25.025-.017,3.373-.319,6.936.168,10.287.25,1.724,1.821,6.785,4.522,6.363,2.5-.391-.248-3.955-.482-5.329-.618-3.638.17-8.165.746-11.777a47.746,47.746,0,0,1,7.5-19.545c3.562-5.114,9.047-9.983,15.655-9.081,2.823.386,5.026,1.087,6.445,3.665,1.113,2.023,5.5,4.322,2.956,6.855-2.313,2.306-6.054.46-8.625-.089a11.864,11.864,0,0,0-9.155,1.981c-4.517,3.165-7.092,8.822-7.932,14.128C36.161,150.271,39.188,169,50.338,164.8c7.407-2.788,12.986-12.818,12.364-20.5-.249-3.074-1.451-8.909,2.8-9.739,5.448-1.063,6.218,4.943,5.667,8.845-.8,5.677-3.8,10.956-7.235,15.445-2.991,3.912-6.471,6.358-10.071,9.589-1.066.957-3.784,3.107-3.328,4.886.5,1.95,4.773,2.5,6.484,2.825,8.463,1.584,18.007.127,26.456-.979,17.365-2.274,34.5-7.874,48.74-18.172.576,6.371,1.3,12.721,1.567,19.116.13,3.1.163,6.253.517,9.339.219,1.9,1.008,4.552-1.149,5.642ZM85,213.3c-.682.356.055-1.8-.134-1.087q1.528.547.134,1.087Zm72.035-77.1c1.083-1.193,4.039-4.03,4.977-1.337.349-1.148.394-2.848,1.742-1.3.537-1.9,6.456-1.726,7.923-1.81,4.695-.268,9.409-.412,14.087-.878,9.614-.958,19.395-.464,29.043-.5a42.078,42.078,0,0,1,6.247.183c2,.293,4.105,1.113,6.145.814,1.814-.267,3-.767,4.87-.553a56.056,56.056,0,0,0,6.656.43c9.969-.037,19.932.367,29.9.383,1.944,0,4.271-.377,6.095.449.675.306,1.413,1.324,1.929,1.436.591.128.24-.795,1.031-.378,1.06.558.239,2.272-.461,2.544.419-.163-.757-.323-.639-.329-.558.03-1.035.458-1.634.431a4.922,4.922,0,0,1-2.413-1.087c-.012.2.392,1.535-.07,1.6-.4.058-.77-1.257-.81-1.564-2.23,1.967-4.593.87-7.361,1.12-1.963.177-6.057,1.486-7.427-.563a2.085,2.085,0,0,1-.524,1.144q-.587.895-1.016-.154c-.1,0-1.051.212-1.069.211-.671-.053-1.542-.294-2.225-.353-1.057-.09-.862.679-1.7.692-.46.006-1.632-.658-2.433-.7-1.388-.073-2.806.516-4.176.338-.943-.123-1.8-.89-2.72-.92-1.153-.038-1.526.841-2.439-.394-.188-.05-.3.676-.378.688.018,0-.869.128-.974.169a6.27,6.27,0,0,1-1.107.4c-.466.009-.719-.325-1.213-.333-.818-.014-3.428.705-3.355-.807-2.917,1.081-5.407.66-8.4.915a11.349,11.349,0,0,1-3.545-.318c-1.637-.316-2.724.081-4.357.161-1.569.077-2.064-.587-3.388-1.186-.523-.236-.868-.548-1.509-.417-.365.075-.105.69-.213.732-.563.217-.956-.013-1.727.039-1.425.1-1.992,1.288-3.456.17l1.46-.178c-1.4-.594-3.249-.9-2.909,1.265-1.195-.167-.161-.98-.748-1.272s-1.245.2-1.984.436c-1.953.633-3.581.319-5.617.205-2.313-.129-7.726,1.759-9.383-.693-.049.517-.6,1.956-1.342,1.888-.24-.022.431-1.55.506-1.712-.38.81-2.114.963-2.969,1.383l.287-1.3c-.793.845-1.179.329-2.113.612-.408.123-1,.965-1.348,1.016a1.681,1.681,0,0,0-1.533-.609,3.1,3.1,0,0,0-1.228-.06c-1.639.119-3.132,1.03-4.762.41-1.411-.538-1.957-1.92-2.8.279l-.664-1.173-.819,1.273c-1.068-.7-1.133-1.1-2.362-.847a1.056,1.056,0,0,1-.887-.048l-.217.646q-.044.812-.482.536a1.979,1.979,0,0,1-.666-.4,13.522,13.522,0,0,1-2.723.157c-.337-.045-2.447-1.159-2.6-.986Zm24.871-14.555.287.44c-1.32.7-1.63.3-1.766-1.1.645.012.755,1.146,1.479.662Zm.818-.821c.635.28,1.364.831,1.962.093.4,1.171-2.589,2.769-1.962-.093Zm4.1.517c1.334.9-1.866.177-1.861.179a1.407,1.407,0,0,1,1.861-.179ZM198.3,116.31c.457,2.308,1.719,2.242,3.756,1.17,2.97-1.565,3.471-4.128,3.678-7.189.2-2.934.557-4.07,3.583-3.457,2.112.428,3.9.068,6.028.009,2.272-.063,3.073.284,3.255,2.622a8.58,8.58,0,0,0,2.3,5.9,19.331,19.331,0,0,0,6.275,3.906,10.875,10.875,0,0,0,3.516,1.194c.495.044,3.07-.282,3.124.533.04.613-3.526,2.341-3.905,2.546A26.951,26.951,0,0,1,224.8,125.8c-4.157,1.254-8.564,1.329-12.87,1.252-6.942-.122-16.537-3.058-20.688-9.217l7.059-1.523Zm-.623-19.989a25.319,25.319,0,0,1-2.722-3.406,4.225,4.225,0,0,0-1.235-1c-.461-.29-.721.12-1.105-.562-.994-1.762,2.073-4.243-1.18-4.921-1.1-.23-3.75.642-4.071-.935-.454-2.23,3.8-2.376,4.8-3.508,1.991-2.25.64-6.065,1.852-8.661,1.148-2.46,4.112-2.9,6.451-3.635,3.259-1.029,6.558-1.626,9.867-2.449,2.314-.576,6.158-2.889,8.3-.845-3.312.736-1.387,1.889.821,2.541a38,38,0,0,0,7.74,1.232,29,29,0,0,0,8.019-.28c2.436-.492,5.158-2.61,7.712-2.067-1.417,2.464-5.64,3.811-8.206,4.457-1.308.329-2.145.226-1.969,1.856.17,1.58,1.544,3.164,1.854,4.81a11.215,11.215,0,0,1-.723,6.228c-.763,2.015-.941,2.278-.274,4.2,1.039,3-1.194,6.313-3.257,8.491-8.344,8.805-24.313,5.47-32.68-1.551Zm21.2-52.626c.034.09.005.056,0,0Zm2.6,22.222c-.346.259-2.339.8-2.255.022.112-1.043,1.907-.666,2.255-.022Zm4.541-21.077c-.468-.348-1.777-.205-.82-1.526l.82,1.526ZM194.6,36.488a23.282,23.282,0,0,0,1.525-4.637c.166-1.015-.164-2.175,1.256-2.334-1.809-.789-1.828-3.9-1.935-5.517-.147-2.223-.849-5.2.128-7.269,1-2.126,2.356-2.09,2.764.441.16.991-.452,1.312-.567,2-.227,1.366.225,1.066,1.106.026.363,1.057.5,2.646,1.983,2.579-.1-.286-.665-.917-.476-1.272.291-.546,1.713.288,1.893.414,1.3.908,1.58,1.737.654,2.882,1.282.138.206,1.26,1.033,1.553,1.262.446.416-1.668.279-2.04a3.157,3.157,0,0,1,1.513,1.249,12.927,12.927,0,0,1,.781,1.3q.392,1.232,1.615.617c1.635.513,3.892.433,5.357,1.329.669.41.911,1.306,1.471,1.646.629.383,1.472.209,2.148.45q-.371.842.6.913a5.459,5.459,0,0,1,1.459.339,4.462,4.462,0,0,1,1.148-.627.8.8,0,0,0,1.178.364A5.856,5.856,0,0,1,224.7,32.6c.861.765.16.827,1.1.76.379-.027,1.042-.67,1.908-.544a6.478,6.478,0,0,1,1.442.461,1.28,1.28,0,0,0,1.594.162c.913.446,1,1.237,2.116,1.345,1.231.12.835-1.415,1.681.75,1.138-2.295,1.555,1.361,2.731,1.656,1.217.306,1.349-.681,2.391.4.312.323.295.857.645,1.2.575.561,1.352.449,1.851,1.214-.278-.427.066,1.513.06,1.449.078.856-.683,1.815.876,1.742-.018.09-.767,1.181-.913,1.058-.036-.125-.066-.251-.09-.378-.167.072-.241,1.112-.21,1.3q.2.031.162-.295c-.256.8.13,1.311-.362,2.072a5.725,5.725,0,0,1-1.636,1.153c-1.105.725-2.187,1.452-3.265,2.223-2.515,1.8-5.33,3.969-8.5,4.344,1.591-1.562,10.741-7.471,6.151-9.167a15.044,15.044,0,0,0-3.291-.678c-1.107-.082-2.252.552-3.473.156-1.474-.477-.919-1.862-1.819-2.359-1.912-1.054-1.46,1.425-2.062,2.074-.632-.663-.5-.986-1.494-1.046-1.014-.061-1.254.875-2.437.292-1.629-.8-.767-2.405-3.077-2.443.039-.352.374-1.334-.067-1.608-.594.771-.134,1.633-.686,2.375a2.674,2.674,0,0,1-1.313.79c-1.025.281-1.171.82-1-.722-.759,1.368-3.087.805-4.472.668a31.781,31.781,0,0,1-6.8-1.372c-2-.668-3.062-1.815-4.708-2.859-.623-.4-.919-.244-1.812-.489s-1.739-.711-1.325-1.791Zm4.75-24.215c.34-.2.584,2.85.172,3.421-.754-1.193-2.091-2.943-.172-3.421Zm1.085-1.219c1.093-.989.334,1.566.133,1.994l-1.214-.779c.516-.317.646-.821,1.081-1.216Zm41.233-4.117c10.1,2.119,20.1,6.079,28.2,12.6,7.377,5.937,12.583,14.36,15.5,23.32,3.03,9.3,2.012,19.618-5.2,26.736-3.8,3.749-8.812,6.011-13.591,8.218-2.29,1.057-4.648,1.938-6.946,2.972-1.651.742-3.667,1.929-5.551,1.723.961-1.011,2.355-1.032,3.519-1.65,1.406-.747,2.553-2.182,3.765-3.207s3.871-4.222,5.719-3.446c-.257-1.707,1.688-2.5,2.565-3.625.927-1.191.994-2.583,2.7-2.973-1.835-1.436-1.273-4.143-.874-6.1a58.409,58.409,0,0,0,.948-7.336c.362-4.584.655-10.425-1.879-14.455-.822-1.309-1.869-2.511-2.6-3.871-.884-1.638-.689-3.08-.689-4.876-1.616,1.086-1.957-1.128-2.64-2.207-.512-.81-1.185-1.262-1.35-2.281-.12-.741.684-.867.243-1.644a3.911,3.911,0,0,0-1.03,1.629c-.5-.2.089-.895-.2-1.12a7.95,7.95,0,0,0-.923-.364,10.025,10.025,0,0,1-1.123-3.024c-1.135.575-.923.507-2.189-.453a8.346,8.346,0,0,1-1.442-1.2c-.49-1.187.368-.484.128-1.221-.689-2.116-4.559-1.716-4.866-4.887-1.887,1.2-2.606-.5-3.722-1.707-1.143-1.237-3.061-1.712-2.958-3.674l-1.781.608c.309-1.81-2.381-1.695-3.355-2.613a12.2,12.2,0,0,1,1.613.127ZM243.2,119.053c.936-.837.652.277,1.254.15.515-.109.617-.5,1.11-.618,2.035-.492,5.076.126,7.216.02,2.478-.122,6.725.392,7.906,3.291.711,1.746-.374,1.152-1.57,1.022a26.114,26.114,0,0,0-2.669.078,4.009,4.009,0,0,1-1.356-.021.855.855,0,0,1-.39-.611c-1.277-.193-2.633.562-4.047.6a6.811,6.811,0,0,1-5-1.586,2.363,2.363,0,0,1-1.984,1.366c-.027,0-1.028-.4-1.183-.441-.2-.053-.724.377-1.12.254.7-1.118.8-2.586,1.831-3.5Zm128.885,10.09c.333-1.159.611-2.333.915-3.5a50.7,50.7,0,0,1,10.569,19.2c1.191,4.419,3.046,12.427-2.635,14.706-4.627,1.856-7.207-4.8-8.378-8.077a36.263,36.263,0,0,1-.471-22.332Zm-208.4-83.091c.06-.012-3.015,1.777-2,.328a4.232,4.232,0,0,1,2.635-.992Zm-2.958.758q-.534.449-1.078.887l-1.045-1.65c.686-.29,3.6-.507,2.122.764Zm-2.167,55.608c-.644-.436-1.154-.2-1.347.527,0-.728.379-2.419.961-2.616.377-.128-1.251-2.054-.793-2.558,1.163.666.467,1.3.808,2.165.154.388.616.755.717,1.054.171.506.866,2.247-.346,1.428ZM155.4,98.084c-.659.169.5,1.256.494,1.737,0,.363-.437.643-.618,1.14-.39,1.078.282,1.806-.824,2.629,0-2.362-1.585-8.62,1.461-9.771-1.486-1.17-.265-2.521.9-1.121,1.12,1.346.407,4.921-1.411,5.386Zm-1.587-9.32c-.6-2.123-2.4-2.865-4.46-2.74.078-1.087.9-2.654,1.5-.695a3.591,3.591,0,0,1,.972-1.718c.939,2.945,5.623,4.572,2.707,7.763-.238-.87-.47-1.742-.715-2.611Zm-5.442-2.581c-10.845.786-26.071,3.037-34.749-5.276-5.658-5.42-5.356-13.861-.783-19.883,2.61-3.436,6.172-5.856,9.75-8.161a17.136,17.136,0,0,1,4.066-1.989,1.05,1.05,0,0,1,.692.164,1.189,1.189,0,0,1,.62-.814c.585-.313,1.419-.425,1.756-1.075a20.869,20.869,0,0,0-.677,3.742l-.876-1.02c-.244,2.3-2.642.908-4.073,1.2.943,1.305,1.618,1.779,1.7,3.5A5.989,5.989,0,0,0,122.262,54c.742,2.193,1.265,3.5.519,5.9-.9-.515-.963-1.752-2.057-2.048-.288,1.434-.34,3.025-.709,4.418-2.8-1.278-2.528,2.163-1.4,3.866.6.906.892,1.955,1.425,2.824,1.309,2.133.314-1.057,1.77-.905-.327,2.25-.44,2.474,1.206,4.121,1.606,1.606,2.44,3.835,4.158,5.345.5-.636-.285-1.3-.353-1.91,1.6.268,2.348,1.872,3.885.451.67,1.307,1.4,2.745,3,3.014-1.061-2.018,2.038-.65,2.833-.363.6.217,1.683.39,1.916.473,1.31.473.411-.376,1.206,1.175,1.167-.352,1.608-1.321,3-.5,1.135.665,1.138,1.8,1.4,2.972.271-.764.544-1.527.843-2.28a6.1,6.1,0,0,1,1.444,1.541c2.991-.147,2.885,1.71,2.028,4.087ZM133.148,48.109c.6-.421,1.334.14,2.009-.011.934-.208,1.464-1.008,2.507-1.094-.29.928-.835.841-1.3,1.569-.157.248-.076.844-.215.986-1.17,1.2-1.573.221-2.767-.686.1,1.093.314,1.438-.716,1.732-.932.266-2.47-.713-2.94-1.464.4-.793,2.7-.527,3.417-1.032Zm7.441-1.708c1.013.1-.207,3.084-1.658.186a8.131,8.131,0,0,1,1.658-.186Zm5.207-.578c1.6-.326,6.923-1.844,7.516.642.106-.062.5-1.465.687-1.294a2.976,2.976,0,0,1,.764,2.549c-.892-1.857-.575-.226-1.179-.353-.157-.034-.4.261-.8.14-.524-.16-.9-1.274-1.23-1.651-.55.786-1.233,1.8-2.335,1.73-.781-.048-2.038-2.057-1.027.142a4.692,4.692,0,0,0-1.941-.551c-.74.1-1.125.83-1.818.948-1.538.261-1.77-1.219-2.768-2.023a28.934,28.934,0,0,0,4.13-.278Zm9.661-.024c.113-.51,1.51-.716,1.866-.554.868.395.548.915.388,1.782l-1.933-.915c.962,1.549-.781,1.774-.32-.313Zm270.511,90.738a50.051,50.051,0,0,0-1.163-11.1c-.659-2.529-2.277-7.065-5.337-7.5-4.615-.662-7.171,8.46-8.464,11.591-.259-3.686-.033-7.61-1.425-11.109-1.115-2.8-3.932-5.459-6.357-2.31-2.159,2.8-2.574,6.939-3.142,10.311-.736,4.369-1.178,8.771-1.716,13.167-2.108-4.074-2.476-8.737-4.143-12.971a61.684,61.684,0,0,0-6.43-11.365,23.33,23.33,0,0,0-7.362-7.406c-2.654-1.545-7.295-3.215-9.824-.65-2.111,2.14-1.78,5-1.67,7.7.049,1.2.237,2.028-.821,2.633-.519.3-1.331.144-1.9.3a7.1,7.1,0,0,0-2.4,1.271c-5.458,4.057-7.974,11.368-8.752,17.885-.986,8.258,2.233,15.338,5,22.894.441,1.2,1.843,3.759,1.65,5.1-.212,1.473-2.061,1.512-3.309,1.542a98.655,98.655,0,0,1-11.455-.539c-8.926-.835-17.844-5.132-25.837-8.969-1.458-.7-3.521-1.1-4.711-2.2-1.119-1.036-1.414-2.7-2.38-3.886-2.37-2.917-3.88-5.406-7.371-7.168-3.554-1.794-7.181-3.452-10.649-5.418-4.288-2.431-8.251-5.511-12.36-8.233-7.637-5.058-15.223-10.6-23.32-14.9-3.762-2-7.967-2.323-11.873-3.959A20.348,20.348,0,0,0,236,110.656c-1.933.491-3.249,1.653-5.028,2.411-2.084.89-3.785-.092-5.618-1.153-2.8-1.622-5.58-4.263-1.59-6.013,1.354-.594,3.05-.819,4.232-1.752,1.261-.994,2.272-2.829,3.3-4.074,2.279-2.769,3.639-5.956,6.974-7.678,3.688-1.9,8.059-2.423,11.992-3.667,4.261-1.348,8.432-2.951,12.613-4.525,7.533-2.835,15.365-5.9,20.778-12.139a28.121,28.121,0,0,0,6.515-19.4c-.385-14.432-8.116-29.079-19.208-38.1C257.358,3.5,240.055-.186,222.874.007,214.81.1,205.188,1.153,198.46,6.053c-5.812,4.232-6.778,11.633-5.914,18.313.351,2.711,1.55,6.289-.362,8.679-1.07,1.337-2.991,1.667-4.432,2.5a22.356,22.356,0,0,1-5.461,2.6c-8.716,2.354-17.9,1.534-26.806,1.4-14.844-.217-30.06,3.8-41.134,14.262-8.943,8.446-11.624,24.372-.718,32.607,8.812,6.652,22.634,5.92,33.023,4.76,3.222-.36,5.437-.884,5.445,3.058.008,4.306-.7,8.806.393,13.034,1.73,6.658,8.128,6.816,13.783,5.383a61.847,61.847,0,0,0,8.7-3.086c4.156-1.747,7.967-4.316,12.072-6.06,2.783-1.182,4.867,2.641,7.336-.009.456-.49.54-1.22,1.228-1.471,1.078-.392,2.887.984,3.833,1.419,1.416.652,2.844,1.132,3.409,2.7a9.081,9.081,0,0,1-.21,5.252c-1.1,3.149-4.067,2.526-6.775,2.316-4.723-.368-9.414-1.147-14.135-1.474a20.839,20.839,0,0,0-11.856,3.061c-7.674,4.387-13.952,11.365-20.606,17.1a127.462,127.462,0,0,1-10.459,8.715,34.335,34.335,0,0,0-4.78,3.536c-1.4,1.378-1.55,2.632-2.028,4.466-.851,3.266-5.075,4.863-7.715,6.586a55.419,55.419,0,0,1-11.878,5.652,164.789,164.789,0,0,1-27.066,7.011c-4.537.8-9.037,1.327-13.618,1.759-3.949.372-8.149,1.589-12.093.617,1.136-1.843,3.149-2.949,4.717-4.374a34.761,34.761,0,0,0,5.27-6.266,30.349,30.349,0,0,0,5.546-14.425c.432-4.792-.064-10.524-2.955-14.573-1-1.4-2.974-1.779-3.869-3.039s-.55-3.408-1.036-4.868a23.665,23.665,0,0,0-8.151-10.472,15.966,15.966,0,0,0-12.7-1.981c-7.512,2.26-12.126,10.287-15.564,16.776-1.878-3.951,1.267-9.813-2.4-13.049-3.094-2.73-5.55,2.558-6.584,4.82-4.857,10.619-5.961,21.881-8,33.242-.829-.817-.4-2.915-.326-3.891.145-1.815.132-3.6.135-5.419.01-4.605.866-9.232.474-13.833-.227-2.66-1.075-8.268-4.939-7.384-3.277.749-5.33,5.358-6.36,8.175a32.976,32.976,0,0,0-1.736,12.38c.1,4.743-.8,9.409-1.02,14.146-.426,9.2-.005,18.322,2.635,27.2a58.314,58.314,0,0,0,51.283,41.029,78.186,78.186,0,0,0,13.358-.708c4.42-.461,8.864-.674,13.276-1.215a94.3,94.3,0,0,0,28.333-8.5c4.7-2.2,9.123-4.909,13.747-7.258a24.661,24.661,0,0,0,4.693-3.432,4.443,4.443,0,0,1,3.79-1.4c-.524-1.4,1.005-1.833,1.685-2.72q-.057.645-.115,1.29.778-1.687,1.448.033c.442-1.284.769-2.6,1.3-3.855,2.038,1.032,1.867,3.484,4.593,1.693,2.245-1.474,4.309-3.212,6.6-4.656,5.213-3.29,9.707-7.572,14.935-10.825a71.4,71.4,0,0,1-.2,9.515,53.644,53.644,0,0,1-2.412,8.667c-1.641,5.294-1.755,10.951-3.573,16.191-.752,2.17-2.712,3.985-3.274,6.1-.573,2.155.75,3.882-1.468,5.3a24.74,24.74,0,0,1-5.25,2.022c-2.642.921-5.15,2.22-7.721,3.322-12.061,5.168-23.825,10.431-35,17.38-10.6,6.594-21.371,13.4-31.112,21.235-8.454,6.8-17,15.584-19.058,26.671-2,10.754,3.324,22.3,14.007,25.839,5.555,1.841,11.836,1.613,17.621,1.693,6.225.085,12.821-1.414,18.941-2.5,6.463-1.146,12.816-2.94,19.3-3.964,6.219-.982,11.924-3.178,18.041-4.531,6.516-1.441,13.2-2.223,19.75-3.519,2.95-.584,5.84-1.445,8.8-1.985,3.238-.592,6.512-.814,9.718-1.6,6.219-1.521,12.174-3.971,18.421-5.385,2.809-.636,5.574-1.487,8.383-2.082,2.587-.547,4.6-2,7.195-.807,2.094.965,3.764,2.619,5.747,3.771,2.571,1.495,5.281,2.834,7.961,4.119a152.671,152.671,0,0,0,16.6,6.31c5.914,2.038,11.723,4.362,17.85,5.708,6.282,1.38,12.69,1.764,19.015,2.855a235.946,235.946,0,0,0,38.948,3.319c6.646.042,13.292-.746,19.923-.653,5.87.082,10.973,1.406,16.341-1.715,8.577-4.987,18.525-12.5,18.315-23.408-.192-9.881-6.119-19.322-11.679-27.115-6.752-9.465-16.378-16.129-25.812-22.658-10.055-6.957-21.35-11.765-31.918-17.838-5.4-3.106-10.39-6.448-16.258-8.655-2.8-1.054-5.535-2.274-8.3-3.409-2.228-.913-5.444-1.417-7.351-2.931-1.19-.945-1.3-2.376-1.618-3.78a79.017,79.017,0,0,0-2.849-9.055,92.883,92.883,0,0,1-4.285-17.756c-.838-5.788-2.7-11.807-1.735-17.689,6.339,6.131,12.852,12.025,19.337,17.994,2.43,2.237,4.815,4.521,7.259,6.744,1.834,1.669,4.128,4.148,6.685,4.644,3.265.633,2.072-2.979,4.314-3.539,1.37-.342,5.5,3.14,6.586,3.827,6.866,4.359,14.47,7.122,22.022,10.089,7.919,3.111,16.064,5.874,24.586,6.658a65.153,65.153,0,0,0,23.516-2.349c15.127-4.271,26.259-14.4,34.428-27.539,9.308-14.968,16.082-32.5,15.534-50.369Z" fill-rule="evenodd"/><path d="M194.77,103.908l-.026.054c.029-.02.037-.038.026-.054" fill-rule="evenodd"/><path d="M195.5,104.1a5.316,5.316,0,0,0-.367-1.4c-.5.794-.949,1.134-.291,1.975l.658-.574" fill-rule="evenodd"/><path d="M230.384,217.571c.56-.6-.42-.82-.792-.828.037.639-.28,2.172.595,2.468a1.744,1.744,0,0,1,.2-1.64" fill-rule="evenodd"/><path d="M215.607,92.848c-.963,1.859,1.164,2.436,2.395,1.538a5.789,5.789,0,0,0,1.626-3.5c.492-3.574-2.008-6.975-3.255-10.146-.322-.82-.764-3.631-1.8-3.708-1.192-.088-1.28,2.5-1.3,3.168a18.171,18.171,0,0,0,1.113,5.967c.673,2.05,2.342,4.51,1.218,6.682" fill-rule="evenodd"/><path d="M220.185,85.392c3.7,3.295,6.66-2.193,6.4-5.439-.064-.8-.607-3.77-2.132-2.691-.767.542-.113,2.3-.478,3.077-1.77,3.751-3.475-2.067-4.666-2.523-1.45-.556-1.6,1.349-1.594,2.367a7.032,7.032,0,0,0,2.469,5.208" fill-rule="evenodd"/><path d="M206.753,85.9a11.761,11.761,0,0,0,2.062-4.857c.184-2.556-1.305-2.343-2.531-.559-.866,1.26-1.516,3.4-3.427,2.865-2.359-.655-1.639-3.828-2.96-5.336-3.336,4.481,2.977,13.995,6.856,7.887" fill-rule="evenodd"/><path d="M211.753,99.616c1.38.3,4.977.188,3.731-1.924-1.572-2.661-6.8,1.261-3.731,1.924" fill-rule="evenodd"/><path d="M260.09,20.254c.253-.752-.094-.889-.7-1.481-.57.526.16,1.08.7,1.481" fill-rule="evenodd"/><path d="M285.826,156.487q1.366.217.879-1.445-2.155-.14-.879,1.445" fill-rule="evenodd"/><path d="M236.12,40.274c1,.459.619,1.4.6,2.2.517-.562,1.562-1.59,1.137-2.4-.656-1.245-2.368-.087-1.739.2" fill-rule="evenodd"/><path d="M201.918,24.606l-.459-.9c-.624.5-1.587,1.824-.6,2.468a9.553,9.553,0,0,0,1.054-1.573" fill-rule="evenodd"/><path d="M213.966,33.388c1.249.98.65-2.027.612-2.273-.186.353-1.244,1.778-.612,2.273" fill-rule="evenodd"/><path d="M213.273,31.861c-.1-.248-.192-.5-.287-.746-.506.469-1.127,1.426-.29,1.975a6.906,6.906,0,0,0,.577-1.229" fill-rule="evenodd"/><path d="M221.207,42.187l.306.283a.941.941,0,0,0-.835-1.481,2.125,2.125,0,0,0,.529,1.2" fill-rule="evenodd"/><path d="M187.732,135.7a8.072,8.072,0,0,0,1.35-1.154c-1.467-.9-.587,1.047-2.353-.147-.38.526.241,1.7,1,1.3" fill-rule="evenodd"/><path d="M249.363,217.236c.557-.856.658-.831-.1-1.481-.635,1.057-.569.786.1,1.481" fill-rule="evenodd"/><path d="M132.8,81.016l.911.95c.142-.414.915-1.585.39-1.975l-1.3,1.025" fill-rule="evenodd"/><path d="M143.6,84.149c-.485-.081-1.644-.434-1.913.016.709.582,2.309.051,1.913-.016" fill-rule="evenodd"/></g></g></g></svg>