<svg xmlns="http://www.w3.org/2000/svg" xmlns:xlink="http://www.w3.org/1999/xlink" width="26" height="26" viewBox="0 0 26 26"><defs><clipPath id="a"><rect width="26" height="26" fill="#ff3535" stroke="#000" stroke-width="0.5"/></clipPath></defs><g clip-path="url(#a)"><path d="M11,0A11,11,0,1,0,22,11.043,11.075,11.075,0,0,0,11,0Zm1.934,20.518a9.765,9.765,0,0,1-3.867,0V17.5a1.833,1.833,0,0,1,.451-1.328,14.1,14.1,0,0,0,.8-1.173l-.992-.155c-2.552-.374-3.558-1.7-3.957-2.733a4.384,4.384,0,0,1,.683-4.2A.777.777,0,0,0,6.2,7.163a3.8,3.8,0,0,1-.039-1.895,5.88,5.88,0,0,1,1.972.941.926.926,0,0,0,.541.129A9.368,9.368,0,0,1,11.013,6a7.9,7.9,0,0,1,2.153.309.93.93,0,0,0,.7-.1,5.726,5.726,0,0,1,1.972-.941A3.8,3.8,0,0,1,15.8,7.163a.776.776,0,0,0,.155.748,4.384,4.384,0,0,1,.683,4.2c-.4,1.031-1.405,2.359-3.957,2.733L11.683,15a13.786,13.786,0,0,0,.8,1.173,1.833,1.833,0,0,1,.451,1.328Zm1.289-.374V17.5a3.091,3.091,0,0,0-.361-1.586,5.513,5.513,0,0,0,3.97-3.352A5.668,5.668,0,0,0,17.1,7.279a4.272,4.272,0,0,0-.271-2.887,1.006,1.006,0,0,0-.851-.438h-.013a5.648,5.648,0,0,0-2.63,1.07,9.091,9.091,0,0,0-2.346-.309,8.9,8.9,0,0,0-2.307.309,5.7,5.7,0,0,0-2.694-1.07.989.989,0,0,0-.812.438A4.274,4.274,0,0,0,4.9,7.279a5.673,5.673,0,0,0-.735,5.285,5.513,5.513,0,0,0,3.97,3.352A2.8,2.8,0,0,0,7.8,17.045a1.718,1.718,0,0,1-1.058.087,1.426,1.426,0,0,1-.827-.708A2.65,2.65,0,0,0,3.54,14.954l.113,1.284c.46-.042.917.444,1.155.845a2.654,2.654,0,0,0,2.969,1.323v1.738a9.711,9.711,0,1,1,6.445,0Zm0,0" transform="translate(2 2)" stroke="#000" stroke-width="0.5"/></g></svg>