<svg xmlns="http://www.w3.org/2000/svg" xmlns:xlink="http://www.w3.org/1999/xlink" width="69" height="69" viewBox="0 0 69 69"><defs><clipPath id="a"><rect width="69" height="69" transform="translate(1277 357)" fill="#fff"/></clipPath></defs><g transform="translate(-1277 -357)" clip-path="url(#a)"><path d="M17.433,21.212a6.5,6.5,0,1,0-6.5-6.5A6.511,6.511,0,0,0,17.433,21.212Zm0-9.888a3.384,3.384,0,1,1-3.385,3.384A3.388,3.388,0,0,1,17.433,11.324Zm6.4,36.156a1.56,1.56,0,0,1-.144,1.2L16.968,60.527H18.5a1.56,1.56,0,0,1,0,3.12H14.287c-.019,0-.038,0-.057,0-.039,0-.078,0-.116-.007l-.074-.011c-.037-.006-.073-.013-.109-.021l-.066-.017c-.044-.012-.088-.027-.13-.043l-.04-.015a1.522,1.522,0,0,1-.167-.081l-.01,0c-.014-.008-.027-.018-.041-.026s-.053-.032-.078-.049-.041-.03-.061-.046-.039-.029-.057-.045-.044-.039-.065-.059l-.045-.043c-.021-.022-.041-.044-.061-.067s-.027-.031-.04-.047-.034-.045-.051-.068-.027-.037-.039-.056-.026-.043-.039-.064-.027-.046-.039-.07-.019-.038-.028-.057-.025-.055-.036-.083-.013-.035-.019-.052-.021-.06-.03-.091-.009-.036-.014-.054-.015-.06-.021-.091-.007-.044-.01-.066-.008-.055-.01-.082,0-.056,0-.084,0-.036,0-.054,0-.009,0-.014c0-.031,0-.062,0-.093s0-.043,0-.064.008-.051.012-.077.008-.052.013-.078.009-.033.013-.05c.008-.034.017-.068.028-.1,0-.009.007-.018.01-.027.014-.04.029-.08.046-.119l.01-.02c.019-.041.038-.081.06-.119l0-.006L20.2,48.511,11.263,43.6a1.559,1.559,0,0,1-.626-2.1,1.558,1.558,0,0,1,.052-.344L13.6,30.37a1.56,1.56,0,1,1,3.011.814L13.839,41.455l9.249,5.084A1.557,1.557,0,0,1,23.838,47.48ZM36.666,7.522,32.349,17.7c-1.685,3.973-4.706,9.254-11.456,9.254H15.9c-3.831,0-6.4,2.2-8.585,7.353L3,44.483A1.56,1.56,0,0,1,.124,43.265L4.441,33.087c1.686-3.973,4.708-9.254,11.457-9.254h4.994c3.831,0,6.4-2.2,8.585-7.353L33.794,6.3a1.56,1.56,0,1,1,2.872,1.218ZM49.532,21.212a6.5,6.5,0,1,0-6.5-6.5A6.511,6.511,0,0,0,49.532,21.212Zm0-9.888a3.384,3.384,0,1,1-3.385,3.384A3.388,3.388,0,0,1,49.532,11.324ZM57.011,41.5a1.559,1.559,0,0,1-.626,2.1L47.447,48.51l7.268,12.807,0,.006c.022.039.042.079.06.12l.01.02c.017.039.032.079.046.12,0,.009.007.018.01.027.011.033.019.067.028.1,0,.017.009.033.013.05s.009.052.013.078.009.051.012.077,0,.042,0,.064,0,.062,0,.093c0,0,0,.009,0,.014s0,.036,0,.054,0,.056,0,.084-.007.055-.01.082-.006.044-.01.066-.013.061-.021.091-.009.036-.014.054-.019.061-.03.092-.012.035-.019.052-.024.056-.036.083-.018.038-.028.057-.025.047-.039.07-.025.043-.039.064-.026.038-.039.056-.033.046-.051.068-.026.032-.04.047-.04.045-.061.067l-.045.043c-.021.02-.042.04-.065.059s-.038.03-.057.045-.04.031-.061.046-.051.033-.078.049-.027.018-.041.026l-.01,0a1.544,1.544,0,0,1-.168.081l-.038.014c-.043.016-.087.031-.133.044l-.064.016c-.037.009-.074.016-.112.022l-.071.011c-.039,0-.079.006-.118.007-.019,0-.037,0-.055,0H49.144a1.56,1.56,0,0,1,0-3.12h1.535L43.953,48.675a1.56,1.56,0,0,1,.605-2.137l9.25-5.084L51.03,31.182a1.56,1.56,0,1,1,3.011-.814l2.917,10.788A1.568,1.568,0,0,1,57.011,41.5ZM68.87,7.63,64.437,17.808c-1.729,3.967-4.824,9.24-11.719,9.24H47.59c-6.9,0-9.991-5.274-11.72-9.24a1.56,1.56,0,1,1,2.86-1.246c2.25,5.163,4.9,7.367,8.859,7.367h5.128c3.96,0,6.61-2.2,8.86-7.367L66.009,6.385A1.56,1.56,0,0,1,68.87,7.63Zm-27,34.31a1.56,1.56,0,0,1-2.448,1.934L38.085,42.18a1.56,1.56,0,0,1,2.448-1.934ZM31.334,31.57,30,33.264a1.56,1.56,0,1,1-2.448-1.934l1.338-1.694a1.56,1.56,0,1,1,2.448,1.934Zm35.951,0-1.338,1.694A1.56,1.56,0,1,1,63.5,31.33l1.338-1.694a1.56,1.56,0,0,1,2.448,1.934ZM1.046,20.311a1.56,1.56,0,0,1,2.448-1.934l1.338,1.694A1.56,1.56,0,1,1,2.384,22ZM6.17,53.391a1.56,1.56,0,1,1-2.448,1.934L2.384,53.631A1.56,1.56,0,1,1,4.832,51.7Z" transform="translate(1277 357)" fill="#fff"/></g></svg>