<svg xmlns="http://www.w3.org/2000/svg" xmlns:xlink="http://www.w3.org/1999/xlink" width="69" height="69" viewBox="0 0 69 69"><defs><clipPath id="a"><rect width="69" height="69" transform="translate(998 357)" fill="#fff"/></clipPath></defs><g transform="translate(-998 -357)" clip-path="url(#a)"><path d="M47.981,16.421a7.593,7.593,0,1,0-7.593-7.593A7.6,7.6,0,0,0,47.981,16.421Zm0-11.544A3.951,3.951,0,1,1,44.03,8.828,3.955,3.955,0,0,1,47.981,4.877ZM44.333,68.327c-.015.019-.032.037-.048.055s-.042.048-.064.07-.038.036-.057.054-.043.041-.066.06-.042.034-.064.051-.045.035-.068.051l-.069.046-.073.044-.072.039-.081.039-.071.031c-.031.012-.062.023-.093.034l-.065.021c-.038.012-.077.021-.116.03l-.049.011q-.079.016-.16.024l-.011,0a1.832,1.832,0,0,1-.183.01H38a1.821,1.821,0,1,1,0-3.642h3.321l4.853-36.978a1.821,1.821,0,1,1,3.611.474l-5.054,38.51v.006l-.006.047c0,.013,0,.025-.007.038-.006.041-.013.082-.022.122,0,.015-.008.03-.012.045-.01.041-.021.081-.033.121,0,.015-.011.029-.016.044-.014.038-.027.077-.043.114-.007.017-.017.034-.025.051-.022.046-.045.091-.07.135s-.041.072-.065.106c-.012.018-.026.035-.039.053S44.355,68.3,44.333,68.327ZM36.709,33.136c1.664,0,2.464-1.7,3.653-4.223a31.738,31.738,0,0,1,2.032-3.856c.922-1.389,1.453-1.539,1.546-1.554.639-.095,5.478-.209,7.84-.1a1.821,1.821,0,0,0,.172-3.638,83.511,83.511,0,0,0-8.6.14c-3.009.5-4.826,4.353-6.285,7.452l-.033.071L33.219,14.9H34.2a1.821,1.821,0,0,0,1.821-1.821V3.071A1.821,1.821,0,0,0,34.2,1.25H26.86A1.821,1.821,0,0,0,25.04,3.071V13.08A1.821,1.821,0,0,0,26.86,14.9h2.552L34.3,30.96c.517,1.7,1.493,2.117,2.221,2.17C36.586,33.134,36.648,33.136,36.709,33.136ZM28.681,4.892h3.7v6.367h-3.7ZM59.268,68.445l-.05.049c-.026.025-.052.049-.08.072l-.053.043c-.028.022-.056.043-.085.064l-.064.042c-.027.017-.054.034-.083.05s-.055.029-.083.043-.048.024-.073.035-.068.028-.1.041l-.048.019-.02.006-.066.019c-.035.01-.069.019-.1.027l-.053.011q-.069.013-.138.021l-.024,0a1.79,1.79,0,0,1-.18.01H53.042a1.821,1.821,0,1,1,0-3.642h2.38L49.7,48.484a1.821,1.821,0,0,1,3.449-1.169l6.533,19.279s0,.007,0,.01c.015.044.027.089.038.135,0,.016.008.031.012.047.008.037.014.074.02.112s.008.05.011.074,0,.057.006.085,0,.068.005.1c0,.006,0,.013,0,.019s0,.037,0,.055c0,.036,0,.071-.005.106s-.006.056-.01.084-.008.06-.014.09-.014.064-.021.1-.012.049-.019.072-.021.069-.033.1-.015.042-.023.063-.028.067-.043.1-.019.041-.03.061-.032.06-.05.089-.026.044-.04.066-.034.05-.051.075-.035.048-.054.072-.033.04-.05.06S59.291,68.421,59.268,68.445ZM23.561,5.634v4.883a1.821,1.821,0,1,1-3.642,0V5.634a1.821,1.821,0,1,1,3.642,0ZM14.668,9.9h-3.63a1.821,1.821,0,0,1,0-3.642h3.63a1.821,1.821,0,1,1,0,3.642ZM17.5,12.171a1.821,1.821,0,0,1,.075,2.574l-.788.836a1.821,1.821,0,1,1-2.649-2.5l.788-.836A1.821,1.821,0,0,1,17.5,12.171Zm.075-10.763a1.821,1.821,0,0,1-2.649,2.5l-.788-.836a1.821,1.821,0,0,1,2.649-2.5Z" transform="translate(998 357)" fill="#fff"/></g></svg>