<svg xmlns="http://www.w3.org/2000/svg" xmlns:xlink="http://www.w3.org/1999/xlink" width="426" height="426" viewBox="0 0 426 426"><defs><clipPath id="a"><rect width="426" height="426" transform="translate(6314 -76)" fill="#fff" stroke="#707070" stroke-width="1"/></clipPath></defs><g transform="translate(-6314 76)" clip-path="url(#a)"><g transform="translate(6314 -31.992)"><g transform="translate(100.779 83.616)"><path d="M111.694,54.94a7.163,7.163,0,0,0-2.093-1.572A1.52,1.52,0,0,1,109.623,55c-.247.533-.412,1.1-.65,1.639a8.853,8.853,0,0,0-.528,1.118c-.122.442-.059.892-.222,1.329a18.008,18.008,0,0,0,5.281-2.871c-.306-.044-1.114-.03-1.372-.254-.211-.183-.255-.756-.439-1.024" transform="translate(19.841 10.004)" fill="#ff5678" fill-rule="evenodd"/><path d="M157.6,55.257c.841.669.841.669.87,1.807a1.683,1.683,0,0,1-.87-1.807M116.87,58.243c-.388.032-.482-1.091-.569-1.42l.383-.053c.175.188.866,1.417.186,1.473M175.3,69.737a81.649,81.649,0,0,1,2.114-9.046c.437-1.454.928-2.894,1.457-4.316.459-1.231,1.333-2.568,1.486-3.86a40.533,40.533,0,0,0-3.722,4.268c-1.146,1.377-2.349,2.727-3.431,4.154a3.631,3.631,0,0,0-.866,1.995,4.042,4.042,0,0,0,.776,2.009,11.164,11.164,0,0,1,.764,2.389,3.045,3.045,0,0,1-.4,2.042,4.164,4.164,0,0,1-1.622-1.038c-.485-.593-.9-1.259-1.354-1.873-1-1.338-2.01-2.668-3-4.01a56.19,56.19,0,0,1-5.235-8.407c-1.514-3.033-2.87-6.149-4.346-9.2-.311-.643-.439-1.348-1.267-1.346a6.988,6.988,0,0,0-1.709.532,1.96,1.96,0,0,1-.436.075,1.081,1.081,0,0,1-.072.425c-.151.184-.206.11-.417.1-.244-.013-.42-.166-.687-.148a4.969,4.969,0,0,0-1.077.38v-.845c-1.105.567-3.781,2.466-4.363.313-.05.392.055,1.1-.33,1.349-.254.167-.577-.007-.852.029a4.748,4.748,0,0,0-.971.411c-.022-.579-.464-.514-.893-.592a4.563,4.563,0,0,0-1.615-.31c-.569.1-.983.354-1.555.047-.385-.206-.743-.5-1.131-.713a1.22,1.22,0,0,1-.632-.768c-.187-.435-.153-.336-.6-.213-.951.264-1.32-.882-1.487-1.659a6.453,6.453,0,0,1,1.313-5.459,25.905,25.905,0,0,1,5.428-5.157c1.947-1.273,4.017-2.848,6.291-3.465-1.815-4.062-4.4-7.845-6.707-11.647-.66.151-1.056.51-1.761.4-.557-.088-.532-.045-.738.533-.184.517-.285.592-.778.75-.513.164-.105-.155-.487.248a3.216,3.216,0,0,1-.474.523c-.775.542-1.788.23-2.63.568-.581.234-.295.531-.592.933-.316.425-.85.2-1.286.135-.91-.143-1.184.164-1.376,1.019-.143.634-.237.964-.918,1.1-.386.076-.985-.232-1.233.017-.095.095-.055.362-.1.485a1.719,1.719,0,0,1-.378.58,3.524,3.524,0,0,1-1.2.826c-.418.175-.859.077-1.256.23-.625.24-.473.9-.452,1.43-.354-.085-.437-.075-.648-.342-.1-.122-.044-.327-.235-.379a3.152,3.152,0,0,0-1.177.658c-.368.456,0,1.1-.09,1.631a2.974,2.974,0,0,1-.863,1.315l-.333-.962c-.165.214-.4.368-.467.637-.037.14.077.328.013.469-.179.4-.358.146-.691.16-.294.012-1.084.236-.944.7.094.309.705.238.632.658-.088.511-.752.177-1.021.283-.352.139-.212.439-.333.744-.211.536-.637.583-1.079.846a1.929,1.929,0,0,0-.806,1.019c-.25.556-.223.406-.761.357-.331-.03-.5.037-.635.343-.107.249.076.557-.018.786-.116.283-.715.6-.922.891a23.389,23.389,0,0,0-1.263,2.583,9.037,9.037,0,0,1-.692,1.068c-.341.454-.553.368-1.013.612-.745.4-.528,1.438-.61,2.127a1.581,1.581,0,0,1-.384.952c-.151.161-.688.343-.582.663.128.386.557-.027.476.576-.065.481-.612.875-.734,1.356-.084.33.026.646-.059.98a8.568,8.568,0,0,1-.516.983c-.138.345.079.779-.039,1.041-.138.3-.643.226-.779.621-.148.432.2,1.112.261,1.554.04.283.189.59-.05.822-.2.2-.685.162-.477.653.1.227.456.18.5.522.03.264-.275.665-.44.843-.44.476-1.273.871-.673,1.476.1.1.23.055.327.2a2.837,2.837,0,0,1,.195.648,5,5,0,0,0,.655,1.267c1.054,1.486,2.8,2.185,3.962,3.534,1.417-1.41,2.866-2.786,4.2-4.275a37.955,37.955,0,0,1,3.521-3.676,14.028,14.028,0,0,0,1.989-1.722,14.178,14.178,0,0,0,1.131-2.224c.793-1.44,1.937-2.649,2.788-4.052,1.668,1.087.972,3.863.491,5.421a14.115,14.115,0,0,1-1.2,2.734,9.511,9.511,0,0,0-1.192,2.3,2.133,2.133,0,0,0,.467,1.8c.563.79,1.22,1.528,1.813,2.3l4.326,5.616c.522-.754,1.384-.261,2.078-.116a27.727,27.727,0,0,0,3.1.234c1.079.1,2.171.281,3.24.455.957.155.321.6.784,1.127.979-1.766,2.852-.649,4.381-.494.96.1,1.979.047,2.919.167s1.89.445,2.873.54c1.855.178,3.532.818,5.353,1.15.962.176,1.932.3,2.894.477.341.063.943.094,1.134.446.226.417-.233,1.3-.358,1.673a6.413,6.413,0,0,1-.694,1.886c-.292.36-.367.141-.742.125-.435-.018-.258.075-.558.411a1.922,1.922,0,0,1-1.407.465c-.235.021-.705-.022-.887.142-.256.23-.035.245-.055.6-.033.615-.885,1.074-1.382,1.316a2.023,2.023,0,0,1-1.021.256c-.226-.016-.5-.234-.722-.143-.322.128-.3.736-.484.993-.345.476-.808.123-1.261.364-.542.288-.85.972-1.365,1.311-1.021.671-2.2.745-2.7-.514-.2.422-.683,1.076-.5,1.5a2.218,2.218,0,0,0,1,.839c1,.541,1.974,1.081,2.93,1.7a70.187,70.187,0,0,0,6.657,4.137,29.9,29.9,0,0,0,7.293,2.891,12.84,12.84,0,0,0,7.733-.9,4.087,4.087,0,0,1-.441-2.02q-.031-1.173-.048-2.347c-.019-1.562-.011-3.124.044-4.686a65.111,65.111,0,0,1,1.007-9.307" transform="translate(20.318 3.186)" fill="#ff5678" fill-rule="evenodd"/><path d="M192.827,63.885a12.578,12.578,0,0,1-.557-2.589c-.038-.63.2-1.567-.18-2.115-.159-.233-.445-.315-.537-.6a6.445,6.445,0,0,1,.009-.924,7.628,7.628,0,0,0-.57-1.846c-.536-1.36-.551-2.788-1-4.167-.245-.756-.7-1.4-.973-2.144a9.048,9.048,0,0,1-.447-2.1,17.016,17.016,0,0,0-.264-2.261c-.17-.7-.383-1.379-.537-2.081a38.472,38.472,0,0,0-1.377-4.912c-.221-.608-.382-1.627-.921-2.036a1.958,1.958,0,0,0-1.362-.189,1.544,1.544,0,0,0-1.288.492,18.872,18.872,0,0,1-1.23,1.671c-.519.528-1.168.984-1.635,1.557-.367.45-.157.6.238.988-.511.066-.93-.074-1.3.312a6.436,6.436,0,0,0-.906,1.528,9.547,9.547,0,0,0-.764,3.243l-.431-.672a1.877,1.877,0,0,1-.972,1.214c-.643.25-.624.169-.625.89,0,1.036-.862,1.688-1.4,2.471a7.605,7.605,0,0,0-.8,1.436,3.079,3.079,0,0,0-.032,1.7c.092.969-.843,1.711-1.405,2.4a1.769,1.769,0,0,0-.373.581c-.073.195.028.317-.118.524-.264.375-.816.274-1.029.734-.2.431.077.865.121,1.291a4.57,4.57,0,0,1-.564,1.928,9.778,9.778,0,0,0-.52,2.082,7.641,7.641,0,0,0-.058,1.237c.007.191.154.671.029.844-.162.225-.517-.033-.665.217-.3.512.83.675,1.052.754a3.748,3.748,0,0,0-.823.518c-.283.311-.108.5-.225.845-.128.381-.585.484-.728.821s.139.419.288.705a4.086,4.086,0,0,1-.107,2.462c-.058.287-.03,1.036-.211,1.259-.115.142-.372.09-.473.215-.211.261.011.367.1.667a2.179,2.179,0,0,1-.011,1.163c-.1.359-.33.691-.4,1.056-.071.4.128.538.265.91a6.031,6.031,0,0,1-.013,2.7c-.121.984.224,1.914-.033,2.825l-.822-.355q.131.65.261,1.3l.128.641q-.08.417.279.33c.471.136,1.2-.606,1.585-.824,1.166-.659,2.425-1.132,3.636-1.7a28.626,28.626,0,0,0,3.464-2.143c1.187-.776,2.439-1.441,3.6-2.262,5.007-3.553,10.435-6.55,15.656-9.782-1.462.165-1.728-1.773-2.018-2.8" transform="translate(30.477 6.799)" fill="#ff5678" fill-rule="evenodd"/><path d="M195.815,27.349c.784.228.6.892.307,1.468-.3-.285-.833-.619-.974-1.025-.174-.505.217-.574.668-.443m21.9,19.633c-.042.2-.087,1.024-.242,1.152s-.862-.048-1.053-.058a5.221,5.221,0,0,0-1.64.233c-.985.244-1.163-.369-1.168-1.286a4.693,4.693,0,0,1-3.629,2.53,17.067,17.067,0,0,1-2.222.314,8.266,8.266,0,0,1-1.7-.118c-.341-.059-.653-.269-.975-.33-.706-.132-.07.377-.58.512a7.533,7.533,0,0,1-.819-.191c-.312-.018-.626.033-.938.017-.708-.037-.939-.431-1.5-.735a1.12,1.12,0,0,0-.809-.092c-.346.049-.083.164-.487.092a2.751,2.751,0,0,1-.473-.217,5.892,5.892,0,0,1-1.954-1.245c-.432-.436-.977-.729-1.408-1.161-.155-.156-.24-.346-.377-.507-.178-.209-.19-.156-.414-.312a1.608,1.608,0,0,1-.609-.558,4.235,4.235,0,0,1-.3-1.672,8.744,8.744,0,0,1,1.043-5.021c.934-1.734,1.708-3.567,2.8-5.211a33.7,33.7,0,0,1,3.449-4.187,7.561,7.561,0,0,1,1.137-1.087c.271-.187.624-.27.881-.474.608-.486.312-1.378.312-2.054.192.34.493.848.953.736.3-.073.313-.414.532-.547.169-.1.367-.051.554-.07a88.772,88.772,0,0,0-2.868-10.743c-3.238,3.177-6.478,6.377-9.621,9.649-1.622,1.688-3.119,3.489-4.734,5.184-1.7,1.781-3.431,3.526-5.147,5.289a6.021,6.021,0,0,1,1.319,1.339,7.53,7.53,0,0,0,1.032,1.4,15.075,15.075,0,0,1,1.909,3.818.78.78,0,0,1,.111.54c-.018.135-.157.254-.16.419a.766.766,0,0,0,.22.505c.116.149.458.318.486.511.034.231-.2.386-.282.6-.348.951.795,1.624,1.181,2.37a1.138,1.138,0,0,1,.037,1.234c-.223.335-.716.465-.454.975.163.319.618.144.551.588-.037.238-.5.461-.066.722.347.211.761-.166.6.487-.072.292-.463.585-.352.912s.678.37.9.618a2.438,2.438,0,0,1,.47,1.248c.193,1.392.513,2.656.833,4.024.214.916-.337.932-1.151.938.549.769,1.089,1.541,1.675,2.283a8.391,8.391,0,0,1,.99,2.731q.484,1.584.951,3.172a2.126,2.126,0,0,1,.051,1.438,1.415,1.415,0,0,0-.115,1.138c2.539-1.456,4.936-3.074,7.345-4.738,1.155-.8,2.312-1.592,3.454-2.409a8.13,8.13,0,0,0,2.364-2.3,35.409,35.409,0,0,1,5.112-5.849,18.015,18.015,0,0,1,2.879-2.866c1.079-.7,2.224-1.323,3.313-2.021l-1.208-1.659" transform="translate(33.682 2.913)" fill="#ff5678" fill-rule="evenodd"/><path d="M146.571,68.5c1.035-.493,1.988-1.156,2.994-1.7a11.688,11.688,0,0,0,2.416-1.365,3.91,3.91,0,0,1,.977-.562,8.784,8.784,0,0,0,1.238-.949,9.6,9.6,0,0,0-3.269-1.064,8.57,8.57,0,0,1-1.518.083,3.265,3.265,0,0,1-1.361-.681c-.763-.566-1.1-.481-1.927-.014-.2.112-.466.361-.707.354-.389-.011-.33-.25-.5-.517-.154-.242.041-.27-.239-.278-.169,0-.245.229-.434.266-.357.07-1.033-.28-1.391-.345a6.32,6.32,0,0,0-1.66.059,4.666,4.666,0,0,1-1.8-.3c-.529-.18-1.037-.433-1.572-.595-.7-.21-.838.063-1.481.211-.98.225-1.93-1.185-2.827-.44a36.687,36.687,0,0,0,4.779,5.162,36.141,36.141,0,0,0,2.781,2.511c.442.352.894.692,1.344,1.035.2.156.41.311.613.468.365.282.332.367.679.2.466-.218.827-.68,1.339-.9s1.027-.4,1.524-.634" transform="translate(24.477 11.299)" fill="#ff5678" fill-rule="evenodd"/><path d="M146.679,32.439c.037.862.573,1.569-.183,2.3q-.033-.642-.067-1.284c-.023-.446-.248-.93.25-1.014m-.843-3.757a1.323,1.323,0,0,1-.647.837c-.511.273-1.218-.169-1.573.219s-.316,1.309-.782,1.628c-.149.1-.315.031-.492.164-.152.114-.159.387-.314.506-.254.2-.472,0-.712.11-.269.128-.313.435-.385.7s-.069.605-.263.812a5.719,5.719,0,0,1-1.071.608l-3.109,1.936c.309.313.991.668,1.069,1.129.054.314-.164.349.1.6a3.911,3.911,0,0,0,.68.3,7.738,7.738,0,0,0,1.826.694c.765.167,1.531.088,2.292.271a9.427,9.427,0,0,0,2.415.32c.705-.016,1.371-.213,2.069-.273,1.31-.113,3.008,0,4.075-.918a9.285,9.285,0,0,0-.563-2.571q-.485-1.244-.988-2.479a46.206,46.206,0,0,0-2.227-4.84c-.176,1.1-.6-.349-1.011-.36-.305-.008-.308.382-.384.6" transform="translate(25.023 5.368)" fill="#ff5678" fill-rule="evenodd"/><path d="M205.661,39.078a8.144,8.144,0,0,1,1.579.464c.4.184.552.281.9-.033.189-.17.224-.423.467-.55a2.032,2.032,0,0,1,.823-.1c.65-.034,1.3-.048,1.951-.072l-2.244-2.157c-.117.2-.428.935-.657.982-.069.014-.283-.216-.4-.225a.629.629,0,0,0-.319.094c-.277.122-.4.407-.709.482a3.745,3.745,0,0,1-.954-.073c-.084.29-.3.813-.441,1.186" transform="translate(37.704 6.936)" fill="#ff5678" fill-rule="evenodd"/><path d="M205.087,31.113c.13-.538-.15-1.094-.065-1.641l-.185-.278a6.322,6.322,0,0,1-.433.94,4.4,4.4,0,0,0-.529.743,1.581,1.581,0,0,0,.3,1.4c.338-.378.784-.647.909-1.162" transform="translate(37.364 5.572)" fill="#ff5678" fill-rule="evenodd"/><path d="M201.525,31.8c-.454.01-.281.222-.343.561a1.63,1.63,0,0,1-.261.584c-.233.362-.794.726-.474,1.216.272.416.287-.1.514.1s-1.331,1.815-1.567,1.9c-.128.047-.267-.1-.388,0s.039,1.015.034,1.2a1.631,1.631,0,0,0,.356,1.377c.466.41,1.234.425,1.786.657a9.012,9.012,0,0,0,1.131.495c.42.113.782-.121,1.144-.067a6.64,6.64,0,0,1,1.08.615c.37.176.441.2.8.067a1.964,1.964,0,0,0,.72-.395c.2-.261.048-.257.075-.612.049-.648.726-.573,1.192-.755-.921-.276-1.43-1.266-1.883-2.073a6.332,6.332,0,0,1-.715-1.181c-.135-.5.238-.822.462-1.24-.3.124-1.5.674-.926.024.18-.2,1.29-.532.838-1.058-.272-.316-.626.33-.941.267-.365-.073-.8-.685-1.1-.887-.368-.244-1.087-.816-1.535-.806" transform="translate(36.477 6.049)" fill="#ff5678" fill-rule="evenodd"/><path d="M117.291,56.165a16.518,16.518,0,0,1,.72-4.55c.919-3.029,2.867-5.684,3.494-8.808.3-1.5.2-3.028.493-4.535a31.451,31.451,0,0,0,.35-4.824c.057-1.587.115-3.174.095-4.762a8.1,8.1,0,0,1-.023-1.913c.121-.462.306-.289.7-.456-.272-.168-.832-.251-.891-.6-.04-.24.193-.5.182-.766a2.676,2.676,0,0,0-.176-.637c-.344-1.111-.833-2.822-.2-3.889-.381-.064-.535-.183-.888-.021a6.137,6.137,0,0,0-1.09.822,20.79,20.79,0,0,0-1.9,1.647,40.172,40.172,0,0,0-2.988,3.67c-.963,1.242-1.961,2.471-2.952,3.691-.771.948-1.993,2.391-3.067,1.114-.322.429-.527.86-1.054,1.068a3.046,3.046,0,0,0-1.384,1.062c-.093.11-.372.577-.492.621-.244.089-.1-.077-.3-.2-.3-.194-.444-.326-.551.211-.048.238.08.462-.037.7a1.781,1.781,0,0,1-.646.558,7.372,7.372,0,0,1-1.517.421c-.836.281-1.37,1.55-2.288.942-.334-.221-.6-.566-1.033-.331-.323.175-.379.608-.846.437-.245-.09-.445-.411-.73-.515a2.779,2.779,0,0,0-.627-.128,7.318,7.318,0,0,1-1.394-.182,5.916,5.916,0,0,1-2.332-1.926c-.5-.549-.345-.894-.206-1.592.118-.594.242-1.187.388-1.774a15,15,0,0,1,1.224-3.385A21.912,21.912,0,0,1,97.8,23.963c1.809-2.262,3.516-4.648,5.479-6.779.368-.4,1-.835.933-1.445-.073-.67-.834-.344-1.3-.228a29.565,29.565,0,0,0-3.6,1.386c-.66.26-1.544.766-2.251.433-.667-.314-1.723-1.156-1.351-1.927a7.4,7.4,0,0,0,.748-1.69c.136-.6.22-1.206.344-1.806.295-1.424.673-2.829,1.1-4.22.808-2.654,1.8-5.248,2.686-7.875A41.712,41.712,0,0,0,90.181,2.431c.162.334.467.813.345,1.2-.151.481-.8.32-.962.651-.191.391.387.616.216,1.118a7.4,7.4,0,0,1-.8,1.288c1.123.724.686-.78,1.474-.883.219,1.2-.285,1.761-.751,2.768-.415.9.538.811.734,1.482-.548.091-.924-.161-1.164.486-.1.275.051,1.282-.276,1.31-.242.021-.166-.42-.361-.462-.243-.051-.867.827-1.02.991a3.785,3.785,0,0,1,1.656.322c-.408.4-.819.789-1.243,1.171.388.16,1.047.2,1.245.628.184.4-.1,1.127-.135,1.543.165-.249.407-.838.664-1,.338-.211.434,0,.414.46-.039.849-1.147.795-1.3,1.472s.8.2.83.869c.015.379-.428.7-.209,1.105-.491-.275-.551-.437-.817-.974a5.12,5.12,0,0,0-.369,2.459c.181.576.562.434.126.991-.161.206-.385.369-.39.65-.012.65.917,1.154.195,1.733-.28.225-.583.25-.725.64-.124.337,0,.788-.1,1.155A4.069,4.069,0,0,1,86.2,27.393a17.778,17.778,0,0,1-1.421,1.38,2.167,2.167,0,0,0-.574.622c-.081.119.018.232-.091.343-.127.129-.451.116-.623.149-.564.11-1.249.338-1.438.965-.688-.521-1.389.113-2.056.319a1.142,1.142,0,0,1-.952-.047c-.5-.279-.478-.321-1.079-.234-1.674.242-3.054-1.5-3.986-2.676a6.474,6.474,0,0,1-1.229-2.983c-.209-1.253-.425-2.5-.54-3.763a62.525,62.525,0,0,1-.055-7.927A63.065,63.065,0,0,0,63.4,19.423a85.838,85.838,0,0,0-7.611,7.213c.632.041,1.241.265,1.875.277a2.057,2.057,0,0,0,.905-.161A1.824,1.824,0,0,0,59,26.474a.282.282,0,0,1,.48-.12c.622-.051,1.2-.18,1.821-.27a7.911,7.911,0,0,1,2.4.258c1.45.251,2.988.084,4.389.534,1.226.394,2.5.958,3.682,1.468a15.442,15.442,0,0,1,3.094,2.334,16.044,16.044,0,0,0,1.751.994,6.592,6.592,0,0,1,1.393,1.63c.964,1.248,2.041,2.4,3.007,3.64a6.926,6.926,0,0,1,1.066,1.818c.125.338.136.717.257,1.047a3.02,3.02,0,0,0,.491.716c.592-1.593,1.165-3.192,1.777-4.777.235-.609,1.287-3.534,2.11-2.412.709.965.307,2.948.086,4.025-.3,1.444-.624,2.882-.948,4.32-.641,2.853-1.229,5.733-2.046,8.542a3.2,3.2,0,0,0-.172.591c-.023.327-.136.141.088.369.115.117.387.082.5.221a3.27,3.27,0,0,1,.116,1.446c-.027.587-.355.845-.508,1.366-.134.456.094.925.1,1.386a20.176,20.176,0,0,1-.786,3.51c-.131.716.281,1.851-.724,1.988.25.421-.046.6-.265.912a4.987,4.987,0,0,0-.464,1.221,4.3,4.3,0,0,0-.431,1.053c-.038.354.119.693,0,1.053-.143.424-.413.473-.771.658s-.244-.029-.364.318c-.053.153.018.506-.015.683a4.209,4.209,0,0,1-1.376,1.978c-.208.219-.477.727-.731.862-.372.2-.93-.146-1.271.037-.313.168-.641,1.505-.757,1.83-.245.691-.478,1.388-.71,2.083-.856,2.546-1.7,5.1-2.543,7.648.4-.01,1.08-.455,1.471-.273.449.209.16.825.329,1.16.121.24.823.2,1.153.221a3.248,3.248,0,0,0,1.293-.272,17.32,17.32,0,0,1,2.814-.257,53.933,53.933,0,0,0,5.925-.705c1.852-.413,3.628-1.1,5.445-1.634-.848-.446-1.006-1.546-1.249-2.383a4.439,4.439,0,0,0-.445-1.25A7.786,7.786,0,0,1,88.7,74.52a16.289,16.289,0,0,1-.525-6.919A28.621,28.621,0,0,1,92.75,55.139a32.525,32.525,0,0,1,4.052-5,37.04,37.04,0,0,1,4.929-4.539,19,19,0,0,0,2.491-1.454,9.486,9.486,0,0,1,2.1-1.006,9.554,9.554,0,0,1,2.8-1.138,8.036,8.036,0,0,1,2.467-.456c.556.069.348.329.674.584.431.338.275-.138.595-.258.269-.1.439.156.664.238a1.939,1.939,0,0,0,.536.016c.247.15.206.679.347.929a3.94,3.94,0,0,1,.471.758,1.322,1.322,0,0,1-.132,1.066c-.19.384-.476.573-.018.945-1.143.752-.437,2.262-1.3,3.173-.292.309-.95.742-.94,1.223.011.518.942.723.463,1.241-.436.47-1.376.248-1.88.667s-.34,1.15-.386,1.731c-.035.445-.468.982-.288,1.411.118.282.323.24.332.548a3.372,3.372,0,0,1-.267.821l-.571-.25a7.383,7.383,0,0,0-.289,1.008,2.331,2.331,0,0,0,.2.968,6.089,6.089,0,0,1-.147,1.434,2.254,2.254,0,0,1-.446,1.41c-.21.23-.5.265-.726.443a2.139,2.139,0,0,0-.42.608l.984-.29a2.718,2.718,0,0,1-.786,1.373q-.1-.543-.206-1.086a3.031,3.031,0,0,0-.314,1.092c.018.35.175.686.176,1.046,0,.7-.516,1.164-.3,1.84a2.936,2.936,0,0,1,.055,2.085,10.451,10.451,0,0,0-.588,2.237c-.06.872.332,1.623.251,2.509-.037.411-.209.7.248.745.408.041.851-.3,1.2-.464,1.741-.829,3.475-1.671,5.212-2.509-.324-.451-.245-.465-.042-1.02q.228-.627.455-1.254c.322-.888.645-1.775.977-2.66a28.537,28.537,0,0,0,1.744-5.016,30.015,30.015,0,0,0,.155-4.727" transform="translate(10.227 0.186)" fill="#ff5678" fill-rule="evenodd"/><path d="M21.258,155.994l-1.724-1.087,1-.767c.363-.277.526-.535.741.009.225.573-.044,1.251-.022,1.845m-.731-4.176c.809.945-.7,1.219-1.285,1.338.094-.455.431-2.337,1.285-1.338m17.725-3.327c-.262-.8-.687-3.024-1.9-2.886-.29.033-.552.323-.9.347a5.612,5.612,0,0,1-.874-.082,4.92,4.92,0,0,0-1.933.186,7.512,7.512,0,0,1-2.006.624,7.769,7.769,0,0,0-1.669.146c-.922.267-.86,1.085-.73,1.9a2.991,2.991,0,0,1-.447-.52c-.128-.235-.128-.5-.327-.7-.394-.408-.846-.215-1.333-.18-.55.04-1.256-.328-1.783-.122-.235.092-.373.354-.618.464a2.323,2.323,0,0,1-.688.141,12.528,12.528,0,0,1-1.521.224,6.23,6.23,0,0,0-1.891.122c-.617.167-1.207.42-1.823.589-.684.187-1.392.206-2.086.342a31.43,31.43,0,0,1-4.165.974,21.461,21.461,0,0,0-2.2.158,3.036,3.036,0,0,0-.928.152c-.207.143-.348.733-.466.975-1.269,2.62-2.19,5.409-3.2,8.134q-1.58,4.253-3.161,8.505C1.11,169.309.474,170.637.062,172c-.382,1.257,1.1,2.142,1.891,2.932a57.03,57.03,0,0,0,6.076,5.491,35.917,35.917,0,0,0,7.218,3.877,30.288,30.288,0,0,0,8.073,2.181c1.431.2,2.871.34,4.312.456a18.738,18.738,0,0,0,4.092-.266c-.141-.329-.6-.9-.545-1.27.015-.1.226-.273.275-.394a1.39,1.39,0,0,0,.065-.512c.02-.829-.3-1.632.758-1.928q.053.679.106,1.357a2.45,2.45,0,0,0-.122-2.379l-1.082.9c.074-.22.678-1.614.511-1.746s-.467.218-.646.05c-.146-.137.017-.461-.029-.636-.074-.281-.378-.5-.376-.8,0-.41.531-.727.779-.991a1.5,1.5,0,0,0,.511-1.192c0-.731.34-.691.873-1.178a2.429,2.429,0,0,0,.471-2.91l1.144-.088c-.354-.89-.717-1.778-1.064-2.671s.125-1.345.356-2.168l1.571,1.555a23.979,23.979,0,0,0,.382-5.054c-.065-.524-.163-.493.077-.884.173-.281.417-.5.569-.805a5.386,5.386,0,0,0,.448-1.93,10.008,10.008,0,0,1,.2-1.879c.131-.448.56-.7.664-1.2.179-.863-1.2-2.369-.4-3.008.408-.326.916-.014,1.211-.547a8.278,8.278,0,0,0,.5-1.582A3.181,3.181,0,0,0,39,150.583c-.25-.7-.516-1.385-.746-2.091" transform="translate(0 26.913)" fill="#ff5678" fill-rule="evenodd"/><path d="M47.9,114.427c-.2-.46-.516-.543-.992-.635-2.051-.394-4.12-.4-6.19-.587a11.568,11.568,0,0,1-1.748-.28c-.481-.12-.934-.388-1.406-.5-.94-.224-1.873.4-2.813.352a6.7,6.7,0,0,1-1.345-.43,3.308,3.308,0,0,0-1.1,0,13.362,13.362,0,0,1-2.228-.067,16.921,16.921,0,0,1-2.7-.494,4.4,4.4,0,0,1-1.9-.776,31.467,31.467,0,0,0-2.526,4.746c-.694,1.608-1.617,3.128-2.463,4.66a62.8,62.8,0,0,0-4.126,9.837c.643-.3,1.109-.6,1.592.071.455.631,1,.424,1.733.543,1.183.191,1.311,1.5,1.57,2.479l1.148-1.429c.307.342.8.519,1.051.912.16.252.07.485.165.725.088.223.313.313.483.471,1.171-1.5,2.271,1.32,2.412,2.284l.44-1.12a5.11,5.11,0,0,1,.655.682c.1.164.1.458.2.594.162.2.268.114.5.17.373.09.3.069.518.357a29.962,29.962,0,0,1,2.174,2.475,19.773,19.773,0,0,1,2.046,3.689,10.718,10.718,0,0,0,.73,2.137c.2.365.557.678.741,1.034.229.443-.175.626-.129,1.022s.708.788,1.037.912a5.268,5.268,0,0,0,1.677.149,7.425,7.425,0,0,0,2.218-.208c.594-.177.548-.482.711-1.006a15.981,15.981,0,0,1,.8-1.808c.4-.88.6-1.466-.6-1.73.689-.115,1.813-.318,1.594-1.241-.1-.443-.5-.74-.443-1.229s.446-.667.815-.926a4.4,4.4,0,0,0,1.448-2.2,1.8,1.8,0,0,0,.03-1.226,7.77,7.77,0,0,1-.415-2.009l.952.1a3.3,3.3,0,0,0-.208-.763c-.042-.085-.263-.151-.25-.269.022-.206.3-.2.423-.346a5.291,5.291,0,0,0,.538-1.691,5.551,5.551,0,0,1,.423-1.332c.434-.716.97.294.862-.722-.055-.515-.095-1.278-.736-1.353-.764-.089-.984.213-.912-.7.05-.648-.124-2.038.57-2.387a3.831,3.831,0,0,1,1.245-.177c.442-.037.79.2,1.2.184.682-.024.643-1,.721-1.491a26.507,26.507,0,0,0,.306-6.657,9.67,9.67,0,0,0-.5-2.8" transform="translate(3 20.572)" fill="#ff5678" fill-rule="evenodd"/><path d="M58.923,43.466c-.045-1.6-.045-1.6.845-2.213.235,1.021-.35,1.534-.845,2.213M75.1,47.561c.192-.382.984-.27,1.319-.265a10.429,10.429,0,0,0-.867,1.712c-.184-.348-.641-1.074-.453-1.447M73.02,58.925c.348-.275.267-.262.433-.595.129-.258.1-.393.373-.564.558-.346.644-.345.788-1.083a9.809,9.809,0,0,1,.356-2.156c.2-.427.871-.466.882-1,.022-1.041-1.86-1.572-1.5-2.622.107-.313.446-.41.591-.679.088-.164.028-.379.057-.554.065-.393.173-.477.535-.58a.688.688,0,0,0,.019.458c.238.46,1.185-.091,1.4-.408.445-.655.034-1.742-.112-2.425a8.115,8.115,0,0,1-.1-2.567l1.212,1.329c.22-.67.258-1.031.873-1.45A3.458,3.458,0,0,0,79.986,42.8c.139-.219.233-.462.509-.54s.713.216.94.1c.14-.07.292-.8.339-.926q.227-.617.453-1.235a35.564,35.564,0,0,0-2.859-6.475,18.713,18.713,0,0,0-4.623-4.575c-.863-.644-1.736-1.3-2.642-1.882a20.2,20.2,0,0,0-2.863-1.235,9.242,9.242,0,0,0-3.17-.947c-.549-.028-1.079.1-1.629.028-.608-.08-1.193-.286-1.8-.389,0,3.16-1.152,6.366-2.228,9.305-.489,1.338-1.191,2.572-1.706,3.9s-1.026,2.668-1.59,3.986a71.294,71.294,0,0,1-3.713,8.1c-.132.227-.283.388-.2.588.023.058.213.173.262.224a2.437,2.437,0,0,1,.378.527,11.149,11.149,0,0,1,.54,1.421,25.256,25.256,0,0,0,1.728,3.152,13.424,13.424,0,0,0,2.5,3.081c.454.43,1.125.826,1.4,1.4a11.308,11.308,0,0,1,.373,1.44q.079-.56.158-1.121c.4.841,1.418.919,2.157,1.338a28.314,28.314,0,0,0,2.748,1.615,13.46,13.46,0,0,0,3.137.958,8.215,8.215,0,0,0,1.652.129,4.434,4.434,0,0,0,1.469-.495c-1.591-1.372-1.012-3.752-.1-5.333l.838,1.844c.184-.437.814-.85.533-1.363-.169-.31-.389-.23-.438-.59a1.656,1.656,0,0,1,.279-.88,4.189,4.189,0,0,1,.213.969" transform="translate(9.75 4.754)" fill="#ff5678" fill-rule="evenodd"/><path d="M70.222,64.454c-.358-.79-1.83-.973-2.57-1.124a14.1,14.1,0,0,1-3.49-1.547A11.328,11.328,0,0,1,61.37,59.9a3.488,3.488,0,0,0-1.217-.684A3.376,3.376,0,0,1,59.02,58.3a15.38,15.38,0,0,1-2.181-2.314,20.616,20.616,0,0,0-1.977-2.39c-.786-.992-1.344-2.139-2.028-3.2-1.226,1.321-1.558,3.382-2.3,4.984-.926,2-1.812,4.014-2.683,6.036-1.56,3.628-3.075,7.279-4.433,10.989-.05.136-.317.59-.272.736s.391.3.5.417a7.281,7.281,0,0,1,.7,1.026,13.717,13.717,0,0,0,1.426,1.786,17.638,17.638,0,0,0,4.046,3.285c.651.371,1.579,1.105,2.325,1.042a7.9,7.9,0,0,1,2.652.071,10.568,10.568,0,0,0,2.726.37,2.718,2.718,0,0,1,1.131.088c.258.106.443.4.735.415.367.017.586-.329.925-.454a2.316,2.316,0,0,1,.925-.11c.456.022,1.519.433,1.884.081.394-.38.244-1.478.982-1.622.548-.107,1.658.9,2.106,1.176-.194-.583-.859-1.722-.5-2.334a.559.559,0,0,1,.687-.249c.364.074.4.334.684.5,1.572.882,1.432-3.314,1.379-3.957l-1.2-.069c0,.368.116,1.193-.131,1.343a3.91,3.91,0,0,1-1.2,0c.546.519.8.964-.022,1.407a.885.885,0,0,1-1.316-.724c-.062-.723,1.066-.834.859-1.548-.277-.959-1.122.665-1.275.948a2.349,2.349,0,0,1,.473-2.251,2.037,2.037,0,0,1,2.35-.58c.09-.394.292-.665.4-1.024.129-.43-.067-.327-.257-.7-.308-.606.308-.817.424-1.339a1.152,1.152,0,0,0-.209-.844c-.169-.29-.5-.489-.012-.647.36-.117.784.227,1.124-.083.368-.336.232-1.038.432-1.457.3-.632.635-.242,1.123-.064.366.133.476.121.521-.284a.615.615,0,0,0-.161-.547c-.253-.233-.6-.066-.888-.145-.388-.106-.407-.351-.555-.7.676-.06.686.155,1.3.414a2.047,2.047,0,0,0,1.511,0,4.367,4.367,0,0,1-1.059-.364c-.386-.269-.3-.583-.465-.95" transform="translate(7.909 9.459)" fill="#ff5678" fill-rule="evenodd"/><path d="M104.568,44.042c.668-1.235,1.273-2.5,1.874-3.769.365-.771,1.154-1.836.217-2.471-.631-.428-1.786-1.03-2.584-.706-.677.275-1.049,1.876-1.981.826-.17.485-.748.405-1.094.668-.257.195-.234.392-.39.643a5.584,5.584,0,0,1-.633.662,5.265,5.265,0,0,0-.6-.938,3.456,3.456,0,0,0-.28.935c-.067.208-.126.352-.344.433-.5.186-.988-.425-1.241-.761a1.762,1.762,0,0,1-.132,1.594c-.279.356-.732.425-.994.8-.294.416-.313.732-.84.9a3.11,3.11,0,0,1-.563.121c-.116,0-.173-.2-.221-.2a2.159,2.159,0,0,0-.581.271c.328.413.2.586-.154.855-.429.326-.405.36-.616.859a1.1,1.1,0,0,1-.453.584c-.236.132-.551.019-.747.156-.4.277-.352,1-.665,1.345-.422.472-.955.8-1.344,1.327a12.158,12.158,0,0,0-1.009,1.7,9.187,9.187,0,0,0-1.443,3.5,4.774,4.774,0,0,1-.234,1.739c-.248.5-.785.7-.992,1.285a8,8,0,0,0-.346,1.626c-.075.625.316,1.1.044,1.706a4.318,4.318,0,0,0-.361,1.631c-.047.592-.514.994-.227,1.5a3.766,3.766,0,0,1,.643,1.442c.085.642-.018.874-.574,1.145a7.059,7.059,0,0,1,.891,1.66,4.869,4.869,0,0,0,.8,1.674c.778,1.022,1.761,1.562,1.744,2.984L99.73,68.227c-1.362-.257-.666-2.644-.577-3.536.163-1.634.338-3.276.574-4.9.2-1.4.6-2.755.818-4.153a20.6,20.6,0,0,1,.409-2.162c.165-.617.514-1.2.652-1.8a21.451,21.451,0,0,1,1.083-3.968c.548-1.259,1.226-2.455,1.879-3.661" transform="translate(15.682 7.004)" fill="#ff5678" fill-rule="evenodd"/><path d="M15.835,148.939a1.6,1.6,0,0,1,.862-.191,13.2,13.2,0,0,0,2.372-.514,27.361,27.361,0,0,1,3.015-.625,24.033,24.033,0,0,0,2.871-.408,10.138,10.138,0,0,1,2.676-.584c1.08-.042,1.714-.545,2.6.356.791-1.1,1.936-1.1,3.2-1.272.452-.063.978,0,1.079-.542a2.881,2.881,0,0,0-.524-1.577A40.383,40.383,0,0,0,30.3,137.2a20.688,20.688,0,0,0-5.607-5.174,30.9,30.9,0,0,0-3.722-1.476c-1.331-.523-2.633-1.117-3.946-1.682a6.588,6.588,0,0,0-1.081,2.543c-.319.865-.866,1.626-1.157,2.5-.582,1.755-1.079,3.493-1.806,5.2-1.537,3.611-3.029,7.208-4.426,10.878,2.2-.342,4.341-.556,6.561-.695.435-.027.406-.135.72-.354" transform="translate(1.568 23.845)" fill="#ff5678" fill-rule="evenodd"/><path d="M113.058,36.817a2.468,2.468,0,0,1,1.774.77,48.132,48.132,0,0,1,5.894-6.79,86.123,86.123,0,0,1,6.452-5.9A84.46,84.46,0,0,1,142.1,15.563c-1.664-1.917-3.3-3.863-4.978-5.768a43.477,43.477,0,0,0-5.237-4.774,42.235,42.235,0,0,0-.392,4.5c.013,1.5.219,3,.239,4.5a13.945,13.945,0,0,1-.336,3.71c-.242.918-.79,2.26-1.793,2.553a5.9,5.9,0,0,1-4.71-1.239,19.529,19.529,0,0,1-2.048-3.031,1.43,1.43,0,0,0-1.79-.682,26.776,26.776,0,0,0-3.506,1.679c-1.282.642-2.56,1.293-3.843,1.934.088.063.61.331.632.45.007.037-.292.656-.3.778a3.743,3.743,0,0,0,.342,1.387,4.234,4.234,0,0,1,.257,1.47,7.575,7.575,0,0,1-.421,1.39c-.112.516.269.7.466,1.148a2.474,2.474,0,0,1,.122,1.446,7.127,7.127,0,0,0-.31,1.209c0,.216.186.456.121.679s-.327.346-.478.493c.692.455.821.389.547,1.131a3.1,3.1,0,0,0-.04,1.61c.048.3.355,1.092.147,1.393-.19.276-.814.06-1.1.05.106.556.257.5.517.958a1.9,1.9,0,0,1,.136,1.024c-.046.866-.579.963-1.289,1.258" transform="translate(20.727 1.14)" fill="#ff5678" fill-rule="evenodd"/><path d="M27.366,111.126a12.794,12.794,0,0,0,2.793.54,6.992,6.992,0,0,1,2.484.436c.286.131.6.485.909.48.372-.006.256-.26.517-.425s.434.019.678.086a4.735,4.735,0,0,0,1.106.107c1.042.035,2.085.056,3.128.082.939.023,1.848.177,2.782.183.986.006,1.972,0,2.958,0a15.949,15.949,0,0,0-2.64-4.252c-.614-.606-1.13-1.283-1.711-1.917a21.924,21.924,0,0,0-1.928-1.635,12.733,12.733,0,0,0-2.005-1.642,5.661,5.661,0,0,0-1.044-.538,3.559,3.559,0,0,1-.852-.212c-.317-.187-.6-.575-.908-.8a9.989,9.989,0,0,0-1.009-.627c-.692-.385-1.413-.716-2.085-1.139-2.067,3.82-3.922,7.681-5.62,11.681a2.514,2.514,0,0,1,2.449-.41" transform="translate(4.568 18.527)" fill="#ff5678" fill-rule="evenodd"/><path d="M72.732,11.9a3.536,3.536,0,0,1,.538.73c.149.314.062.617.152.917.111.37.539.535.279,1-.176.317-.6.391-.721.762-.219.665.541,1.276.842,1.8a1.435,1.435,0,0,1,.233,1c-.044.221-.236.385-.287.58-.087.342,0-.005.04.343s.189.739.216,1.119a10.918,10.918,0,0,0-.037,1.2,8.456,8.456,0,0,0,1.252,2.7c.421.611.769.828,1.461.554,3.7-1.46,4.443-5.464,5.192-8.884a29.4,29.4,0,0,0,.718-6.056c.024-2.169.191-4.34.032-6.508-.612.176-1.377.238-1.8.764-.227.281-.231.634-.448.89a8.444,8.444,0,0,1-1.3.937L73.281,10.1l-.811.607c-.278.208-.354.175-.309.477.035.238.421.538.571.715" transform="translate(13.227 0.799)" fill="#ff5678" fill-rule="evenodd"/><path d="M95.072,22.276c-.348.454-1.008.556-1.431.975A3.836,3.836,0,0,0,92.8,24.7a5.655,5.655,0,0,0-.56,1.971,15.69,15.69,0,0,1-.348,2.048c-.072.468-.047.612.426.749a5.868,5.868,0,0,0,2.129.105c3.229-.33,5.776-2.831,7.735-5.17a94.877,94.877,0,0,0,5.963-8.585c-.925-.522-1.927-.912-2.809-1.507-.83-.56-1.572-1.263-2.389-1.854-.112.34-.112.729-.252,1.058-.159.375-.382.437-.722.65a4.97,4.97,0,0,0-1.5,1.508,13.865,13.865,0,0,1-.974,1.737,9.78,9.78,0,0,1-1.459,1,14.075,14.075,0,0,0-1.788,2.16c-.446.545-.757,1.159-1.174,1.7" transform="translate(16.841 2.504)" fill="#ff5678" fill-rule="evenodd"/><path d="M43.988,48.631c.125.34.385.815.195,1.175-.346.657-.69-.312-1.03-.469a14.457,14.457,0,0,0,.288,1.678,2.656,2.656,0,0,1,.159,1.14c-.074.417-.417.652-.421,1.075a7.777,7.777,0,0,0,.263,1.188c-.649-.077-.789-.161-1.183.33a2.767,2.767,0,0,1,.689.189c.187.153.09.08.132.364a9.607,9.607,0,0,1-.027,1.418c-.015.472-.285.386-.49.71a1.584,1.584,0,0,0-.07.911c.05.345.336.724.295,1.07-.051.419-.448.444-.645.757-.258.412-.03.714.085,1.137a12.978,12.978,0,0,1,.21,1.777c2.832-5.706,5.051-11.7,8.223-17.23q.117-.2.231-.4l-.281-.166c-.042-.278-.03-.622-.055-.93-.055-.667-.239-1.315-.324-1.978-.094-.741.07-1.453,0-2.186-.025-.254-.084-.506-.089-.762a7.316,7.316,0,0,1,.232-1.012c.03-.35-.174-.815-.176-1.191a5.9,5.9,0,0,1,.073-.88c.112-.78.346-1.537.464-2.317.242-1.6.257-3.23.531-4.829-.427.63-.909,1.22-1.333,1.853s-.694,1.325-1.077,1.975a10.312,10.312,0,0,1-1.136,1.532c-.349.4-.344.374-.2.87a1.718,1.718,0,0,1,.108.688c-.148.971-1.6.643-1.388,1.7.107.534.508,1.025.29,1.6-.2.512-.782.773-1,1.282-.245.56.083.945.1,1.489a1.52,1.52,0,0,1-.517,1.166c-.444.444-.424.736-.538,1.366a4.918,4.918,0,0,1-.586,1.581c-.282.484-.629.63-.481,1.175.108.394.343.78.485,1.166" transform="translate(7.704 5.572)" fill="#ff5678" fill-rule="evenodd"/><path d="M38.061,55.6a18.575,18.575,0,0,0,2.261,5.272,21.265,21.265,0,0,0,.5-2.818c.047-.955.079-1.9.184-2.854.2-1.781.528-3.544.892-5.3.764-3.678,1.488-7.361,2.266-11.036q-1.732,2.751-3.451,5.51-.834,1.347-1.666,2.7A7.988,7.988,0,0,0,37.639,49.6a18.673,18.673,0,0,0-.015,3.15,12.951,12.951,0,0,0,.437,2.848" transform="translate(6.886 7.345)" fill="#ff5678" fill-rule="evenodd"/><path d="M51.7,36.22c.02.252.2.531.246.789a5.778,5.778,0,0,1,.063.935c.018.752.05,1.5.075,2.258,1.52-2.093,2.335-4.582,3.705-6.766a20.811,20.811,0,0,0,1.683-2.891c.478-1.133.919-2.261,1.471-3.363.3-.6.611-1.2.909-1.8.143-.289.294-.425.14-.707a.783.783,0,0,0-.4-.3c-.394-.084-.624.382-.937.54a10.24,10.24,0,0,1-1.411.293c-1.031.347-2.02.99-3.03,1.412-.322.134-.554.187-.528.573.023.342.376.273.012.571-.2.161-.454.086-.68.064a3.2,3.2,0,0,1-.209,1.847,2.994,2.994,0,0,0-.2,1.489,6.233,6.233,0,0,1-.527,1.889c-.224.552-.558.984-.232,1.56.18.317.566.549.341.912-.2.325-.525.2-.485.7" transform="translate(9.477 4.686)" fill="#ff5678" fill-rule="evenodd"/><path d="M48.41,117.7c-1.1-.65-.058-1.311,0-1.919Zm-1.675-3.713c-.165.008-.73.068-.832.24a6.171,6.171,0,0,0,.044.889c0,.541-.058,1.08-.028,1.621s.308,1.063.331,1.594c.022.5-.294.767-.443,1.211-.2.586.065,2.2.718,2.363a5.867,5.867,0,0,1,.14-1.253c.312-.148.464.661.553.881a7.768,7.768,0,0,0,1.528-3.179q.7-1.982,1.4-3.965c-.573-.057-1.148-.092-1.718-.167a9.771,9.771,0,0,0-1.692-.235Z" transform="translate(8.386 21.118)" fill="#ff5678" fill-rule="evenodd"/><path d="M33.832,145.692c-.486.2-.346.79-.331,1.306a1.914,1.914,0,0,0,.876,1.681c.229-.609,1.05-1.943.811-2.58a1.034,1.034,0,0,0-1.356-.408" transform="translate(6.136 26.913)" fill="#ff5678" fill-rule="evenodd"/><path d="M113.058,22.165c.32-.292.815-.482.875-.957a5.188,5.188,0,0,0-.524-1.683q-.176,1.32-.351,2.64" transform="translate(20.727 3.799)" fill="#ff5678" fill-rule="evenodd"/><path d="M57.1,102.876c-.832,0,.068-1.734.2-2.131.262.448.89,2.136-.2,2.131M64.035,80.99c.327-.2.947-.424,1.125-.794.206-.429-.217-.425-.591-.451a6.134,6.134,0,0,0-1.449.025c-.441.086-.63.187-1.043-.074-.235-.147-.457-.514-.726-.567s-.6.24-.845.352a6.712,6.712,0,0,1-2.637.18,1.817,1.817,0,0,1-.933-.049c-.4-.187-.493-.435-.986-.4a6.139,6.139,0,0,1-2.231.08c-.508-.135-1.208-.671-1.754-.506-.508.154-.774.952-1.175,1.291a3.537,3.537,0,0,0-.742-1.989,16.327,16.327,0,0,0-2.26-1.276,20.442,20.442,0,0,1-3.889-4.1,17.792,17.792,0,0,0-1.8,3.472c-.483,1.224-.952,2.454-1.435,3.678-.972,2.464-2.009,4.905-3.075,7.331-2.163,4.927-4.592,9.719-6.719,14.664A9.494,9.494,0,0,1,35,103.288a1.289,1.289,0,0,1,.553.534c.1.137.24.471.425.517.108.027.454-.165.625-.14a1.351,1.351,0,0,1,.63.357c1.225.965,2.448,1.982,3.61,3.024a6.065,6.065,0,0,1,1.259,1.547,5.627,5.627,0,0,0,1.439,1.609,13.277,13.277,0,0,1,2.235,3.275,15.2,15.2,0,0,1,1.08,1.906,5.2,5.2,0,0,0,.863,1.8c1.049,1,2.69.424,3.96.589.5.065.621.206,1.071,0,.005-.177.072-.24.2-.19a1.084,1.084,0,0,1,.4.2c.331.18.646.4.967.595l.561-1.384c-.21,0-.97.088-1.089-.229-.1-.266.318-.341.475-.505.174-.183.277-.779.616-.766.279.01.263.254.259.492.6.012.594-.51.7-.955.069-.3.165-.595.243-.892.052-.2.388-1.024.3-1.2-.214-.43-1.587-.4-.712-.928.279-.167.934-.114,1.15-.35.172-.189.187-.963.239-1.223-.408.028-.9.275-1.149-.088-.362-.525.166-1.327.433-1.766.345.272.561.569.954.255a3.4,3.4,0,0,0,.965-1.451c-.456-.014-.375.077-.606-.279a3.153,3.153,0,0,1-.235-.783c-.134-.468-.405-.824.159-.949.353-.078.441,0,.544.339a11.1,11.1,0,0,1,.139,1.671,2.885,2.885,0,0,0,.911-2.391c-.352.349-.388.255-.812-.017s-.841-.553-1.26-.831c.53-.481,1.372-.015,1.895-.411.356-.268.174-1.092.2-1.463a11.686,11.686,0,0,0,.2-1.4c-.029-.5-.608-.727-.3-1.19.215-.324.715-.275.808-.761s-.4-.78-.766-.993c.543-.176,1.586-.364,1.1-1.091-.232-.344-.513-.374-.508-.861a2.715,2.715,0,0,1,.387-1.04c.2.466.5,1.559,1.135,1.521.526-.031.994-.5.843-.981-.467-1.469-1.8-1.576-3.088-1.852.242-.89.879-.839,1.523-.386.381.267.62.492,1.105.217.506-.287.261-.394.038-.806-.455-.839.175-1.32.793-1.809a9.61,9.61,0,0,0,.831-.94,3.941,3.941,0,0,1,1.207-.565,1.777,1.777,0,0,0-1.419-.29c-.348.119-.6.353-1,.151-.888-.45.265-.565.384-.936.067-.211-.161-.639-.075-.939a3.234,3.234,0,0,1,.448-.83,2.156,2.156,0,0,0,.54-1.828A1.647,1.647,0,0,1,64,86.514a12.339,12.339,0,0,0,.16,1.868c.027-.907.86-1.512,1-2.384.044-.272-.178-.939.081-1.084.2-.114.617.176.831.178a16.149,16.149,0,0,0-.454-2.5c-.274-.784-.988-1.085-1.586-1.6" transform="translate(5.659 13.549)" fill="#ff5678" fill-rule="evenodd"/></g><g transform="translate(0)"><path d="M390.671,83.983c-1.1.231-2.167.587-3.279.8-1.318.25-2.637.48-3.965.672a3.225,3.225,0,0,0-2.284,1.078c-1.09,1.388-2.187,3.78-.686,5.253.706.691,1.943.474,2.85.762a17.223,17.223,0,0,0,3.011.815A134.468,134.468,0,0,1,401,96.386a49.149,49.149,0,0,1,6.512,2.137,16.414,16.414,0,0,1,3.1,1.59,12.57,12.57,0,0,1,2.431,1.856,25.463,25.463,0,0,1-8.252.052c-1.326-.225-2.659-.162-4-.263s-2.679-.2-4.018-.314c-1.3-.114-2.588-.258-3.878-.452a5.214,5.214,0,0,0-1.444-.079,1.868,1.868,0,0,1-.714.063c-.215-.049-.445-.217-.661-.29a11.673,11.673,0,0,0-3.07-.326,8.738,8.738,0,0,0-2.359-.1c-1.353.3-1.97,2.2-2.28,3.364a4.449,4.449,0,0,0,.2,2.372c.272.832.773.817,1.444,1.194a24.8,24.8,0,0,0,2.833,1.552c.866.353,1.752.66,2.609,1.036a54.006,54.006,0,0,1,5.709,2.586c.963.566,1.876,1.131,2.886,1.621a19.524,19.524,0,0,1,2.618,1.522,20.035,20.035,0,0,1,4.428,4.27,4.453,4.453,0,0,1-1.619-.122c-.686-.242-1.327-.6-2.022-.818-1.324-.418-2.622-.812-3.931-1.288s-2.647-.949-3.982-1.344c-.684-.2-1.375-.292-2.069-.441a10.691,10.691,0,0,1-1.734-.638,82.713,82.713,0,0,0-8.622-2.457c-2.8-.783-5.563-1.6-8.418-2.149-1.33-.257-2.662-.5-4-.684a9.1,9.1,0,0,0-3.727.338,25.04,25.04,0,0,0-3.824,1.244,10.494,10.494,0,0,0-2.975,1.445,5.893,5.893,0,0,1-1.244,1.127,8.73,8.73,0,0,1-1.3.551c-1,.364-1.95.841-2.945,1.217a6.772,6.772,0,0,1-1.947.466,3.146,3.146,0,0,0-1.441.477,20.179,20.179,0,0,1-2.834.942c-.944.3-2.019,1.086-3.042.727-.994-.349-1.63-1.629-2.222-2.423a24.645,24.645,0,0,1-3.771-6.627c-.92-2.62-1.8-5.255-2.69-7.885q-.7-2.051-1.4-4.1c-.262-.757-.807-1.572-.213-2.272.688-.811.933-2.09,1.645-3s1.5-1.732,2.254-2.6c.438-.506.866-1.022,1.256-1.567.319-.446.556-.993.91-1.407.323-.376.8-.6,1.15-.945.385-.378.727-.826,1.079-1.234.925-1.072,1.8-2.208,2.791-3.224.815-.839,1.745-1.585,2.581-2.411,1.812-1.789,3.736-3.459,5.615-5.176,1.828-1.672,3.7-3.29,5.478-5a49.24,49.24,0,0,1,5.554-4.256,68.083,68.083,0,0,1,6.234-4.272,18.226,18.226,0,0,1,6.607-1.9,8.948,8.948,0,0,1-.709,1.359,23.2,23.2,0,0,1-1.572,1.719q-1.577,1.716-3.172,3.414c-2.07,2.2-4.237,4.319-6.246,6.58a15,15,0,0,0-3.506,5.98,4.346,4.346,0,0,0,.227,3.692c.573.867,1.514.8,2.464.715,2.447-.219,4.874-1.052,7.3-1.484,2.692-.481,5.446-.6,8.164-.889,1.364-.146,2.712-.521,4.076-.624.615-.046,1.223.079,1.837.028s1.225-.2,1.827-.312a11.325,11.325,0,0,1,3.7-.2,17.328,17.328,0,0,0,3.769-.068,43.208,43.208,0,0,1,8.133.359,58.56,58.56,0,0,1,7.613,1.2c-2.623.668-5.241,1.351-7.879,1.96-2.693.621-5.474,1.039-8.117,1.84-1.15.349-2.332.4-3.5.644ZM183.031,139.561c.287-1.044.578-2.165.943-3.207a2.164,2.164,0,0,1,.35-.606,5.776,5.776,0,0,0-.589,1.377c-.245.809-.47,1.624-.7,2.436Zm-.575,1.067c.06-.132.125-.26.2-.387-.072.127-.138.255-.2.387Zm-.21.517c.046-.129.1-.255.15-.381-.054.125-.1.252-.15.381Zm.728-1.385a4.16,4.16,0,0,0-.27.4,4.033,4.033,0,0,1,.27-.4Zm160.562-9.737a13.226,13.226,0,0,0-2.921,2.011c-1.932,2.081-4.013,4.05-5.872,6.195-.747.861-1.124,1.928-1.959,2.729a25.859,25.859,0,0,1-3.18,2.37c-2.384,1.666-4.745,3.468-7.261,4.93-.564.327-1.135.667-1.717.961a6.415,6.415,0,0,0-1.2.569c-.32.26-.448.646-.8.9-.257.187-.565.339-.833.509q-3.31,2.1-6.662,4.12c-2.185,1.32-4.369,2.657-6.507,4.052-1.136.741-2.21,1.574-3.352,2.3-.929.6-1.9,1.125-2.813,1.748a23.636,23.636,0,0,1-2.927,1.855c-1.024.5-2.089.916-3.108,1.426-.6.3-1.144.665-1.715,1.011a4.74,4.74,0,0,1-1.095.332c-1.186.406-2.25,1.109-3.461,1.484-5.028,1.558-9.89-.665-14.273-3.028-2.209-1.191-4.22-2.717-6.336-4.06a29.768,29.768,0,0,1-2.927-1.7c-.426-.347-.59-.712-1.088-.986a9.218,9.218,0,0,1-1.269-.812,57.988,57.988,0,0,1-5.672-4.973c-.977-.987-1.954-1.978-2.908-2.988-.747-.792-1.329-1.754-2.018-2.6-1.659-2.042-3.268-4.113-4.867-6.2-.776-1.013-1.545-2.034-2.323-3.046a6.084,6.084,0,0,1-1.48-2.215,3.315,3.315,0,0,1,.7-2.236,18.4,18.4,0,0,0,1.533-3.084c.589-1.644,1.489-4.794-.31-5.973-.662,1.1-1.5,2.076-2.211,3.139s-1.027,2.425-1.888,3.379c-.9,1-2.111,1.729-3.06,2.7s-1.811,2.022-2.728,3.023c-.96,1.048-1.978,2.039-2.989,3.038a28.68,28.68,0,0,1-3.1,2.493,38.02,38.02,0,0,1-3.475,2.289,10.17,10.17,0,0,1-1.624.889,12.909,12.909,0,0,0-1.723.651c-2.375,1.229-4.77,2.408-7.181,3.563a11.327,11.327,0,0,1-2.025.913c-.267.066-.419.006-.713.1a9.484,9.484,0,0,0-.915.4c-1.238.546-2.5.967-3.783,1.4-2.667.894-5.376,1.709-8.013,2.685-2.469.914-4.871,1.9-7.416,2.61a45.249,45.249,0,0,1-7.736,1.067,12.45,12.45,0,0,0-2.174.19,3.728,3.728,0,0,1-1.581.249,14.306,14.306,0,0,0-3.373.3c1.741-3.428,2.645-7.332,3.906-10.962.334-.96.738-1.857,1.015-2.833a12.241,12.241,0,0,1,1.039-2.508,19.317,19.317,0,0,0,1.043-3.139c-.274.819-.422,1.692-.683,2.513.362-.691.751-1.366,1.1-2.066a3.71,3.71,0,0,0,.36-1.951c.936.107.971-.855,1.115-1.541.22-1.043.451-2.084.675-3.125a4.889,4.889,0,0,0,.135-.9,8.351,8.351,0,0,1,.3-.9c.816-2.314,1.714-4.587,2.306-6.972.654-2.63,1.226-5.285,1.814-7.93a35.373,35.373,0,0,0,.863-4.27c.065-.687.415-2.9-.558-3.213-.752-.239-1.558,2.054-1.754,2.558-.477,1.227-.928,2.463-1.382,3.7-.406,1.1-.721,2.221-1.174,3.309s-.618,2.246-1.024,3.362c-.238.656-.621,1.139-.883,1.766-.191.458-.262.955-.419,1.425-.325.973-.829,1.924-1.2,2.892-.469,1.237-1.047,2.428-1.561,3.646-.47,1.114-.739,2.289-1.181,3.406-.425,1.072-1.084,2.031-1.507,3.113-.464,1.19-.887,2.4-1.346,3.587-.948,2.459-1.909,4.9-2.651,7.429-.186.633-.5,1.255-.657,1.819a13.935,13.935,0,0,1-.591,1.425,16.076,16.076,0,0,0-.693,2.9h0l.055-.312c-.379.016-.786.1-1.05-.241-.3-.386-.217-1.135-.274-1.6-.446.058-.272.259-.223.663q.037.312.074.624l.187,1.56c.142-.084.441-.569.563-.582.186-.021.389.485.476.735a1.994,1.994,0,0,1-.118.277,4.96,4.96,0,0,0-.321.643,9.8,9.8,0,0,1-.532,1.385,3.485,3.485,0,0,1-.408.61c-.118.139-.506.37-.571.516-.162.367.085,1.282.062,1.709a4.431,4.431,0,0,1-.361,1.656c-.1.213-.287.341-.383.525a1.6,1.6,0,0,0-.172.728,13.578,13.578,0,0,1-.981,3.429c-.464,1.251-.826,2.537-1.247,3.8-.4,1.2-.908,2.349-1.33,3.538-.491,1.384-.928,2.786-1.388,4.179-.344,1.043-.87,1.971-1.239,3a18.2,18.2,0,0,0-1.095,3.087,17.921,17.921,0,0,1-1.3,3.55,15.222,15.222,0,0,0-1.336,2.956,7.959,7.959,0,0,1-.113,1.384c-.136.408-.394.755-.566,1.145-.236.537-.06,1.034-.223,1.582a4.878,4.878,0,0,1-.724,1.22c-.459.72-.3,1.553-.775,2.3a13.286,13.286,0,0,0-1.258,3.446c-.176.591-.305,1.2-.463,1.794a4.631,4.631,0,0,1-.22.927c-.158.275-.426.168-.562.326a2.78,2.78,0,0,0-.2.757,15.429,15.429,0,0,1-.627,1.638c-.488,1.153-1.049,2.276-1.472,3.456q-.663,1.852-1.328,3.7c-.21.587-.415,1.176-.642,1.757a3.5,3.5,0,0,1-.83,1.18c-.368.429-.521,1.03-.865,1.484a3.346,3.346,0,0,0-.684,1.271,20.3,20.3,0,0,1-.88,2.956c-1.054,2.412-2.367,4.707-3.424,7.121-1.108,2.531-2.159,5.088-3.119,7.679-.9,2.432-1.476,4.954-2.4,7.377-.911,2.4-1.7,4.835-2.594,7.24-.933,2.5-1.87,4.994-2.706,7.526a25.475,25.475,0,0,0-.7,2.742c.061-.415.119-.82.189-1.2-.889,1.488-1.707,3.107-1.316,4.889a4.728,4.728,0,0,0,.576-1.144,3.621,3.621,0,0,1-.206.605,9.553,9.553,0,0,0-.653,1.519c-.375,1.3-.754,2.6-1.123,3.9-.178.627-.344,1.259-.552,1.876-.185.549-.588,1.025-.758,1.56-.191.6-.125,1.333-.272,1.958a5.812,5.812,0,0,1-.6,1.574,11.184,11.184,0,0,0-.7,1.119,4.957,4.957,0,0,0-.142,1.509c-.072.649-.3,1.267-.393,1.913-.085.621.205,1.008.316,1.6a2.951,2.951,0,0,1-.3,1.6c-.158.482-.249,1-.363,1.49-.049.211-.083.874-.233,1.014a3.376,3.376,0,0,1-.9.147,10.364,10.364,0,0,1-1.788.218,36.213,36.213,0,0,1-3.826-.32,37.541,37.541,0,0,1-7.557-1.467,43.11,43.11,0,0,1-6.8-2.989,29.779,29.779,0,0,1-5.9-4.377c-.984-.893-1.92-1.837-2.857-2.778-.451-.452-.9-.905-1.356-1.352-.364-.357-.835-.7-.871-1.248a5.038,5.038,0,0,1,.626-1.894q.294-.751.578-1.506c.465-1.229.922-2.462,1.378-3.693q1.422-3.826,2.838-7.653c.955-2.566,1.934-5.075,3.088-7.557,1.1-2.376,2.109-4.772,3.026-7.227.867-2.318,1.9-4.552,2.88-6.821.527-1.219,1.027-2.451,1.431-3.716a18.734,18.734,0,0,1,1.1-3.054,10.646,10.646,0,0,0,.8-1.96,4.177,4.177,0,0,1,.66-1.6,10.881,10.881,0,0,0,1.7-3.417,55.356,55.356,0,0,1,2.924-7.1c1.165-2.3,2.455-4.5,3.517-6.853s2.522-4.489,3.522-6.89c2.063-4.953,4.906-9.513,7-14.452,2.059-4.866,4.511-9.54,6.614-14.386,1.1-2.532,2.159-5.08,3.16-7.653.477-1.228.95-2.457,1.444-3.678a30.123,30.123,0,0,0,1.536-3.085,15.278,15.278,0,0,1,1.4-3.111,35.943,35.943,0,0,0,1.314-3.529c.984-2.493,2.012-4.97,3.064-7.435,1.082-2.535,2.236-5.034,3.36-7.551.424-.951.661-1.974,1.1-2.919.217-.47.658-.869.853-1.318.09-.209.069-.5.143-.723a7.8,7.8,0,0,1,.428-.883c1.127-2.306,2.375-4.524,3.4-6.878,1.05-2.407,2.124-4.812,3.047-7.271.912-2.43,2.067-4.721,2.851-7.2.374-1.183.747-2.372,1.032-3.58a9.56,9.56,0,0,0,.481-3.689c-.147-.666-.92-2.022-1.7-1.409a7.215,7.215,0,0,0-1.55,2.48c-.592,1.2-1.22,2.377-1.728,3.613a19.088,19.088,0,0,1-1.33,2.85c-1.351,2.2-2.426,4.5-3.643,6.775a7.8,7.8,0,0,1-.973,1.383c-.364.428-.261.633-.409,1.176a20.54,20.54,0,0,1-1.484,2.675,34.056,34.056,0,0,1-1.7,3.537c-.587,1-1.127,2.011-1.614,3.064-1.109,2.4-2.176,4.828-3.25,7.248-.571,1.283-1.124,2.576-1.75,3.833-.275.552-.544,1.113-.842,1.652-.194.351-.545.638-.709.995-.186.4.018.747-.14,1.142-.184.458-.384.644-.784.377-.892-.6-1.071-1.876-1.55-2.787A22.3,22.3,0,0,1,137.428,139a23.049,23.049,0,0,1-.132-4.091c.008-1.21.727-2.032,1.359-3.032,1.484-2.352,2.97-4.7,4.48-7.037.664-1.027,1.243-2.107,1.923-3.122.657-.98,1.533-1.7,2.254-2.615.4-.507.7-1.063,1.127-1.552a10.859,10.859,0,0,0,1-1.3c.563-.88.947-1.831,1.565-2.685,1.458-2.014,2.941-4.017,4.477-5.972a16.5,16.5,0,0,1,2.8-2.52c.992-.814,1.88-1.742,2.794-2.64a60.374,60.374,0,0,1,5.38-5.043c2-1.539,4.076-3.01,6.2-4.382a15.651,15.651,0,0,0,3.184-2.1,5.121,5.121,0,0,1,1.151-.994c.426-.253.923-.32,1.339-.551a29.919,29.919,0,0,0,3.326-2.547l3.193-2.445a8.951,8.951,0,0,0,1.619-1.19c.184-.248.161-.594.369-.854.47-.591,1.4-.646,2.059-.9a22.544,22.544,0,0,1,3.887-1.007,24.726,24.726,0,0,0,3.415-1.123,31.5,31.5,0,0,1,7.608-1.615c-1.167,3.442-2.492,6.834-3.385,10.363a27.423,27.423,0,0,1-1.025,4.447c-.217.485-.8.948-.507,1.5a3.869,3.869,0,0,0,1.2,1.1c.8.52,1.786-.057,2.572-.371a20.37,20.37,0,0,1,4.028-1.454c1.474-.253,2.713-1.649,4.243-1.626a2.617,2.617,0,0,1,1.639.713c.493.411,1.051.74,1.53,1.171a12.1,12.1,0,0,0,3.6,2.289c.461.182.855.088,1.282.441.318.264.571.643,1,.741a63.516,63.516,0,0,0-5.692,6.719,13.811,13.811,0,0,0-1.922,3.727c-.217.653-.417,1.151,0,1.782a1.086,1.086,0,0,0,1.028.57c1.04-.16,1.964-1.564,2.54-2.334.669-.893,1.4-1.72,2.1-2.592a33.2,33.2,0,0,1,4.536-5.195,15.512,15.512,0,0,1,1.674-1.31c.474-.29.809-.069,1.335-.161a13.6,13.6,0,0,0,3.673-1.514c1.274-.645,2.547-1.289,3.831-1.913.672-.327,1.66-1.019,2.449-.688.882.37,1.381,1.75,1.865,2.489a4.533,4.533,0,0,0,1.644,1.73c1.25.663,3.679,1.468,4.774.192,1.55-1.807,1.393-4.765,1.26-6.98a29.993,29.993,0,0,1-.145-4.087c.092-1.2.232-2.391.35-3.587a44.02,44.02,0,0,1,6.112,5.837c.971,1.169,1.978,2.306,2.981,3.448a8.4,8.4,0,0,1,1.3,1.746,7.11,7.11,0,0,0,1.155,1.557,20.911,20.911,0,0,1,2.245,3.472q1.015,1.681,2,3.38a57.328,57.328,0,0,1,3.464,6.766c.509,1.231,1.2,2.348,1.723,3.573s1.026,2.433,1.522,3.656c.286.706.63,1.418.853,2.146.155.506.018,1.147.2,1.616.178.451.606.846.795,1.331s.3,1.009.5,1.5c.956,2.4,2.266,4.686,3.335,7.037,1.11,2.44,2.218,4.884,3.547,7.216a66.575,66.575,0,0,0,4.672,6.715c.851,1.141,1.731,2.265,2.547,3.43a6.413,6.413,0,0,0,.948,1.24,5.616,5.616,0,0,0,1.271.66,3.218,3.218,0,0,0,.46-1.752,10.778,10.778,0,0,0-.495-1.755c-.358-1.1-1.3-2.092-1.061-3.317a7.188,7.188,0,0,1,1.862-2.909q1.4-1.71,2.816-3.412c3.162-3.812,6.518-7.465,9.792-11.189,1.666-1.895,3.3-3.823,5.024-5.667.773-.827,1.669-1.5,2.493-2.271.675-.632,1.12-1.429,1.756-2.086.472-.487,1.032-.842,1.513-1.334l1.17-1.2q1.289-1.318,2.567-2.644c1.7-1.774,3.292-3.645,4.969-5.441,3.237-3.469,6.663-6.8,10.043-10.127.976,2.883,1.783,5.888,2.482,8.851a18.6,18.6,0,0,0,.5,2.189c.254.689.587,1.352.854,2.038.594,1.523,1.049,3.147,1.788,4.6,1.4,2.755,2.639,5.951,4.663,8.322a32.58,32.58,0,0,0,3.559,3.2l3.79,3.279c-1.137.856-2.265,1.715-3.466,2.48ZM238.9,148.326a1.042,1.042,0,0,0-.323-.462.734.734,0,0,1,.266.33,10.213,10.213,0,0,1,.505,1.345c-.14-.408-.279-.816-.449-1.212ZM208.365,170.17c.873.977,1.8,1.909,2.681,2.877.815.892,1.469,1.869,2.2,2.828q2.365,3.1,4.939,6.028c1.648,1.884,3.428,3.66,5,5.608a38.963,38.963,0,0,1,3.939,6.234,17.319,17.319,0,0,0,1.906,2.886,5.9,5.9,0,0,1,1.025,1.279,10.693,10.693,0,0,1,.452,1.808c1.226,5.234,2.48,10.464,3.662,15.709.573,2.542.956,5.119,1.509,7.664.561,2.577,1.4,5.08,1.931,7.665,1.073,5.236,1.807,10.542,2.961,15.761,1.123,5.081,3.074,9.912,4.133,15.015a4.762,4.762,0,0,1,.2,2.1,8.158,8.158,0,0,0-.254,1.757,4.718,4.718,0,0,1-.745,2.839,12.259,12.259,0,0,1-4.929,4.285,18.188,18.188,0,0,1-3.229,1.408c-.554.131-1.092.044-1.641.126a6.934,6.934,0,0,0-1.528.68c-2.049.842-4.665.59-6.84.591a16.7,16.7,0,0,1-7.017-1.161c-.181-.082-.36-.169-.536-.26q-.448-.069-.158-.4c0-.242.139-.519.15-.776a5.407,5.407,0,0,0-.277-1.59q-.487-1.856-.913-3.726c-1.173-5.171-1.729-10.422-2.45-15.667-.372-2.706-.913-5.387-1.379-8.077-.447-2.583-.715-5.176-1.054-7.774s-.7-5.174-1.045-7.76c-.191-1.416-.6-2.807-.781-4.217a31.342,31.342,0,0,0-.1-3.147c-.569-2.52-.593-5.134-1.235-7.638-.661-2.58-1.619-5.116-2.509-7.624q-.691-1.949-1.381-3.9a3.042,3.042,0,0,0-1.373-1.961c-.438-.2-.872-.181-1.265-.485a14.457,14.457,0,0,1-1.329-1.314c-.926-.932-1.846-1.87-2.775-2.8a141.163,141.163,0,0,0-11.112-10.6,49.853,49.853,0,0,0-5.63-4.377c-2.2-1.3-4.374-2.647-6.577-3.943a24.409,24.409,0,0,0-3.371-1.655c-1.034-.414-.4-1.4-.1-2.2.462-1.238.862-2.5,1.248-3.76.292-.955.451-2.192,1.429-2.71.639-.339.918.056,1.532.247a3.918,3.918,0,0,0,1.345.137,17.3,17.3,0,0,1,3.212-.344,4.182,4.182,0,0,0,1.694.009,18.073,18.073,0,0,1,1.866-.158c1.138-.085,2.31-.1,3.434-.3a46.719,46.719,0,0,0,7.316-1.827c2.527-.886,4.936-2.115,7.359-3.247a14.977,14.977,0,0,0,.735,3.305,4.8,4.8,0,0,0,1.68,2.424c1.767.981,2.691,2.672,4,4.137Zm36.947,106.26c.767-.417.913.169,1.368.8q1.866,2.579,3.752,5.142,1.834,2.5,3.672,4.994c1.147,1.561,2.414,3.049,3.468,4.675a41.894,41.894,0,0,1,2.771,5.3c.706,1.534,1.732,3.132.991,4.841-.689,1.587-2.648,2.257-4.073,3.012-1.8.954-3.221,1.628-5.259.9a100.939,100.939,0,0,1-11.35-5.022c-3.367-1.693-5.914-4.195-8.7-6.652-1.465-1.29-2.984-2.478-4.355-3.876-1.425-1.454-2.783-2.973-4.217-4.418-2.233-2.248-4.574-4.237-4.189-7.718a51.292,51.292,0,0,0,6.438,2.038,29.4,29.4,0,0,0,7.087.6,20.61,20.61,0,0,0,2.96-.531c.975-.194,1.969.008,2.885-.471a9.1,9.1,0,0,1,2.24-1.148,7.139,7.139,0,0,0,2.541-1.089,22.49,22.49,0,0,1,1.972-1.384Zm-67.229-92.364a.177.177,0,0,1,.062.024.308.308,0,0,0-.062-.024Zm-2.482-1.4c.023.014.047.031.07.048-.023-.017-.047-.032-.07-.048ZM129.939,305.611q1.516,2.692,2.947,5.435c.474.909.928,1.828,1.375,2.75a6.055,6.055,0,0,1,.833,2.448,14.883,14.883,0,0,1-5.7-2.445,29.609,29.609,0,0,1-4.795-3.884c-1.472-1.4-2.975-2.776-4.551-4.054a19,19,0,0,0-2.292-1.572,3.158,3.158,0,0,1-.694-.5c-.245-.255-.334-.7-.631-.893-.606-.393-1.555.194-2.1.459a9.057,9.057,0,0,0-2.016,1.3,19.246,19.246,0,0,0-1.75,2.081c-.558.65-1.123,1.271-1.625,1.967a28.588,28.588,0,0,1-3.823,4.555,20.433,20.433,0,0,0-2.061,1.737,13.6,13.6,0,0,1-1.765,1.744,33.483,33.483,0,0,0-3.918,3.761c-1.36,1.538-2.907,2.916-4.375,4.348a3.428,3.428,0,0,1,.577-2.447c.466-.912.8-1.9,1.184-2.846q1.271-3.1,2.838-6.049c.974-1.832,1.972-3.651,2.916-5.5.783-1.534,2-3.427,1.621-5.219-.146-.7-.526-1.753-1.281-1.987s-1.509.427-2.115.786a43.822,43.822,0,0,1-5.521,2.673c-1.9.792-3.812,1.563-5.639,2.511-1.772.919-3.445,2.019-5.217,2.935-.876.452-1.8.788-2.671,1.261-.835.456-1.643.959-2.474,1.422a15,15,0,0,1-5.218,1.824,25.694,25.694,0,0,1,4.779-4.295c1.979-1.54,3.945-3.092,5.989-4.546,1.836-1.308,3.7-2.566,5.5-3.928.841-.637,1.671-1.287,2.474-1.97A3.74,3.74,0,0,0,92.3,297.4a2.359,2.359,0,0,0-.939-2.272,3.326,3.326,0,0,0-2.389-.258,47.665,47.665,0,0,0-6.537,1.619c-.494.143-1,.379-1.5.494a9.445,9.445,0,0,1-1.6.093c-.959.048-1.917.1-2.871.221-1,.128-2.013.091-3,.25a12.764,12.764,0,0,1-2.45.61c-4.092-.1-7.89,2.176-11.938,2.176q3.622-2.124,7.26-4.218c1.113-.64,2.27-1.209,3.344-1.912,1.19-.778,2.282-1.661,3.51-2.388,4.395-2.6,9.284-4.5,13.292-7.705.972-.777,1.9-1.612,2.837-2.43a4.263,4.263,0,0,1,.744-.648c.4-.189.273-.242.626.12a10.817,10.817,0,0,1,.981,1.336,20.8,20.8,0,0,0,4.613,4.662,37.424,37.424,0,0,0,6.732,3.494,68.356,68.356,0,0,0,7.051,3.018,38.67,38.67,0,0,0,7.615,1.532,32.136,32.136,0,0,0,7.935-.2,13.485,13.485,0,0,0,1.316,5.575c.9,1.731,2.046,3.336,3,5.037Zm10.2-154.249a5.266,5.266,0,0,1,.64.129c-.164-.041-.373-.043-.5-.077-.051-.014-.1-.034-.145-.052Zm.727,1.169a2.441,2.441,0,0,0,.213-.606,1.738,1.738,0,0,1-.213.606Zm-23.179,34.264c-3.019,1.8-5.725,4.055-8.65,5.993a45.508,45.508,0,0,1-4.544,2.63c-.753.383-1.512.763-2.3,1.077-.681.272-1.336.711-2.033.917a5.675,5.675,0,0,1-2.3,0A3.314,3.314,0,0,1,96,196.933c-.99-.8-1.632-2.386-2.22-3.468a37.115,37.115,0,0,1-2.427-4.815,28.226,28.226,0,0,1-1.6-4.576,2.605,2.605,0,0,0,.038-2.635c-.2-.4-.459-.775-.7-1.158-.268-.432-.256-.532-.738-.54q.694,2.155,1.387,4.309c-.456-1.413-1.073-2.859-1.387-4.309a27,27,0,0,0-.831-3.724c-.23-.627-.594-1.216-.774-1.857a11.328,11.328,0,0,1-.215-1.626c-.2-1.507-.584-3-.822-4.5-.453-2.871-.745-5.773-1.294-8.627-.566-2.936-1.294-5.854-1.935-8.776-.244-1.115-.681-2.071.407-2.831,1.043-.727,2.2-1.334,3.3-1.967a28.974,28.974,0,0,1,3.2-1.676,16.372,16.372,0,0,0,2.71-1.338,6.228,6.228,0,0,1,1.686-.543c.622-.2,1.237-.434,1.853-.652q1.7-.6,3.395-1.208c.619-.221,1.889-1.031,2.469-.417a3.058,3.058,0,0,1,.42,1.378q.209.98.4,1.964c.5,2.539.973,5.087,1.367,7.645.386,2.509.606,5.043,1,7.551a8.761,8.761,0,0,1,.345,1.991c-.045.455-.361.7-.673.993a29.755,29.755,0,0,0-2.241,2.376c-.779.923-1.524,1.877-2.366,2.745a13.045,13.045,0,0,0-2.125,2.638c-.5.866-1.16,1.679-.929,2.715.18.806.414,1.607,1.371,1.276A10.269,10.269,0,0,0,101,171.045c.849-.74,1.688-1.492,2.553-2.213.957-.8,2.026-1.469,2.95-2.3.8-.721,1.491-1.559,2.253-2.321,1.828-1.829,3.795-3.468,5.739-5.166.9-.783,1.611-1.74,2.423-2.6s1.671-1.634,2.512-2.445c1.825-1.759,3.723-3.529,5.423-5.409.814-.9,1.688-1.742,2.508-2.637.338-.369.589-.856.911-1.207s.79-.559,1.139-.877c1.524-1.392,2.374-3.327,3.878-4.745a23.949,23.949,0,0,1,.976,2.685,11.4,11.4,0,0,0,.949,2.588c.222.352.6.606.789.973a8,8,0,0,1,.264,1.141,13.053,13.053,0,0,0,1.14,2.1A11.986,11.986,0,0,0,139,150.6a3.422,3.422,0,0,0,.457.42c-.066-.037-.132-.074-.2-.109a4.555,4.555,0,0,0,1.6,1.634c-.022.044-.043.087-.062.128a26.893,26.893,0,0,0-1.11,2.451c-.518,1.491-1.278,2.885-1.768,4.386a16.677,16.677,0,0,1-.749,2.408c-.337.673-.775,1.29-1.105,1.968-.77,1.586-1.272,3.325-1.879,4.977-.627,1.707-1.351,3.357-2.126,5s-1.487,3.288-2.168,4.957a10.4,10.4,0,0,1-1.034,2.256,3.828,3.828,0,0,1-2.075,1.187,53.448,53.448,0,0,0-9.1,4.526ZM79.918,138.383c-1.785-1.51-4.275-1.085-6.467-1.094-2.546-.011-5.08.49-7.617.661s-5.084.292-7.626.239a36.9,36.9,0,0,1-6.749-.722,27.757,27.757,0,0,0-3.293-.437,1.94,1.94,0,0,1-1.7-.927,7.661,7.661,0,0,1-.377-3.134,7.479,7.479,0,0,1,.2-3,3.215,3.215,0,0,1,2.012-1.613c1.021-.392,2.043-.779,3.065-1.171,4.137-1.585,8.392-3.4,12.849-3.779,1.238-.106,2.48-.117,3.72-.154,1.066-.032,2.051-.291,3.1-.4a61.881,61.881,0,0,0,6.517-.74c.6-.126.97.191,1.576.287a6.19,6.19,0,0,0,1.427.028,18.216,18.216,0,0,1,2.9-.107c1.157.1,2.322.159,3.47.338,1.031.161,2.029.44,3.069.557a31.636,31.636,0,0,1,3.367.424c.559.125,1.411.246,1.74.783.436.711.109,2.076.066,2.861-.06,1.106-.128,2.213-.116,3.322a19.226,19.226,0,0,0,.424,3.545,7.027,7.027,0,0,1,.335,2.72.769.769,0,0,1-.957.632c-.345-.053-.629-.392-.948-.433-.62-.08-.017.384-.372.781-.285.32-.757.23-1.136.335a8.868,8.868,0,0,0-1.169.483c-.873.385-1.778.649-2.638,1.073-1.911.942-3.727,2.059-5.545,3.165a10.212,10.212,0,0,0-1.134-3.026,13.9,13.9,0,0,0-2.006-1.5ZM205.138,81.11c.41-1.156.949-2.285,1.29-3.462.122-.421.122-1.019.553-1.256a3.223,3.223,0,0,1,1.382-.07c.695.006,1.39,0,2.085-.005.348,0,.851-.081,1.055.284s-.128,1.066-.134,1.485a6.907,6.907,0,0,0,.3,1.868c.688,2.6,1.4,5.168,2.192,7.743-.788-.355-1.4-1.2-2.3-1.294-.568-.06-1,.279-1.528.366-.448.074-.893.1-1.338.2-2,.466-3.817,1.5-5.848,1.867A11.516,11.516,0,0,1,203.2,86.7c.2-.626.419-1.246.633-1.867.428-1.242.866-2.481,1.3-3.72Zm6.6-17.441c.961-.425,1.921-1.658,1.022-2.676-.485-.549-1.713-.261-2.347-.13-.89.184-4.307,2.412-4.727.9a5.463,5.463,0,0,1,.671-3.367,5.535,5.535,0,0,1,1.131-1.518c.493-.456.7-.317,1.3-.25,1,.112,1.932-.2,2.591.779.128.189.154.448.422.487.207.03.33-.226.539-.227.338,0,.375.233.507.5.345.684.851,2.029,1.877,1.469s1.1-2.4,1.1-3.386c0-1.532.106-3.063.189-4.592a4.585,4.585,0,0,1,1.054-3.228,16.9,16.9,0,0,1,2.49-2.717c1.142-.745,2.628-.661,3.937-.761a25.725,25.725,0,0,1,4.578-.127,30.625,30.625,0,0,0,4.581.161c1.524-.069,3.044-.163,4.569-.2,1.447-.037,2.961.085,4.394-.071.583-.063,1.36-.275,1.745.3a7.2,7.2,0,0,1,.525,2.6c-1.576-.29-4.147-1.017-4.752,1.209-.183.674.384,1.275.88,1.667a5.263,5.263,0,0,0,2.623.679c.492.069,1.285.056,1.573.55a4.826,4.826,0,0,1,.165,1.88c.135,2.167.444,4.318.669,6.476a24.756,24.756,0,0,1,.066,6.242c-.159,1.057-.592,2.05-.669,3.116-.047.659.056,1.407-.547,1.844a7.679,7.679,0,0,1-2.722.689c-1.083.239-2.153.525-3.218.833-1.688.488-3.747.731-4.355,2.619-.65,2.015-1.129,4.092-1.757,6.116a23.591,23.591,0,0,1-1.216,2.932,2.682,2.682,0,0,0-.413,1.245,4.565,4.565,0,0,0,.533,1.307,4.909,4.909,0,0,0,1.117-.608,7.553,7.553,0,0,0,.9-1.113,6.409,6.409,0,0,1,1.806-1.924,1.811,1.811,0,0,1-.067,1.1,6.994,6.994,0,0,1-.636.72c-.507.636-.995,1.288-1.544,1.888-1.094,1.194-2.418,2.178-3.556,3.337a21.4,21.4,0,0,1-3.612,3.4c-1.341.838-2.774,1.531-4.169,2.274,1.226-2.786.377-5.59-1.082-8.094-.679-1.166-1.5-2.236-2.269-3.346-.6-.878-1.774-2.056-1.746-3.184a3.546,3.546,0,0,1,.72-1.615,18.39,18.39,0,0,0,.849-1.716,14.306,14.306,0,0,0,1.445-3.714,4.96,4.96,0,0,0-.855-3.611c-.308-.364-.759-.329-1.159-.576a5.928,5.928,0,0,1-1.014-.932c-.366-.367-.815-.621-1.18-.984a6.77,6.77,0,0,1-.94-1.341c-.665-1.1-1.345-2.194-2.012-3.295Zm4.214-24.484a2.593,2.593,0,0,1,2.3,1.6c-.36.565-1.323,2.268-2.118,1.589-.147-.126-.216-.4-.394-.544a2.408,2.408,0,0,0-.574-.3,2.621,2.621,0,0,1-1.22-.806c-.664-1,1.308-1.552,2-1.541Zm22.523,43.207c.207-.056.845.363,1.049.453a6.059,6.059,0,0,1,1.171.578,3.456,3.456,0,0,1,.68.959c.069,2.508.227,5.035.208,7.55q-.1-3.776-.209-7.551a9.656,9.656,0,0,0-.4,2.039c0,.723.11,1.468.178,2.186.128,1.368.28,2.734.42,4.1-.019.788-.054,1.575-.122,2.359-1-1.391-1.982-2.8-2.985-4.189-.9-1.241-2.068-1.314-3.484-1.427l2.778-5.609c.106-.214.532-1.4.717-1.449Zm163.475,4.251a34.59,34.59,0,0,1,4.558-1.19,27.862,27.862,0,0,0,4.157-1.238c1.24-.363,2.494-.673,3.715-1.1a7.182,7.182,0,0,0,2.659-1.327,3.39,3.39,0,0,0,1.025-2.852c-.164-1.208-1.056-1.355-2.073-1.7a80.555,80.555,0,0,0-15.821-3.511,56.95,56.95,0,0,0-8.4-.748c-1.456.03-2.9.11-4.352.018-1.318-.085-2.66.409-3.956.152a11.588,11.588,0,0,0-3.9.272c-1.419.193-2.853.249-4.283.315a18.56,18.56,0,0,0-3.944.348,5.5,5.5,0,0,1-3.455.159c1.319-1.459,2.633-2.923,3.958-4.378,2.719-2.986,5.541-6.195,7.186-9.928.7-1.6,1.047-3.907-.129-5.4-1.046-1.325-3.329-1.052-4.786-.835a14.074,14.074,0,0,0-5.273,1.933,41.99,41.99,0,0,0-4.684,2.877c-1.388,1.127-2.989,1.873-4.393,2.979-1.447,1.141-2.906,2.246-4.371,3.361-3.164,2.41-5.792,5.472-8.788,8.077a55.423,55.423,0,0,0-4.5,4.431,23.513,23.513,0,0,0-1.95,2.282c-.482.685-.9,1.414-1.41,2.081-.61.8-1.376,1.465-2.018,2.239-.59.712-1.133,1.462-1.656,2.224-.551.8-1.079,1.617-1.626,2.422-.287.422-.561,1.142-1.138,1.068-.814-.1-1.264-.8-2.15-.321a4.282,4.282,0,0,0-.735.658,4.963,4.963,0,0,1-1.158.643,16.507,16.507,0,0,0-2.277,1.581,27.808,27.808,0,0,0-2.329,1.715c-3.071,2.775-5.905,5.748-8.858,8.638-.714.7-1.462,1.362-2.156,2.081-.552.573-.984,1.252-1.539,1.816a12.268,12.268,0,0,1-1.045.74,8.829,8.829,0,0,0-.849.991c-.649.744-1.29,1.495-1.956,2.225-1.3,1.43-2.747,2.675-4,4.158-1.281,1.516-2.725,2.9-4.035,4.4-2.755,3.151-5.344,6.37-7.877,9.7-1.256,1.652-2.671,3.188-3.87,4.882A36.1,36.1,0,0,0,284.5,138.7c-.243.5-.554,1.992-1.448,1.464-.319-.188-.534-.745-.732-1.053q-.4-.628-.8-1.257a51.1,51.1,0,0,1-3.305-5.62c-1.757-3.781-3.506-7.531-4.951-11.446-.731-1.981-1.565-3.911-2.4-5.85-.825-1.923-1.449-3.915-2.253-5.844a93.926,93.926,0,0,0-5.8-11.052,47.811,47.811,0,0,0-6.638-9.411c-1.41-1.447-2.519-3.107-4.009-4.493-.755-.7-1.535-1.379-2.289-2.082-.545-.508-1.009-1.263-1.683-1.6a2.912,2.912,0,0,0-1.5-.169c-.4.016-.843-.1-1.228-.066-.347.033-.487.334-.822.4a1.026,1.026,0,0,1-.837-.276c-1.7-1.175-4.029-1.682-5.973-2.387,1.23-.761,2.738-.789,4.111-1.11a8.477,8.477,0,0,0,3.2-1.47c2.1-1.586,2.453-4.094,2.834-6.548a31.03,31.03,0,0,0,.4-8.666q-.554-4.182-1.173-8.358a26.891,26.891,0,0,0-.864-3.976,10.3,10.3,0,0,1-.712-3.294,2.826,2.826,0,0,1,.46-1.824c.311-.3.768-.455,1.1-.746a8.393,8.393,0,0,0,1.877-2.43c.389-.746,1.019-1.841.646-2.7-.4-.937-1.692-1.109-2.556-1.333-2.557-.664-5.141-.557-7.738-.923a26.013,26.013,0,0,0-3.807-.524c-1.235.015-2.468.035-3.7.02a70.4,70.4,0,0,0-8.08.167c-.713.074-1.412.13-2.127.171a12.1,12.1,0,0,0-1.52.418,5.163,5.163,0,0,1-1.1-.144,6.3,6.3,0,0,0-1.642.078c-1.142.214-2.027.941-3.158,1.169a2.879,2.879,0,0,0-2.006,1.438c-1.142,1.978-1.2,4.707-1.3,6.923-.118,2.625.077,5.259-.06,7.879-.033.634-.1.89-.771.824a7.212,7.212,0,0,0-2.715-.094c-1.812.478-2.948,2.127-3.654,3.757a11.99,11.99,0,0,0-1.013,5.5c.11,1.641.715,3.762,2.523,4.237a5.217,5.217,0,0,0,2.86-.437c.861-.271,1.646-1.047,2.114.041a25.388,25.388,0,0,0,3.416,6.1c-1.421-.1-2.839-.234-4.26-.305a8.1,8.1,0,0,0-3.153.056c-.525.214-.548.584-.923.911-.414.361-1.216.207-1.728.191a32.239,32.239,0,0,0-4.492-.165c-1.142.118-2.174.684-3.308.9a22.628,22.628,0,0,0-4.054,1.327c-1.225.488-2.427,1.011-3.688,1.4a31.68,31.68,0,0,0-3.8,1.379,39.508,39.508,0,0,0-5.989,4c-.514.362-1.074.673-1.553,1.082-.393.334-.652.776-1.032,1.122-.606.554-1.314.526-1.971.82a13.946,13.946,0,0,0-1.932,1.32l-1.656,1.131a29.919,29.919,0,0,1-3.22,2.139,24.506,24.506,0,0,0-5.469,4.35c-1.846,1.73-3.884,3.236-5.662,5.036a42.1,42.1,0,0,0-4.821,5.781c-1.487,2.169-2.742,4.468-4.152,6.684a30.437,30.437,0,0,1-2.213,2.765,16.2,16.2,0,0,0-1.054,1.454,4.815,4.815,0,0,1-.917,1.345,11.424,11.424,0,0,0-2.4,1.915,32.811,32.811,0,0,0-2.094,3.123c-1.313,2.13-2.545,4.332-3.715,6.544a4.117,4.117,0,0,0-.4,1.848,15.462,15.462,0,0,1-.329,1.627c-.168.886-.064,1.817-.293,2.7-.151.577-.521.653-.988.977a10.142,10.142,0,0,0-1.223,1.036c-.786.753-1.55,1.5-2.408,2.171a21.385,21.385,0,0,0-2.534,2.16,23.451,23.451,0,0,1-2.387,2.4c-1.925,1.562-3.742,3.292-5.633,4.9-1.963,1.674-3.753,3.509-5.56,5.347-1.867,1.9-3.843,3.68-5.793,5.494-.153-2.152-.279-4.306-.459-6.456a59.459,59.459,0,0,0-1.178-6.863,46.374,46.374,0,0,0-1.378-6.177,4.028,4.028,0,0,0-2.834-2.781c-.717-.166-1.8.174-2.151-.626a13.254,13.254,0,0,1-.518-2.857c-.615-3.77.608-7.977-.967-11.583a6.084,6.084,0,0,0-3.465-3.065c-1.98-.878-4.167-.66-6.266-1.095a16.955,16.955,0,0,0-2.732-.767c-1-.045-2.009-.011-3.013.027-1.048.04-2.056-.171-3.1-.168-.906,0-1.619.605-2.509.464a6.016,6.016,0,0,0-2.819-.114,10.428,10.428,0,0,1-2.671.358c-1.142.033-2.285-.075-3.426-.02-1.049.05-2.049.369-3.089.5a44,44,0,0,0-6.461,1.11c-2.125.586-4.143,1.429-6.205,2.194-3.306,1.226-7.1,2.165-8.011,6.062a19.384,19.384,0,0,0-.334,6.687,11.721,11.721,0,0,0,1.67,5.247c1.119,1.6,2.975,2.086,4.752,2.638a51.288,51.288,0,0,0,6.206,1.106,31.755,31.755,0,0,0,6.529.645c2.187-.059,4.326-.628,6.506-.813,2.242-.19,4.476-.453,6.716-.649,1.507-.132,4.386-.559,5.141,1.152.239.54.581,1.186.144,1.67a22.371,22.371,0,0,0-1.45,1.806,6.454,6.454,0,0,0-1.3,2.771,19.841,19.841,0,0,0-.23,3.187c-.061,4.39,1.069,8.84,2.141,13.09a135.736,135.736,0,0,0,3.909,13.107c1.48,4.087,2.579,8.34,4.335,12.32a36.286,36.286,0,0,0,3.246,5.577c1.02,1.519,1.953,3.356,3.455,4.458a6.686,6.686,0,0,0,4.43,1.255c1.868-.149,3.643-1.283,5.279-2.111a77.727,77.727,0,0,0,11.113-7.329c1.7-1.267,3.235-2.72,5.041-3.838a22.378,22.378,0,0,1,5.53-2.647c-1.656,3.491-3.162,7.038-4.922,10.48-1.738,3.4-3.176,6.918-4.739,10.395-.643,1.43-1.59,2.667-2.223,4.091q-1.089,2.449-2.176,4.9c-1.322,2.985-2.729,5.953-3.925,8.988-.271.689-.15,1.521-.5,2.126a14.221,14.221,0,0,0-1.012,1.807c-.58,1.426-1.039,2.864-1.7,4.26-1.462,3.093-2.391,6.421-3.79,9.546s-2.669,6.3-3.919,9.5c-.613,1.567-1.3,3.105-1.874,4.689a19.821,19.821,0,0,1-1.886,4.261A65.821,65.821,0,0,0,89,270.653a12.931,12.931,0,0,0-1.365,4.582c-.092,1.477.823,2.674,1.563,3.863-1.346.682-2.585,1.561-3.934,2.248-1.447.737-2.959,1.315-4.465,1.919q-2.285.915-4.559,1.854c-1.337.552-2.573,1.229-3.87,1.86-1.227.6-2.344,1.385-3.5,2.1-1.256.769-2.53,1.508-3.785,2.277-2.461,1.507-4.856,3.018-7.44,4.314-1.347.676-2.7,1.337-4.048,2.01a9,9,0,0,0-3.133,2.02,4.38,4.38,0,0,0,.043,5.251c.75.973,2.591.882,3.71.914a10.024,10.024,0,0,0,2.288-.174c.62-.126,1.146-.456,1.75-.61a19.16,19.16,0,0,1,2.152-.231c.688-.092,1.37-.216,2.05-.354,1.473-.3,2.934-.664,4.4-.976,1.432-.3,2.869-.6,4.275-1.017a6.346,6.346,0,0,1,1.8-.493,9.027,9.027,0,0,0,1.88-.058c.67-.12,1.328-.308,2-.4.628-.083,1.262.017,1.884-.088a17.872,17.872,0,0,0,2.03-.628,6.562,6.562,0,0,1,1.957-.135c-1.682,1.3-3.441,2.5-5.155,3.757-1.731,1.271-3.346,2.673-5.011,4.026-1.347,1.094-3.032,2.146-3.861,3.72a6.591,6.591,0,0,0-.523,4.231c.337,1.749,1.631,1.971,3.2,2.08,2.033.141,3.6-.72,5.376-1.594a116.293,116.293,0,0,0,10.119-5.741,51.8,51.8,0,0,1,5.148-2.605q1.37-.655,2.742-1.3c.748-.354,1.727-1.059,2.552-.978-2.272,4.707-4.65,9.364-6.652,14.2a20.6,20.6,0,0,0-1.672,6.32c-.116,1.542-.035,4.6,1.891,5.107A2.419,2.419,0,0,0,93.052,331c.824-.812,1.584-1.7,2.371-2.546,1.542-1.658,3.151-3.232,4.833-4.749a63.1,63.1,0,0,0,4.937-4.749c1.458-1.634,3.28-2.871,4.668-4.569,1.426-1.744,2.7-3.6,4.141-5.337.945-1.142,1.7-2.932,3.325-3.186.242,1.348,1.4,2.547,2.218,3.649a43.441,43.441,0,0,0,6.2,6.438,21.947,21.947,0,0,0,6.764,4.331c1.684.65,5.2,2.153,6.526.111.628-.971.3-2.866.061-3.929a20.2,20.2,0,0,0-1.688-4.215c-1.315-2.762-2.772-5.413-4.25-8.086-.743-1.343-1.471-2.7-2.272-4.005a14.08,14.08,0,0,1-2-3.541,3.542,3.542,0,0,1-.054-1.815c.185-.579.426-.472.945-.547,1.138-.162.795-2.262.646-3.081a12.347,12.347,0,0,0-.668-2.124,6.071,6.071,0,0,1-.688-2.019c.026-.6.608-1.211.844-1.75a16.329,16.329,0,0,0,.648-1.936c.889-3,2.053-5.9,2.792-8.943a80.78,80.78,0,0,1,2.6-8.927c1.12-3.04,2.339-6.049,3.357-9.125.988-2.984,1.961-5.962,3.046-8.913,2.177-5.921,4.5-11.8,7.064-17.562,2.533-5.687,5.41-11.223,7.6-17.059,1.053-2.806,2.093-5.593,3.085-8.421,1.028-2.933,2.129-5.805,3.319-8.673,1.214-2.929,2.216-5.951,3.254-8.946,1.022-2.946,1.9-5.993,3.157-8.846a5.358,5.358,0,0,1,.856,1.023,6.086,6.086,0,0,0,.751,1.164,11.367,11.367,0,0,0,2.011,1.591,3.171,3.171,0,0,0,1.3.749l.039,0a1.876,1.876,0,0,0-.281.03l1.915,1.329c-.053-.124-.109-.243-.169-.359.207.361.424.7.871.779a.935.935,0,0,1-.107.013c.3.224,1.378,1.294,1.283.14.041.187-.029.328.05.515a2.121,2.121,0,0,0,.421.537,6.6,6.6,0,0,0,1.02.871c.852.612,1.77,1.125,2.6,1.773.239.187,1.05,1.128,1.33,1.128l1.565,1.365q-.3-1.05-.6-2.1.218.76.436,1.52a2.233,2.233,0,0,0,.866,1.2c.777.694,1.547,1.4,2.353,2.06,1.471,1.2,3.159,2.14,4.734,3.2.857.577,1.7,1.169,2.512,1.8.669.519,1.487.7,2.152,1.207a20.927,20.927,0,0,1,2.305,2.217,10.9,10.9,0,0,1,1.869,2.193,10.012,10.012,0,0,1,.676,3.225q.24,1.585.473,3.17c.318,2.17.618,4.342.878,6.519.257,2.14.57,4.279.757,6.427.188,2.173.141,4.349.386,6.52a130.166,130.166,0,0,0,1.977,13.079c.94,4.318,1.542,8.7,2.358,13.041.42,2.234.864,4.464,1.3,6.695.215,1.1.447,2.192.664,3.288.18.907.086,1.818.246,2.732a8.734,8.734,0,0,1,.2,1.479c0,.486-.3.911-.321,1.345a4.44,4.44,0,0,0,.876,2.067,24.9,24.9,0,0,0,1.819,2.079c.6.681.841.926.628,1.845-.915,3.944,1.428,7.249,3.93,10.037a86.976,86.976,0,0,0,8.667,8.687c1.655,1.393,3.213,2.9,4.8,4.366a29.543,29.543,0,0,0,4.931,3.588c1.8,1.09,3.7,1.885,5.568,2.843a44.463,44.463,0,0,0,5.579,2.529c1.858.655,3.74,1.212,5.524,2.043a5.861,5.861,0,0,0,4.617.021,16.539,16.539,0,0,0,2.633-1.737c.8-.546,1.614-1.068,2.452-1.551a6.841,6.841,0,0,0,3.329-3.285c.7-1.844.1-4.06-.305-5.912a17.042,17.042,0,0,0-2.266-5.3c-1.055-1.71-2.368-3.188-3.579-4.782-1.253-1.647-2.369-3.382-3.679-4.99a56.662,56.662,0,0,0-4.118-4.551c-1.458-1.438-2.731-3.041-4.075-4.582-.323-.371-.819-.77-.88-1.3-.053-.458.262-.789.413-1.193a7.308,7.308,0,0,0,.221-2.46,2.446,2.446,0,0,1,.2-1.169c.184-.336.528-.47.659-.833a7.23,7.23,0,0,0,.138-1.066,8.467,8.467,0,0,1,.419-1.143,6.592,6.592,0,0,0-.273-3.2c-.18-.949-.351-1.9-.526-2.85a47.406,47.406,0,0,0-1.306-6.105c-1.311-4.046-2.593-8.071-2.681-12.367a29.848,29.848,0,0,0-1.141-6.293q-.791-3.309-1.607-6.612c-1.043-4.218-2.293-8.374-3.361-12.585-1.065-4.195-2.034-8.417-3.3-12.557a84.125,84.125,0,0,0-4.962-12.043,24.2,24.2,0,0,0-3.264-5.137c-1.4-1.674-2.828-3.318-4.263-4.96-2.893-3.312-5.79-6.622-8.726-9.9a40.609,40.609,0,0,0-4.648-4.565c-1.52-1.23-3.6-2.266-4.081-4.275-.135-.567-.226-1.145-.375-1.709a3.758,3.758,0,0,1-.311-1.172c.083-.7,1.386-.973,1.913-1.212,1.823-.825,3.667-1.642,5.456-2.541a27.822,27.822,0,0,0,2.785-1.707,9.414,9.414,0,0,1,2.529-.933,32.147,32.147,0,0,0,5.516-2.405c1.846-.977,3.707-1.954,5.5-3.031a29.041,29.041,0,0,0,4.767-3.866c.689-.639,1.179-.317,1.667.386.594.854,1.219,1.686,1.833,2.527a3.6,3.6,0,0,0,.938,1.087c.016.01.029.015.044.023-.071-.024-.145-.049-.23-.083a4.785,4.785,0,0,0,1.645,2.507c-.066-.18-.128-.362-.191-.544a4.4,4.4,0,0,0,.742,1.274,21.382,21.382,0,0,0,2.13,2.355c.394.388.793.771,1.191,1.155.158.154.319.307.477.461a1.954,1.954,0,0,0,.67.449c.545.246.672.676,1.142,1.015.706.51,1.586.848,2.317,1.351.6.411,1.116,1.245,1.807,1.4.25.055.436.015.637.213.265.26-.011.254.407.348.211.048.428-.074.639-.006a2.4,2.4,0,0,1,.61.4q.647.471,1.293.945,1.162.853,2.31,1.725c1.522,1.162,2.919,2.477,4.446,3.631a27.266,27.266,0,0,0,2.482,1.54c.7.422,1.294.992,1.953,1.475.786.576,1.7.858,2.519,1.379.8.511,1.571,1.039,2.4,1.5a51.209,51.209,0,0,0,5.593,2.724,18.485,18.485,0,0,0,6.056,1.524,14.775,14.775,0,0,0,6.158-1.244,54.9,54.9,0,0,0,5.742-2.655c1.806-.967,3.486-2.131,5.257-3.156s3.463-2.1,5.157-3.271a47.845,47.845,0,0,1,4.877-3.25c1.753-.913,3.309-2.1,4.959-3.18q2.545-1.662,5.066-3.353c3.511-2.354,7.025-4.747,10.36-7.347a41.534,41.534,0,0,0,4.583-4c1.5-1.57,3.283-2.907,4.926-4.319l4.733-4.594.008-.008-4.741,4.6a4.373,4.373,0,0,0,1.842-1.1q.953-.738,1.888-1.5c.908-.74,1.958-1.5,1.853-2.809.4-.371.8-.733,1.226-1.071.69-.551,1.514-.888,2.248-1.375,1.507-1,2.8-2.277,4.217-3.4.623-.492,1.182-.865,1.279-1.71a23.975,23.975,0,0,0-.025-2.834,6.856,6.856,0,0,1,.064-2.386c.274-.677,1.185-.967,1.775-1.291,1.665-.914,3.305-1.871,4.972-2.783a11.86,11.86,0,0,1,4.942-1.655c.817-.07,1.6-.193,2.408-.319a7.164,7.164,0,0,1,2.43.266c1.854.34,3.731.543,5.584.887s3.713.809,5.556,1.263,3.687.939,5.561,1.267a21.407,21.407,0,0,1,2.879.577c.7.226,1.378.545,2.1.7a46.911,46.911,0,0,1,5.237,1.016,29.587,29.587,0,0,0,5.228,1.145c.932.14,1.861.29,2.782.489a3.417,3.417,0,0,0,1.615.054,3.6,3.6,0,0,0,2.491-2.36c1.032-3.125-.963-6.478-2.994-8.694-2.179-2.377-4.931-4.041-7.545-5.88a24.269,24.269,0,0,1,3.118.058c.892.016,1.765-.023,2.659.026,1.979.108,3.952-.464,5.934-.507,2.682-.058,5.992-.6,6.693-3.661.652-2.845-2.366-5.41-4.52-6.7-1.383-.83-2.784-1.588-4.139-2.466a27.239,27.239,0,0,0-4.837-2.121,44.645,44.645,0,0,0-4.959-1.718,38.53,38.53,0,0,1-4.836-1.3,20.194,20.194,0,0,1,4.475-1.039c1.513-.283,3-.657,4.485-1.068Z" transform="translate(7.909 6.018)" fill-rule="evenodd"/><path d="M369.063,178.689a1.441,1.441,0,0,1-1.212,1.16,30.639,30.639,0,0,1-3.414.44,53.983,53.983,0,0,0-6.156.836,22.223,22.223,0,0,0-5.443,2.059,27.178,27.178,0,0,0,.949-7.945c-.171-2-.218-5.017-2.241-6.175a4.171,4.171,0,0,0-1.73-.195c-.677-.036-1.355-.068-2.032-.106-1.34-.073-2.672-.215-4.008-.345-2.633-.257-5.247-.577-7.864-.962-.433-.063-1.21-.015-1.5-.391-.214-.276-.112-.712-.1-1.022a18.275,18.275,0,0,0-.122-3.206,37.734,37.734,0,0,0-1.654-6.854c-.364-1.127-.754-2.246-1.121-3.373-.177-.544-.588-1.287,0-1.677a4.969,4.969,0,0,1,1.436-.349c.508-.126,1-.292,1.5-.455q1.76-.579,3.518-1.168c4.454-1.484,8.949-2.869,13.391-4.383.621-.212,1.239-.434,1.86-.645.269-.092.737-.327,1.027-.2.339.149.273.523.517.745.213.194.694.208.967.365a8.442,8.442,0,0,1,1.675,1.664c.7.726,1.486,1.364,2.178,2.1a39.868,39.868,0,0,1,6.614,10.251,18.812,18.812,0,0,1,1.073,3.066,25.809,25.809,0,0,1,.793,3c.369,2.4.382,4.86.679,7.271.247,2.02.892,4.467.415,6.491m-17.757-5.41a22.148,22.148,0,0,1-.44,4.763,35.3,35.3,0,0,1-1.59,4.691c-.547,1.453-.99,2.951-1.625,4.368-.627,1.4-1.429,2.674-1.932,4.126-1.031,2.977-2.8,5.589-4.046,8.464a88.1,88.1,0,0,1-4.285,8.53,30.272,30.272,0,0,1-2.409,3.985,17.829,17.829,0,0,1-1.563,1.708c-.477.457-.707.108-1.284.212-.842.151-1.276,1.243-1.821,1.805-1.032,1.064-2.087,2.115-3.218,3.075-1.158.982-2.438,1.8-3.626,2.748a20.894,20.894,0,0,1-3.562,2.377c-2.56,1.3-5.5,2.894-8.456,2.758a3.082,3.082,0,0,1-2.656-2.128,8.04,8.04,0,0,1-.3-4.089,9.237,9.237,0,0,1,1.367-4.392c.845-1.345.012-2.18-.83-3.3-1.88-2.5-4.385-4.451-6.671-6.566q-1.769-1.638-3.518-3.3-.969-.916-1.935-1.832c-.473-.448-.929-.75-1.1-1.38a31.86,31.86,0,0,0,3.811-2.15c2.419-1.769,4.638-3.928,6.918-5.874a21.207,21.207,0,0,0,2.84-3.224,40.147,40.147,0,0,0,2.556-3.3,72.749,72.749,0,0,0,4.623-7.755,20.526,20.526,0,0,0,1.271-4.179c.2-.87.422-1.733.643-2.6a6.064,6.064,0,0,1,.54-1.978c.657-.848,2.722.521,3.478.762a29.006,29.006,0,0,0,4.38.9c3.123.483,6.269.9,9.372,1.495,1.626.314,3.255.662,4.905.826a45.087,45.087,0,0,0,4.81.064c.343,0,.763.058.993-.257.131-.18.044-.4.254-.573.275-.22.635-.1.951-.068.642.068,1.285.107,1.926.187a3.353,3.353,0,0,1,1.064.133c.249.154.163.617.162.97m-44.954,42.836a13.308,13.308,0,0,0-1.2,5.284,12.2,12.2,0,0,0,.29,2.665,6.918,6.918,0,0,1,.46,2.412c-1.9-.877-3.759-1.82-5.693-2.611a17.228,17.228,0,0,1-4.3-3c-1.476-1.214-2.813-2.567-4.231-3.845-1.522-1.372-3.11-2.669-4.658-4.01a57.421,57.421,0,0,1-7.334-7.926c-1.989-2.508-4.841-5.708-4.708-9.1a10.99,10.99,0,0,1,.951-4.777,10.856,10.856,0,0,1,2.887-3.267c1.043-.753,2.068,1.139,2.655,1.8,1.263,1.431,2.552,2.839,3.834,4.253,2.438,2.691,4.751,5.515,7.388,8.016,2.658,2.52,5.375,4.985,8.236,7.27a51.151,51.151,0,0,1,4.311,3.5c.478.476,1.4,1,1.723,1.594.342.639-.343,1.2-.61,1.739m65.225-37.15c-.4-.052-.382,0-.417-.392a11.193,11.193,0,0,1,.216-1.943,47.848,47.848,0,0,0-.1-8.872c-.5-5.718-1.677-11.34-4.666-16.3a28.947,28.947,0,0,0-4.9-6.284,31.625,31.625,0,0,0-2.779-2.491c-.5-.369-1.229-.555-1.685-.932-.246-.2-.355-.621-.563-.881a3.158,3.158,0,0,0-3.09-1.2,23.473,23.473,0,0,0-4.136.915c-2.818.782-5.521,2.111-8.251,3.159s-5.453,2.176-8.157,3.321a18.648,18.648,0,0,0-3.638,1.641,1.766,1.766,0,0,0-.748,1.773,41.821,41.821,0,0,0,1.983,7.87,39.909,39.909,0,0,1,1.675,8.391c-2.794-.205-5.571-.417-8.351-.769-1.391-.176-2.789-.32-4.178-.511a3.521,3.521,0,0,1-1.63-.739c-.507-.327-.768-.05-.984.447-1.124,2.584-1.568,5.4-2.786,7.969-.547,1.152-1.229,2.227-1.8,3.368a32.189,32.189,0,0,1-2.139,3.608c-.36.533-.822.964-1.221,1.463-.37.463-.635.995-.975,1.479a21.436,21.436,0,0,1-2.441,2.775c-.874.875-1.721,1.763-2.555,2.675s-1.8,1.625-2.668,2.471c-.816.8-1.527,1.664-2.365,2.445-.806.752-1.184,1.8-2.052,2.473-.468.365-.987.658-1.452,1.026-.385.3-.786.834-1.333.733-.606-.114-1.094-.928-1.473-1.348q-.733-.813-1.476-1.616c-1.944-2.1-3.939-4.169-5.9-6.26-.958-1.023-2.013-1.95-2.947-3a2.324,2.324,0,0,0-2.749-.783,12.061,12.061,0,0,0-2.9,1.779,22.473,22.473,0,0,0-2.2,2.949,7.977,7.977,0,0,0-1.187,3.445,17.089,17.089,0,0,0-.308,3.893,15.126,15.126,0,0,0,2.089,7.362,20.574,20.574,0,0,0,2.465,2.608,24.679,24.679,0,0,1,2.311,3.11,40.21,40.21,0,0,0,5.24,5.8c.9.851,1.918,1.568,2.822,2.422a26.077,26.077,0,0,0,3.031,2.493,33.211,33.211,0,0,1,3.041,2.687,34.046,34.046,0,0,0,3.239,2.59,23.713,23.713,0,0,0,6.96,3.289c2.8.845,5.517,1.952,8.3,2.836,1.336.423,2.658-.162,3.93-.591a21.809,21.809,0,0,0,3.765-1.628c2.424-1.366,4.751-2.951,7.134-4.39a26.136,26.136,0,0,0,6.444-5.4c1.8-2.088,3.715-4.161,5.358-6.377,3.337-4.5,5.355-9.829,7.831-14.815,1.317-2.65,2.651-5.259,3.746-8.013.539-1.355,1.021-2.734,1.57-4.084a1.143,1.143,0,0,1,1.049-.892c.721-.113,1.458-.162,2.181-.249,2.864-.341,5.66-.848,8.5-1.338a23,23,0,0,0,7.639-2.263,3.216,3.216,0,0,0,1.359-1.139c.123-.241.425-1.459.254-1.654-.1-.114-.771-.1-.943-.123" transform="translate(49.909 25.382)" fill-rule="evenodd"/><path d="M258.111,22.217c.915-.481,1.848-.926,2.778-1.377,1.969-.958,3.909-1.98,5.9-2.891.9-.412,1.844-.675,2.77-1.021.983-.367,1.924-.852,2.867-1.309,1.984-.96,4.013-1.787,6.074-2.567q.946-.358,1.9-.708a7.946,7.946,0,0,1,1.582-.583c.8-.094,1.4.723,1.95,1.215a24.783,24.783,0,0,1,6.294,10.3,41.109,41.109,0,0,1,1.373,6.228,38.815,38.815,0,0,1,.793,6.46c.015,2.229.244,4.427.145,6.661-.037.834.114,2.332-.345,3.059s-1.631.942-2.38,1.213c-4.1,1.487-8.2,3.087-12.357,4.4q-6.492,2.041-12.964,4.144c.176-1.228.382-2.455.519-3.687a29.653,29.653,0,0,0,.022-3.527,39.527,39.527,0,0,0-.621-7.63A38.075,38.075,0,0,0,259.43,27.57a25.73,25.73,0,0,0-2.007-2.608c-.252-.3-1.1-1.012-1.067-1.474.04-.606,1.318-1.04,1.755-1.271m49.2-.5c.946.043,1.559.261,1.625,1.274.084,1.291.066,2.6.112,3.893.089,2.475.178,4.952.113,7.429a45.782,45.782,0,0,1-1.9,12.82c-.643,2.005-1.411,3.975-2.241,5.909a53.858,53.858,0,0,1-2.953,5.331,11.913,11.913,0,0,1-1.737,2.306c-.323.346-.472.531-.931.59a8.284,8.284,0,0,1-1.516-.094c-2.2-.158-4.39-.376-6.589-.482-2.18-.1-4.369-.013-6.546-.114a26.761,26.761,0,0,1-2.993-.542c-1.013-.163-2.037-.235-3.055-.35-.525-.059-.512.065-.591-.413a4.225,4.225,0,0,1,.044-.843c.026-.5.052-1,.082-1.505a5.978,5.978,0,0,1,.118-1.659c.162-.378.509-.443.87-.542a54.212,54.212,0,0,0,5.937-2.032c1.99-.8,4-1.559,5.971-2.416a6.928,6.928,0,0,0,2.446-1.4,5.322,5.322,0,0,0,1.062-2.037c1.281-4.021.88-8.655.5-12.8a46.32,46.32,0,0,0-2.554-12.629c4.906,0,9.826.081,14.727.307M252.555,25.4a6.88,6.88,0,0,1,3.015,2.848,35.8,35.8,0,0,1,2.695,4.437,38.141,38.141,0,0,1,3.312,10.5,30.708,30.708,0,0,1,.2,10.727,25.753,25.753,0,0,1-.914,2.538,4.146,4.146,0,0,0,.106,2.026c.229.837,1.018.552,1.677.416.96-.2,1.921-.394,2.88-.6,3.617-.764,7.2-2.091,10.881-2.36a8.282,8.282,0,0,1-1.122,2.707,9.862,9.862,0,0,0-1.722,2.412,4.324,4.324,0,0,0-.05,2.691c.3.84,1.046.852,1.824.946,2.189.266,4.343.626,6.55.746a5.821,5.821,0,0,0,1.417-.011,2.5,2.5,0,0,1,1.022-.114c.5.092.95.336,1.48.39a10.814,10.814,0,0,0,1.5.016c1.848-.07,3.655.123,5.505-.057.539-.053,1.552-.359,2.056-.05.533.325.115.983.381,1.435.349.594,1.549.29,2.129.257a5.469,5.469,0,0,0,2.3-.574,13.108,13.108,0,0,0,3.961-3.083,23.7,23.7,0,0,0,2.818-4.465,42.931,42.931,0,0,0,2.377-4.931,35.751,35.751,0,0,0,1.7-5.424c.377-1.844.615-3.718.971-5.567a42.1,42.1,0,0,0,.535-5.853,53.629,53.629,0,0,0,.019-6.054c-.125-1.994-.345-3.95-.579-5.931-.06-.507-.029-1.031-.11-1.533a9.85,9.85,0,0,1-.249-1c-.039-.68.585-1.118.569-1.829-.037-1.653-1.8-2.268-3.1-2.663a15.232,15.232,0,0,0-5.367-.7c-3.82.275-7.724.31-11.348,1.7-1.877-3.218-3.626-6.708-6.7-8.965a3.039,3.039,0,0,1-.947-.8A5.354,5.354,0,0,0,283.7,8.7a2.177,2.177,0,0,0-2.29-.617,33.41,33.41,0,0,0-5.575,1.579c-.808.323-1.666.475-2.478.79-.781.3-1.527.683-2.277,1.053-1.642.81-3.34,1.5-4.98,2.314a77.346,77.346,0,0,0-9.583,5.453,28.87,28.87,0,0,0-4.386,3.343,2.476,2.476,0,0,0-.7,2.06c.095.812.511.5,1.132.729" transform="translate(46.091 1.246)" fill-rule="evenodd"/><path d="M70.384,32.438c.161-2.095.1-4.2.248-6.289a49.16,49.16,0,0,1,.937-5.97,26.787,26.787,0,0,1,1.932-5.6c.448-1.018.881-2.043,1.315-3.067.265-.628.459-1.279,1.194-1.447a17.378,17.378,0,0,1,3.083-.076q1.486-.053,2.967-.183c2.146-.191,4.278-.5,6.42-.727a59.649,59.649,0,0,0,6.106-.76c1.042-.217,2.076-.472,3.11-.726a6.525,6.525,0,0,1,2.628-.491,17.409,17.409,0,0,0-1.288,6.913c-.009.936-.12,1.319-1.094,1.262-1.216-.072-2.438-.194-3.648-.334-2.283-.263-4.548-.681-6.812-1.073-1.073-.186-2.1-.45-3.156-.683-.747-.165-1.061.131-1.311.814-.18.494-.239.716-.7.995a10.371,10.371,0,0,0-1.1.718A8.259,8.259,0,0,0,79.6,17.436a19.747,19.747,0,0,0-2.259,4.74,42.181,42.181,0,0,0-2.389,12.963c-.07,2.223-.437,4.4-.461,6.631-.011.983.239,2.248-.582,2.962a22.6,22.6,0,0,1-2.729,1.774,21.8,21.8,0,0,1-1.011-7c-.025-2.359.033-4.715.213-7.067m33.22-11.9c.981.261,1.966.492,2.955.721-1.682,4.03-1.623,8.489-1.75,12.785a45.19,45.19,0,0,0,.184,5.761,55.607,55.607,0,0,0,1.03,5.743c.086.419.293,1.105.017,1.49-.305.426-1.307.655-1.742.851-1.723.778-3.421,1.62-5.18,2.318-1.783.707-3.636,1.132-5.379,1.954-1.707.8-3.436,1.541-5.212,2.176-1.746.625-3.558,1.083-5.243,1.869a20.542,20.542,0,0,0-4.275,2.874,30.906,30.906,0,0,1-1.3-7.86,50.288,50.288,0,0,1-.091-7.817,27.437,27.437,0,0,0,.1-3.433,31.341,31.341,0,0,1,.3-3.123c.184-2.3.177-4.6.488-6.891a31.755,31.755,0,0,1,4.122-12.639,3.634,3.634,0,0,1,.5-.794c.35-.294.226-.239.686,0,.43.22.853.455,1.3.648a22.52,22.52,0,0,0,2.9.859,26.335,26.335,0,0,0,3.167.947c1.081.168,2.18.188,3.261.358.6.094,1.146.292,1.728.44a9.824,9.824,0,0,0,1.436.141c.963.1,1.9.371,2.866.459a17.416,17.416,0,0,1,3.13.165M68.023,39.248A29.453,29.453,0,0,0,70.1,46.967c.332.793.708,1.9,1.658,2.122.877.2,1.939-.442,2.765-.668.647,3.851.931,7.852,2.649,11.421.217.451.5,1.291.949,1.586s1.01.007,1.465-.165a53.339,53.339,0,0,1,5.857-1.687c.963-.244,1.945-.462,2.885-.788a15.6,15.6,0,0,1,2.337-.746A31.68,31.68,0,0,0,95.6,56.594a59.477,59.477,0,0,0,10.045-4.128,43.448,43.448,0,0,0,4.491-2.768c1.144-.86,2.424-2.148,1.863-3.71-.169-.473-.634-1.254-1.168-1.4-.5-.136-.953.318-1.411.423-.694.158-.539-.4-.6-.948q-.077-.646-.156-1.292c-.11-.9-.217-1.809-.3-2.716-.334-3.759-.177-7.515-.18-11.28a22.014,22.014,0,0,1,.874-5.353q.35-1.445.656-2.9a3.532,3.532,0,0,0,.089-1.676c-.35-1.223-2.091-1.561-3.122-1.909a21.825,21.825,0,0,0-2.7-.743c-.5-.1-1.847-.022-2.172-.444s.035-1.775.067-2.272c.061-.916.124-1.832.245-2.743.194-1.469.173-2.832-1-3.907.731-.583,1.25-1.819.187-2.356a6.309,6.309,0,0,0-4.151-.383,32.529,32.529,0,0,1-4.41.514c-1.54.164-3.075.364-4.611.558-2.643.334-5.335.408-7.945.944-1.307.268-2.615.472-3.933.681-1.365.215-2.187.4-3,1.55A27.567,27.567,0,0,0,69.4,15.309,32.078,32.078,0,0,0,67.965,22.8a80.98,80.98,0,0,0-.271,8.2,72.7,72.7,0,0,0,.33,8.255" transform="translate(12.409 0.496)" fill-rule="evenodd"/><path d="M24.915,128.784c.156-.265.631-.331.881-.431a8.875,8.875,0,0,0,1.136-.568,51.937,51.937,0,0,0,5.334-3.424c.416-.313,1.441-1.464,2.044-1.282.3.09.457.58.585.82.224.422.457.837.711,1.241a20.79,20.79,0,0,0,3.641,4.3,14.5,14.5,0,0,0,9.193,4.11,115.39,115.39,0,0,1-7.17,9.348c-1.329,1.465-2.787,2.79-4.167,4.2a1.926,1.926,0,0,1-.673.525,2.379,2.379,0,0,0-.835.424,1.82,1.82,0,0,0-.365,1.638c-2.451.094-5.105-1-7.33-1.9a32.4,32.4,0,0,1-3.82-1.811,8.108,8.108,0,0,1-2.376-1.757c2.248-1.2,4.521-2.333,6.675-3.7,1.471-.929,4.07-2.015,3.86-4.161a1.274,1.274,0,0,0-.46-.936c-.438-.285-.537.051-.935.138-.646.14-1.409-.714-1.9-1.081a11.274,11.274,0,0,1-3.425-3.581c-.236-.446-.906-1.6-.6-2.117m-13.691,19c.364-1.188-1.338-2.1-2.09-2.675a10.825,10.825,0,0,1-2.67-3.007A27.417,27.417,0,0,1,2.7,126.263c.067-1.517.239-3.033.274-4.551a11.476,11.476,0,0,1,.14-2.3c.163-.736.358-1.464.539-2.2.361-1.46.546-2.955.976-4.4a22.648,22.648,0,0,1,1.583-3.866c.425-.827.822-1.987,1.933-1.829a34.7,34.7,0,0,1,4.1,1.287c1.5.413,3.013.759,4.525,1.114,1.463.344,2.893.832,4.365,1.129a10.707,10.707,0,0,0,2.315.205c.342-.006.956-.039.989.429.037.512-.748,1.067-1.071,1.381a4.235,4.235,0,0,0-1.039,1.447,17.991,17.991,0,0,0-1.351,4.37,34.131,34.131,0,0,0-.193,4.495,23.094,23.094,0,0,0,1.464,8.652,13.8,13.8,0,0,0,4.577,5.972q-3.266,1.626-6.532,3.251a25.892,25.892,0,0,0-5.622,3.257,10.285,10.285,0,0,0-2,2.051c-.616.966.251,1.623,1.169,1.237,1.011-.425,2-.911,2.995-1.383.644-.307,1.719-1.13,2.471-1.109.638.018.881.834,1.165,1.287a9.86,9.86,0,0,0,1.648,1.95,17.853,17.853,0,0,0,4.475,3.015,21.771,21.771,0,0,0,5.67,1.763,15.751,15.751,0,0,0,3.225.236,6.684,6.684,0,0,0,2.688-.428c.629-.34.3-1.035.922-1.391.656-.374,1.35-.653,1.983-1.074a10.374,10.374,0,0,0,3.264-3.806c2.017-3.518,4.47-6.733,5.979-10.525a11.528,11.528,0,0,1,1.132-2.71c.385-.515,1.242-.822,1.336-1.5.091-.661-.175-2.122-.832-2.428a14.736,14.736,0,0,0-2.687-.55,23.025,23.025,0,0,1-9.775-4.478,22.218,22.218,0,0,1-2.02-1.91,2.222,2.222,0,0,1-.867-1.768c.085-.658.612-1.618-.464-1.8a3.8,3.8,0,0,0-2.3.628c-1.763,1.113-3.4,2.453-5.084,3.681-1.535,1.121-3.108,2.189-4.668,3.274a48.162,48.162,0,0,1,.712-7.895,11.756,11.756,0,0,1,1.5-3.46c.692-1.1,1.243-2.247,1.848-3.393.336.2.887.632,1.194.112a3.071,3.071,0,0,0-.015-1.545c-.536-2.754-4.718-3.03-6.874-3.5-3.1-.676-6.2-1.493-9.339-1.973-1.45-.221-2.887-.266-4.347-.354-.748-.046-1.621-.213-2.074.545-.122.2-.139.493-.271.655a5.3,5.3,0,0,1-.642.428,7.063,7.063,0,0,0-1.266,1.346A16.741,16.741,0,0,0,2.761,110.7a32.317,32.317,0,0,0-2.246,8.769,50.277,50.277,0,0,0-.445,9.377C.444,134.559,2,140.375,5.6,144.944a9,9,0,0,0,2.915,2.529c.576.3,2.385,1.371,2.71.314" transform="translate(0 18.905)" fill-rule="evenodd"/><path d="M50.408,201.756c-1.116,1.436-2.23,2.856-3.228,4.379s-1.96,3.1-2.942,4.642a43.981,43.981,0,0,0-2.765,4.541c-.439.923-.482,2.137-1.688,2.094a10.356,10.356,0,0,1-4.508-1.257,18.693,18.693,0,0,1-6.916-6.255,37.737,37.737,0,0,1-4.265-9.028c-.567-1.737-1.022-3.509-1.433-5.289a12.122,12.122,0,0,1-.434-2.72c0-.41.024-.819.046-1.229.02-.387.235-1.063-.21-1.09.133-1.113.26-2.226.4-3.338.1-.8.092-1.7.8-2.237a6.611,6.611,0,0,1,2.526-.706q1.441-.326,2.855-.76c1.932-.592,3.782-1.377,5.647-2.15a24.739,24.739,0,0,0,2.741-1.276c.726-.412,1.247-1.009,1.739-.071,3.352,6.387,5.8,13.547,11.287,18.5.444.4,1.17.882,1.236,1.539.063.64-.527,1.253-.881,1.709m4.412-4.515c-.773-.53-1.733-.618-2.518-1.108a9.774,9.774,0,0,1-2.109-2.671c-1.466-2.012-2.935-4.037-4.26-6.148-1.2-1.916-2.29-3.9-3.445-5.846a31.656,31.656,0,0,0-1.9-2.893c-.3-.393-1.049-1.786-1.684-1.733-.327.026-.314.345-.549.447-.121.052-.217-.005-.335.011-.424.057-.886-.158-1.323-.116a18.267,18.267,0,0,0-3.291.873c-2.171.655-4.242,1.577-6.378,2.334-2.117.75-4.48,1.252-6.415,2.419-.764.461-1.626,1.2-.876,2.1.285.342.675.334.971.6.25.224.139.348.081.72-.033.213-.067.426-.1.64a23.232,23.232,0,0,0-.317,6.751,48.286,48.286,0,0,0,1.436,6.783c2.023,7,5.643,15.313,12.756,18.416a22.3,22.3,0,0,0,5.071,1.224,5.453,5.453,0,0,1,1.509.606,1.527,1.527,0,0,0,.807.282c.644-.079,1.173-1.08,1.474-1.553,1.135-1.787,2.424-3.464,3.6-5.221a28.221,28.221,0,0,0,1.687-2.817c.289-.564.5-1.5,1.292-1.478l.644.859a2.68,2.68,0,0,1,.279.371c.158.323.145.084.08.466a4.041,4.041,0,0,1-.823,1.427c-1.674,2.262-3.421,4.469-5.176,6.669a57.517,57.517,0,0,1-5.5,6.2,2.459,2.459,0,0,1-1.454.877,8.627,8.627,0,0,1-1.7-.361,28.311,28.311,0,0,1-3.575-.616,7.774,7.774,0,0,0-1.734-.579,2.672,2.672,0,0,1-1.345-.4c-1.043-.63-2.2-.976-3.258-1.572a22.555,22.555,0,0,1-6.018-4.974c-.826-1-1.5-2.108-2.315-3.117-.788-.982-1.566-1.957-2.255-3.014a30.927,30.927,0,0,1-3.263-6.686c-.427-1.219-.64-2.015.422-2.907a21.212,21.212,0,0,0,2.775-2.731c.406-.493,2.258-2.3.871-2.6-.751-.163-1.951,1.1-2.516,1.564a16.081,16.081,0,0,1-2.884,2.009c-1.2.607-1.227,1.377-1.209,2.637a20.433,20.433,0,0,0,2.006,7.5,34.842,34.842,0,0,0,3.882,6.892c2.971,4.1,6.295,8.251,10.913,10.542a21.656,21.656,0,0,0,7.274,2.013,32.986,32.986,0,0,0,4.49.188,8.066,8.066,0,0,0,2.065-.122c.492-.156.572-.521.75-.967.422-1.057,1.525-1.631,2.271-2.478.8-.905,1.631-1.758,2.45-2.641a46.226,46.226,0,0,0,4.375-6.326c.789-1.2,1.642-2.365,2.33-3.623a12.543,12.543,0,0,0,1.443-3.51,2.072,2.072,0,0,0-1.6-2.3c-.529-.026-.954.39-1.475.444a4.207,4.207,0,0,0-.878-.014c.853-2.072,2.118-4.023,3.076-6.039.54-1.137,1.053-2.288,1.528-3.454.362-.887.793-1.615-.127-2.245" transform="translate(1.841 32.2)" fill-rule="evenodd"/><path d="M61.784,55.932c1.676,3.869,4.37,6.954,7.122,10.095a31.618,31.618,0,0,0,4.707,4.509c1.643,1.245,3.306,2.46,4.965,3.682-1.665,2.139-3.535,4.1-5.39,6.073a25.925,25.925,0,0,0-4.551,5.951,2.712,2.712,0,0,0-1.763-2.188A16.16,16.16,0,0,1,63.586,82.1a50.488,50.488,0,0,1-6.048-5.824c-3.766-4.182-6.166-9.442-8.782-14.36l13.029-5.98M47.866,65.694a48.525,48.525,0,0,0,2.4,5.207c.831,1.674,1.692,3.337,2.663,4.936a27.6,27.6,0,0,0,6.974,8,32.093,32.093,0,0,0,4.483,2.877,4.756,4.756,0,0,0,2.394.613c.516-.029,1.23-.486,1.63-.079s.274,1.252,1.134.848a6.887,6.887,0,0,0,1.846-1.6c1.322-1.413,2.65-2.835,3.919-4.3a44.575,44.575,0,0,0,3.279-4.586c.573-.859,1.14-1.723,1.709-2.585a3.659,3.659,0,0,0,.956-2.018c-.058-1.526-1.929-2.56-2.993-3.409a28.894,28.894,0,0,1-3.623-3.353c-1.181-1.325-2.668-2.434-3.946-3.677a57.631,57.631,0,0,1-3.884-4.3,37.791,37.791,0,0,1-2.8-3.664c-.653-1-1.391-1.776-2.7-1.59a22.665,22.665,0,0,0-3.033.78c-.991.378-1.945.855-2.908,1.3-1.745.8-3.35,1.819-5.046,2.713a8.351,8.351,0,0,0-1.113.671c-.192.143-.387.42-.591.522a2.114,2.114,0,0,1-.43.107A2,2,0,0,0,46.9,60.295a2.145,2.145,0,0,0-.032,2.484,24.35,24.35,0,0,1,1,2.915" transform="translate(8.523 9.496)" fill-rule="evenodd"/><path d="M105.836,110.165c.43.689,1.132.349,1.533-.141,1.219-1.489,2.361-3.1,3.456-4.685,1.111-1.608,2.129-3.237,3.388-4.737s2.567-3,3.881-4.468c4.91-5.493,9.949-10.855,15.362-15.845,1.323-1.219,2.685-2.411,3.955-3.686a2.994,2.994,0,0,0,1.214-2.046,2.206,2.206,0,0,0-.957-1.689c-1.167-.682-2.735.98-3.6,1.6a20.414,20.414,0,0,1-2.072,1.114,10.568,10.568,0,0,0-1.741,1.33c-1.174,1.048-2.439,1.939-3.629,2.96-1.209,1.037-2.277,2.226-3.464,3.287a40.83,40.83,0,0,0-3.761,3.4c-1.114,1.274-2.055,2.665-3.217,3.906a83.2,83.2,0,0,0-6.611,8.556,23.8,23.8,0,0,0-2.472,4.558c-.342.8-.682,1.6-1.005,2.4a11.231,11.231,0,0,0-.474,2.339c.178.035.045,1.571.217,1.846" transform="translate(19.363 13.109)" fill-rule="evenodd"/><path d="M340.909,216.668a23.035,23.035,0,0,0,2.216-4.018,15.428,15.428,0,0,0,1.7-4.195c.147-.74.236-1.5.4-2.231a6.26,6.26,0,0,0,.321-2.032c-.068-.758-.42-3.039-1.571-2.787-.669.147-.535.862-.539,1.385a6.175,6.175,0,0,1-.251,1.77,27.729,27.729,0,0,1-2.038,3.826,15.273,15.273,0,0,1-2.241,3.391,24.364,24.364,0,0,1-2.883,2.774,11.449,11.449,0,0,0-2.65,2.288c-.393.6-.459.776-1.181.94a4.479,4.479,0,0,0-1.621.694,7.771,7.771,0,0,1-1.6,1.125c-.566.226-1.165.36-1.737.572-1.321.488-2.475,1.311-3.825,1.772-.7.239-1.408.443-2.115.654a4.809,4.809,0,0,0-1.7.668,2.546,2.546,0,0,0-.539,3.134c.74.919,2.475.344,3.437.227.013.063.025.125.037.188a44,44,0,0,0,4.885-1.027,12.92,12.92,0,0,0,2.341-1.078,10.919,10.919,0,0,1,1.994-.716,2.843,2.843,0,0,0,1.493-1.048c.492-.682.7-.479,1.46-.645,1.22-.268,2.272-1.653,3.111-2.49,1.023-1.021,2.169-2.03,3.092-3.14" transform="translate(58.432 36.7)" fill-rule="evenodd"/><path d="M141.392,49.1c.285-.451,1.278-.859,1.734-1.152.623-.4,1.238-.81,1.838-1.243,1.089-.786,1.85-.269,2.817.484a6.064,6.064,0,0,1,2.369,5.469c0,.646.178,1.726-.319,2.258-.475.51-1.462.459-2.09.587-.823.166-2.064,1.206-2.915.9-.746-.267-.482-1.6-.542-2.186a6,6,0,0,0-1.152-3.045,6.267,6.267,0,0,0-1.219-1.19c-.349-.265-.8-.436-.521-.883m-3.273,3.32a10.728,10.728,0,0,1,2.086.716,4.783,4.783,0,0,1,1.359.656c.585.521.348,1.343.484,2.025.08.4.284.742.137,1.156-.172.483-.679.567-.936.959-.376.575.109,1.388.434,1.879.563.852,1.332.417,2.2.289a17.3,17.3,0,0,0,3.129-.541c.821-.28,1.5-.93,2.128-.066.234.323.282.608.742.486.382-.1.771-.62,1.034-.885,1.636-1.656,2.026-3.919,2.053-6.152a12.6,12.6,0,0,0-2.1-6.9,5.18,5.18,0,0,0-.939-1.29c-.39-.334-.9-.465-1.252-.854-.527-.58-.4-1.755-1.245-2.01-.885-.27-2.157.8-2.827,1.262q-1.415.97-2.774,2.013a65.885,65.885,0,0,0-5.876,4.6,1.687,1.687,0,0,0-.242,2.281c.6.688,1.623.241,2.4.377" transform="translate(24.818 7.45)" fill-rule="evenodd"/><path d="M226.873,202.428a36.38,36.38,0,0,0-1.785-6.42c-.5-1.352-1.641-3.678-3.463-3.544-2.006.147-.662,2.765-.467,3.806.762,4.073,1.2,8.239,1.8,12.339.3,2.032.388,4.125.868,6.126a16.321,16.321,0,0,0,.978,2.842c.262.585.575,1.344,1.229,1.608,1.987.8,1.491-2.695,1.469-3.556q-.082-3.163-.155-6.326l.163,0c-.3-2.286-.25-4.59-.643-6.871" transform="translate(40.432 35.064)" fill-rule="evenodd"/><path d="M29.388,234.512a6.908,6.908,0,0,1-3.079.516c-.829-.079-1.65-.248-2.477-.352a21.358,21.358,0,0,1-6.12-1.734A19.492,19.492,0,0,1,12.8,229.9a25.935,25.935,0,0,1-2.162-2.177,2.666,2.666,0,0,0-1.713-1.052,9.546,9.546,0,0,0,.957,2.97,17.38,17.38,0,0,0,1.447,2.3,16.763,16.763,0,0,0,4.008,3.825,16.041,16.041,0,0,0,4.995,2.353c.995.252,2.014.4,3.021.6a8.656,8.656,0,0,0,2.848.233,19.316,19.316,0,0,0,2.752-.413,7.305,7.305,0,0,0,1.961-1.053c1.162-.791-.1-3.437-1.527-2.973" transform="translate(1.636 41.337)" fill-rule="evenodd"/><path d="M56.561,28.283c.541.724,1.7.728,1.624-.333A11.47,11.47,0,0,0,57.5,25.1a9.541,9.541,0,0,1-.273-2.93,33.007,33.007,0,0,1,.471-6.892c.421-2.211.693-4.449,1.186-6.647.484-2.157,1.359-4.2,1.9-6.335.167-.661.3-1.95-.666-2.1-.8-.125-1.278,1-1.589,1.534a26.208,26.208,0,0,0-2.769,5.382,28.932,28.932,0,0,0-1.167,5.522c-.2,1.941-.173,3.9-.292,5.848.195,2.262.091,4.765.818,6.933a10.6,10.6,0,0,0,1.445,2.868" transform="translate(9.954 -0.186)" fill-rule="evenodd"/><path d="M312.685,35.128a2.191,2.191,0,0,0,.073,2.295c.992,1.3,2.571-1.662,2.811-2.489a44.856,44.856,0,0,0,1.466-5.452,45.282,45.282,0,0,0,.2-5.835,39.917,39.917,0,0,0-1-6.75c-.48-1.96-.989-3.981-2.586-5.3-.665-.55-1.12-.134-1.214.65a4.328,4.328,0,0,0,.515,2.48c.918,1.768.92,3.835,1.126,5.811.408,3.93.638,7.849-.392,11.705a22.757,22.757,0,0,1-1,2.888" transform="translate(57.273 1.859)" fill-rule="evenodd"/><path d="M27.777,68.949a24.041,24.041,0,0,0,.814,2.639,22.187,22.187,0,0,0,2.474,4.725,26.551,26.551,0,0,0,6.287,6.407c.791.56,2.713,2.126,3.741,1.6,1.407-.715-.476-2.538-1.047-3.072-1.179-1.1-2.35-2.213-3.542-3.3a23.771,23.771,0,0,1-3.027-3.8c-.95-1.317-1.878-2.651-2.738-4.03-.445-.713-.833-1.461-1.275-2.174a10.294,10.294,0,0,0-1.442-1.561c-.41.2-.362.162-.468.533a2.814,2.814,0,0,0-.028.632,6.025,6.025,0,0,0,.252,1.4" transform="translate(5.045 11.95)" fill-rule="evenodd"/><path d="M114.369,81.492c2.231-2.02,4.68-3.728,6.787-5.881.53-.542.94-.858.481-1.6-.307-.494-.659-.745-1.176-.406-1.238.81-2.417,1.8-3.61,2.688a74.83,74.83,0,0,0-7.189,5.684,19.441,19.441,0,0,0-2.7,3.125c-.814,1.2-1.429,2.41-.519,3.751,2.652-2.44,5.254-4.943,7.925-7.361" transform="translate(19.432 13.246)" fill-rule="evenodd"/><path d="M344.216,220.737c-.4-.1-1.064.343-1.361.539-1.183.78-2.408,1.5-3.6,2.26-1.1.7-2.19,1.421-3.275,2.148a2.146,2.146,0,0,0-1.178,2.49c.145.521.386,1.131.99.833a11.5,11.5,0,0,1,1.315-.605,24.458,24.458,0,0,0,3.614-1.491c1.988-1.086,3.85-2.768,4.116-5.136-.147-.335-.19-.932-.617-1.036" transform="translate(61.364 40.246)" fill-rule="evenodd"/><path d="M232.517,200.592c-.4-.441-.9-.447-1.113.086a4.709,4.709,0,0,0,.144,2.035q.192,1.338.421,2.67c.089.518.154,2.13.835,2.339,1.044.322,1.069-2.218,1.159-2.735-.22-.75-.429-1.5-.65-2.253a5.584,5.584,0,0,0-.8-2.143" transform="translate(42.409 36.496)" fill-rule="evenodd"/><path d="M83.9,163.737c-.25-.119-.443-.067-.5-.365-.044-.247.344-.5.4-.716.213-.763-.588.04-.878.281q.413,1.02.826,2.038c.312-.123.624-.249.935-.374-.3-.4-.335-.648-.79-.864" transform="translate(15.204 29.541)" fill-rule="evenodd"/><path d="M207.363,61.4a4.182,4.182,0,0,0,1.812-.16,9.048,9.048,0,0,0,1.576-.427c1.2-.47,1.1-1.894.824-3a23.717,23.717,0,0,0-1.871-4.3c-.343-.716-.675-1.433-.987-2.164-.235-.552-.547-1.326-1.262-1.332-1.1-.008-.565,2.589-.389,3.207a29.8,29.8,0,0,0,1.944,4.446,18.965,18.965,0,0,1-1.912.105c-.655-.022-.834,0-.994.729-.231,1.058.087,2.508,1.26,2.894" transform="translate(37.773 8.95)" fill-rule="evenodd"/><path d="M199.131,49.423c1.188-.073,2.372-.2,3.553-.33.87-.1,2.387-.116,3-.8a1.766,1.766,0,0,0-.022-1.965c-.44-.577-1.468-.349-2.122-.349a11.658,11.658,0,0,0-5.054,1.042c-.58.286-1.884.8-1.745,1.583.173.978,1.658.867,2.385.823" transform="translate(36.068 8.2)" fill-rule="evenodd"/><path d="M203.056,60.462c-.992.249-.8,1.948-.5,2.662a2.5,2.5,0,0,0,2.674,1.26c.51-.051,1.243.132,1.626-.294a1.691,1.691,0,0,0,.105-1.741,4.133,4.133,0,0,0-1.89-1.269c-.54-.252-1.4-.774-2.019-.618" transform="translate(37.091 10.859)" fill-rule="evenodd"/><path d="M203.528,53.473c.077-.973-.479-3.159-1.777-3.078-.617.039-1.143.922-1.256,1.465a3.67,3.67,0,0,0,.2,1.7c.246.9.616,2.3,1.816,2.1,1-.166,1.024-1.357,1.021-2.181" transform="translate(36.75 9.018)" fill-rule="evenodd"/><path d="M211.118,54.452a.93.93,0,0,0,1.015.278c.543-.247.449-.9.449-1.363l.182-.059c-.308-.855-.51-2.644-1.58-2.886-1.05-.237-1.127.929-1.028,1.658a4.252,4.252,0,0,0,.962,2.371" transform="translate(38.523 9.018)" fill-rule="evenodd"/><path d="M183.284,53.74c-.522.052-1.5.294-1.419.949.124.954,1.619,1.124,2.378,1.216.9.11,2.146.019,1.291-1.109a3.057,3.057,0,0,0-2.25-1.057" transform="translate(33.341 9.632)" fill-rule="evenodd"/><path d="M145.974,150.062l-.561,1.1,1.76.224c.025-.465-.887-1.042-1.2-1.32" transform="translate(26.659 27.291)" fill-rule="evenodd"/></g></g></g></svg>