<svg xmlns="http://www.w3.org/2000/svg" xmlns:xlink="http://www.w3.org/1999/xlink" width="69" height="69" viewBox="0 0 69 69"><defs><clipPath id="a"><rect width="69" height="69" transform="translate(1179 357)" fill="#fff"/></clipPath></defs><g transform="translate(-1179 -357)" clip-path="url(#a)"><path d="M17.51,22.07A7.109,7.109,0,1,0,10.4,14.961,7.117,7.117,0,0,0,17.51,22.07Zm0-10.808a3.7,3.7,0,1,1-3.7,3.7A3.7,3.7,0,0,1,17.51,11.262Zm18.53,39.2v8.977a1.7,1.7,0,0,1-1.7,1.7H7.6a1.7,1.7,0,0,1-1.7-1.7V57.449a1.7,1.7,0,1,1,3.41,0v.289H32.631V52.171H14.436a1.7,1.7,0,0,1,0-3.41h19.9A1.7,1.7,0,0,1,36.04,50.466ZM67.3,41.393H51.408V37.268H63.879a1.7,1.7,0,0,0,1.7-1.7V17a1.7,1.7,0,0,0-1.7-1.7H35.528a1.7,1.7,0,0,0-1.7,1.7V35.563a1.7,1.7,0,0,0,1.7,1.7H48v4.125H9.145l.2-6.582c.059-1.969.711-6.555,5.484-6.6l.09,0q.056,0,.113,0h5.2c4.744.068,5.393,4.638,5.452,6.6a1.7,1.7,0,1,0,3.408-.1c-.179-5.968-3.656-9.858-8.857-9.911h-5.2c-.036,0-.072,0-.107,0s-.087,0-.13,0c-5.2.053-8.679,3.943-8.857,9.911l-.2,6.684H1.7a1.7,1.7,0,1,0,0,3.41H5.632l-.1,3.282a1.7,1.7,0,0,0,1.653,1.755h.052a1.7,1.7,0,0,0,1.7-1.654l.1-3.384H67.3a1.7,1.7,0,0,0,0-3.41ZM37.233,33.858V18.7H62.174V33.858Z" transform="translate(1179 357)" fill="#fff"/></g></svg>